<svg width="46" height="46" viewBox="0 0 46 46" fill="none" xmlns="http://www.w3.org/2000/svg">
<path d="M6.43816 8.43777e-05C6.13316 8.43777e-05 5.84065 0.121245 5.62499 0.336912C5.40932 0.552578 5.28816 0.845085 5.28816 1.15008V32.2001H0V42.3201H5.28816V44.8501C5.28816 45.1551 5.40932 45.4476 5.62499 45.6633C5.84065 45.8789 6.13316 46.0001 6.43816 46.0001H39.5582C39.8632 46.0001 40.1557 45.8789 40.3713 45.6633C40.587 45.4476 40.7082 45.1551 40.7082 44.8501V9.94758C40.7206 9.4356 40.71 9.13016 40.3714 8.75618L31.9516 0.336804C31.8432 0.228366 31.7141 0.142713 31.5721 0.0848865C31.43 0.0270596 31.2779 -0.00177327 31.1245 8.43777e-05H6.43816ZM7.58816 2.30008H30.0831L30.659 9.00136C30.6821 9.27154 30.7999 9.52486 30.9916 9.71659C31.1834 9.90833 31.4367 10.0261 31.7069 10.0492L38.4082 10.6252V43.7001H7.58816V42.3201H36.8V32.2001H7.58816V2.30008ZM9.41896 33.5801C10.5095 33.5801 11.36 33.7547 11.9706 34.104C12.5854 34.4496 12.9806 34.9288 13.156 35.5415L11.3956 35.7922C11.2717 35.4644 11.0382 35.2065 10.695 35.0185C10.3552 34.8271 9.93002 34.7316 9.41942 34.7319C8.64478 34.7319 8.02807 34.9185 7.5693 35.2917C7.11421 35.665 6.88666 36.2186 6.88666 36.9528C6.88666 37.7449 7.11819 38.3397 7.58126 38.7371C8.04433 39.1312 8.65091 39.3282 9.40102 39.3282C9.7727 39.3282 10.1441 39.2738 10.5151 39.1649C10.8905 39.0527 11.2119 38.9176 11.4793 38.7597V37.9133H9.44978V36.7895H13.2701V39.4469C12.8987 39.7202 12.3596 39.9615 11.6527 40.171C10.9588 40.376 10.2391 40.4801 9.51556 40.4801C8.59709 40.4801 7.79654 40.3344 7.1139 40.0431C6.43126 39.7487 5.91821 39.3298 5.57474 38.7864C5.23586 38.2552 5.05715 37.6376 5.06 37.0075C5.06 36.3129 5.25167 35.6955 5.635 35.1551C6.01833 34.6148 6.57923 34.2006 7.31768 33.9127C7.88041 33.6909 8.58053 33.5801 9.41896 33.5801ZM14.8994 33.6942H17.7436C18.8212 33.6942 19.5238 33.7274 19.8513 33.794C20.3542 33.8943 20.7753 34.1129 21.1145 34.4499C21.4542 34.7833 21.6241 35.2154 21.6241 35.7462C21.6241 36.1559 21.5262 36.5003 21.3302 36.7794C21.137 37.0561 20.8804 37.2826 20.5818 37.4399C20.2825 37.5976 19.977 37.702 19.6655 37.7532C19.2423 37.8176 18.6295 37.8498 17.8273 37.8498H16.6718V40.366H14.8994V33.6942ZM22.4802 33.6942H24.552L26.312 35.8378L28.037 33.6942H30.0909L27.3608 36.9349L30.36 40.366H28.2228L26.2757 38.0586L24.3243 40.366H22.1978L25.1983 36.8847L22.4802 33.6942ZM16.6718 34.8225V36.7154H17.6415C18.3397 36.7157 18.8068 36.6811 19.0426 36.6115C19.2784 36.5416 19.4621 36.4322 19.5937 36.2835C19.7261 36.1435 19.7991 35.9577 19.7975 35.7651C19.7975 35.5222 19.7038 35.3218 19.5164 35.1639C19.3284 35.0062 19.0906 34.9078 18.803 34.8685C18.5914 34.8379 18.1665 34.8225 17.5283 34.8225H16.6718Z" fill="#3A3A3C"/>
<path d="M32.5547 4.1929L36.5153 8.1535L32.8684 7.83978L32.5547 4.1929Z" fill="#3A3A3C"/>
<path d="M14.3092 6.63873C12.3634 6.63873 10.77 8.22803 10.77 10.1679C10.77 10.9195 11.0096 11.6182 11.4163 12.1923L13.8773 16.4469C14.2223 16.8972 14.4513 16.8116 14.7375 16.4229L17.4524 11.8036C17.5071 11.7043 17.5499 11.5985 17.5876 11.4908C17.7551 11.0814 17.8484 10.6352 17.8484 10.1679C17.8484 8.22803 16.2545 6.63873 14.3092 6.63873ZM14.3092 8.29243C14.5562 8.29073 14.8011 8.33803 15.0297 8.43162C15.2583 8.5252 15.466 8.6632 15.6409 8.83762C15.8158 9.01204 15.9544 9.21942 16.0486 9.44776C16.1428 9.6761 16.1907 9.92085 16.1897 10.1679C16.1907 10.4149 16.1428 10.6596 16.0486 10.8879C15.9544 11.1163 15.8158 11.3237 15.6409 11.4981C15.466 11.6725 15.2583 11.8105 15.0297 11.9041C14.8011 11.9977 14.5562 12.045 14.3092 12.0433C14.0622 12.045 13.8172 11.9978 13.5886 11.9042C13.3599 11.8107 13.1521 11.6727 12.9772 11.4983C12.8022 11.3238 12.6637 11.1164 12.5694 10.8881C12.4752 10.6597 12.4272 10.4149 12.4283 10.1679C12.4272 9.92077 12.4752 9.67594 12.5695 9.44755C12.6637 9.21915 12.8024 9.01172 12.9774 8.83729C13.1523 8.66285 13.3602 8.52488 13.5889 8.43135C13.8176 8.33782 14.0621 8.29061 14.3092 8.29243Z" fill="#3A3A3C"/>
<path d="M11.2576 23.3036C10.5574 24.7038 10.9116 26.4109 12.3018 27.1998C13.691 27.9878 15.2839 27.519 16.1966 26.1556C16.721 25.2476 16.6782 24.1647 16.1865 23.3128L20.976 19.4226C22.2322 19.9028 23.6955 19.4318 24.4191 18.2615L29.4179 19.309C29.5136 20.1843 30.0053 21.0068 30.82 21.4774C32.1756 22.2599 33.9328 21.7888 34.7153 20.4332C35.471 19.1245 35.0501 17.4501 33.8008 16.6308C33.7211 16.56 33.6278 16.5061 33.5266 16.4726C32.1926 15.8001 30.532 16.2725 29.7762 17.5812C29.7459 17.6341 29.7206 17.6879 29.6939 17.7417L24.8391 16.7242C24.8301 16.2594 24.7082 15.8038 24.4839 15.3966C24.2596 14.9894 23.9396 14.6429 23.5515 14.387C23.4719 14.3161 23.3786 14.2622 23.2774 14.2287C21.9434 13.5562 20.2828 14.0286 19.527 15.3373C18.9474 16.341 19.0564 17.5637 19.7013 18.4488L15.042 22.2074L15.0079 22.1945C13.6739 21.5225 11.9333 21.9517 11.2576 23.3036ZM12.6348 24.0989C12.7165 23.9544 12.8262 23.8275 12.9574 23.7259C13.0887 23.6242 13.2389 23.5497 13.3993 23.5067C13.5597 23.4638 13.7271 23.4532 13.8916 23.4757C14.0561 23.4981 14.2145 23.5532 14.3575 23.6376C14.5022 23.7192 14.6291 23.8288 14.7308 23.96C14.8326 24.0913 14.9072 24.2415 14.9502 24.4019C14.9932 24.5623 15.0038 24.7297 14.9813 24.8943C14.9588 25.0588 14.9038 25.2173 14.8193 25.3603C14.7377 25.5049 14.628 25.6318 14.4968 25.7335C14.3655 25.8352 14.2153 25.9098 14.0549 25.9528C13.8945 25.9958 13.7272 26.0064 13.5626 25.9839C13.3981 25.9615 13.2397 25.9065 13.0966 25.8221C12.952 25.7405 12.825 25.6308 12.7233 25.4995C12.6215 25.3682 12.5469 25.218 12.5039 25.0575C12.4609 24.897 12.4503 24.7296 12.4728 24.565C12.4953 24.4005 12.5504 24.242 12.6348 24.0989ZM20.9042 16.1331C20.9859 15.9886 21.0956 15.8617 21.2269 15.76C21.3581 15.6584 21.5084 15.5839 21.6687 15.5409C21.8291 15.4979 21.9965 15.4874 22.161 15.5099C22.3255 15.5323 22.4839 15.5874 22.6269 15.6717C22.7716 15.7533 22.8985 15.863 23.0003 15.9942C23.102 16.1255 23.1766 16.2757 23.2196 16.4361C23.2626 16.5965 23.2732 16.7639 23.2507 16.9285C23.2283 17.093 23.1732 17.2514 23.0888 17.3944C23.0071 17.5391 22.8975 17.6659 22.7662 17.7677C22.635 17.8694 22.4847 17.9439 22.3243 17.9869C22.164 18.0299 21.9966 18.0405 21.832 18.0181C21.6675 17.9957 21.5091 17.9407 21.3661 17.8563C21.2214 17.7746 21.0945 17.665 20.9927 17.5337C20.8909 17.4024 20.8163 17.2521 20.7733 17.0917C20.7303 16.9312 20.7198 16.7638 20.7422 16.5992C20.7647 16.4346 20.8198 16.2762 20.9042 16.1331ZM31.1535 18.3775C31.2352 18.2329 31.3448 18.1061 31.4761 18.0044C31.6074 17.9027 31.7576 17.8282 31.918 17.7852C32.0784 17.7423 32.2457 17.7317 32.4103 17.7542C32.5748 17.7767 32.7332 17.8317 32.8762 17.9161C33.0208 17.9977 33.1476 18.1073 33.2494 18.2385C33.3511 18.3697 33.4256 18.5199 33.4686 18.6803C33.5116 18.8406 33.5222 19.0079 33.4998 19.1724C33.4774 19.337 33.4224 19.4953 33.338 19.6383C33.2564 19.7829 33.1467 19.9098 33.0155 20.0115C32.8842 20.1133 32.734 20.1878 32.5736 20.2308C32.4132 20.2738 32.2458 20.2844 32.0813 20.262C31.9168 20.2396 31.7584 20.1845 31.6153 20.1002C31.4707 20.0185 31.3438 19.9089 31.2421 19.7776C31.1404 19.6464 31.0658 19.4962 31.0228 19.3358C30.9798 19.1754 30.9692 19.008 30.9917 18.8435C31.0141 18.6789 31.0691 18.5205 31.1535 18.3775Z" fill="#3A3A3C"/>
</svg>
