<svg width="662" height="665" viewBox="0 0 662 665" fill="none" xmlns="http://www.w3.org/2000/svg">
<path fill-rule="evenodd" clip-rule="evenodd" d="M309.501 0.529787C241.867 3.60387 178.687 31.4419 128.053 70.4597C125.787 72.2056 125.28 73.4038 123.027 75.2536L106.057 90.1251C91.3511 104.449 79.4019 116.856 67.0652 133.298C-8.79659 234.403 -21.6557 366.553 35.4286 479.277C54.0047 515.96 66.3015 525.899 86.556 551.473C87.6026 552.794 87.4492 552.894 88.7563 554.24L107.114 572.559C172.744 633.782 253.328 669.87 352.274 663.322C417.671 658.995 473.356 637.504 521.032 602.236C527.868 597.179 538.678 589.56 544.069 583.489L560.038 568.692C562.299 566.745 563.221 565.364 565.212 562.919C568.377 559.031 571.842 556.003 575.18 552.155C631.144 487.651 668.353 397.51 661.098 311.885C656.877 262.079 645.821 223.125 626.513 183.546C617.62 165.315 606.45 148.122 595.463 132.868C582.549 114.941 572.688 104.823 556.475 88.7069C530.412 62.7996 489.885 37.4215 455.704 22.982C411.413 4.27063 364.806 -1.98376 309.501 0.530165L309.501 0.529787Z" fill="#758834"/>
<path fill-rule="evenodd" clip-rule="evenodd" d="M143.423 474.616C140.606 484.892 141.803 495.022 152.761 495.703C164.951 488.99 182.485 482.496 198.749 477.75C216.693 472.514 233.52 469.04 252.476 465.878C262.287 464.242 270.178 461.353 275.21 456.449C277.1 454.607 280.372 450.292 282.372 447.769C289.299 439.029 311.868 410.69 318.754 404.583C325.992 410.848 339.164 422.467 343.712 430.705C348.53 439.432 340.038 453.258 342.431 476.398C345.416 505.266 358.977 529.313 365.965 555.789L367.265 558.915C378.937 559.121 386.104 554.437 386.945 545.032C378.902 526.085 379.9 504.857 381.046 483.214C381.589 472.961 382.133 461.359 384.056 451.379C385.721 442.731 390.922 429.516 390.095 421.597C389.47 415.617 382.52 402.917 379.943 396.526C376.246 387.356 349.543 325.596 346.596 321.816C332.281 318.176 320.489 308.291 309.53 302.241C311.091 299.051 312.232 298.715 310.835 294.042C307.839 284.022 299.192 283.168 292.75 280.927C283.826 280.394 283.047 277.345 280.078 271.189C277.703 266.265 275.591 261.46 273.49 256.176C269.849 247.014 265.697 233.579 263.574 223.06L285.366 215.065C290.644 212.515 297.332 210.815 302.69 208.662C308.92 206.159 313.852 203.514 319.447 201.304C325.187 197.031 327.405 196.867 332.035 191.045C342.618 177.738 339.698 156.989 310.569 155.095C308.742 155.229 287.081 161.876 284.018 163.918C274.179 170.479 276.853 174.491 271.751 177.436C267.975 179.615 262.612 180.354 255.423 186.991C223.551 216.418 220.604 207.246 233.682 236.855C245.776 264.236 269.299 286.471 275.969 298.09C275.812 298.259 275.544 298.279 275.473 298.576L271.219 303.268C252.199 329.195 268.266 349.186 266.753 356.668C265.986 360.457 262.936 367.191 261.41 371.13C259.635 375.712 258.095 380.676 256.445 385.729C253.268 395.46 249.864 405.942 246.057 415.453C235.116 442.788 218.882 422.18 181.567 451.776C179.045 453.776 178.856 454.67 176.633 456.67C169.484 463.102 154.037 472.223 143.424 474.616H143.423Z" fill="white"/>
<path fill-rule="evenodd" clip-rule="evenodd" d="M252.256 619.014C258.824 623.582 285.065 627.862 295.751 629.531C340.835 636.572 394.992 628.13 434.695 612.136C471.251 597.411 503.53 575.133 529.775 548.71L542.808 535.039C545.961 531.187 553.513 524.968 555.166 520.806L523.718 545.879C445.601 599.727 340.111 608.826 245.164 593.354C234.27 591.579 205.013 584.058 198.662 583.856L212.876 591.176C220.525 594.964 234.352 601.856 242.413 603.945C254.54 607.089 247.449 609.242 254.366 612.592C253.38 615.163 252.415 613.835 253.073 616.391C253.092 616.465 253.229 616.706 253.258 616.773C255.96 622.883 252.969 612.683 254.49 618.665L252.256 619.014V619.014Z" fill="#758834"/>
<path fill-rule="evenodd" clip-rule="evenodd" d="M510.286 567.039C474.841 588.718 430.283 604.843 380.832 611.92C331.615 618.963 284.727 616.017 245.073 605.228C246.246 606.096 246.57 606.949 246.903 607.829C247.388 609.105 247.893 610.436 251.044 611.945C250.63 613.155 250.204 613.61 249.901 613.933C249.475 614.387 249.296 614.578 249.748 616.252C249.762 616.306 249.833 616.44 249.89 616.547C249.919 616.603 249.945 616.652 249.957 616.678C250.531 617.954 250.875 618.591 251.067 618.827L248.934 619.224C256.12 624.208 284.479 628.396 296.025 630.018C344.739 636.86 402.832 626.055 445.174 607.097C468.767 596.534 490.605 582.895 510.286 567.039ZM251.067 618.827C251.21 619.003 251.269 618.957 251.276 618.788L251.067 618.827ZM251.258 618.505C251.281 618.592 251.306 618.683 251.331 618.778L251.276 618.788C251.279 618.714 251.272 618.617 251.258 618.505ZM250.838 616.699C250.732 616.374 250.767 616.651 251.258 618.505C251.189 617.951 250.943 617.024 250.838 616.699Z" fill="#92AB3F"/>
<path fill-rule="evenodd" clip-rule="evenodd" d="M285.366 216.066C286.555 218.385 286.393 222.24 286.512 224.778C286.641 227.518 286.921 229.708 287.181 232.564C288.318 245.069 290.705 272.333 292.75 281.929C299.193 284.169 307.839 285.024 310.835 295.043C312.232 299.716 311.092 300.052 309.53 303.242C320.49 309.293 332.282 319.177 346.596 322.817C346.038 306.993 343.735 297.65 351.941 279.366C353.886 275.031 356.156 271.779 357.689 267.189L359.247 268.962C359.647 264.9 364.869 255.512 366.92 251.971C368.617 249.043 369.628 246.872 371.279 243.642L375.819 236.37C373.523 232.623 375.941 230.939 377.417 225.199C371.038 227.802 367.996 232.082 359.514 232.498C348.937 233.018 334.839 223.156 327.441 216.596C319.186 209.277 321.252 205.981 319.447 202.305C313.852 204.516 308.92 207.16 302.69 209.664C297.332 211.817 290.644 213.517 285.366 216.067V216.066Z" fill="#758834"/>
<path fill-rule="evenodd" clip-rule="evenodd" d="M329.788 149.371C335.789 151.909 340.925 156.423 345.868 159.671L362.39 167.147C362.538 167.132 362.887 167.068 363.108 166.963C362.793 158.151 364.518 153.487 368.543 148.706C384.599 147.983 384.832 152.039 388.242 138.145L389.006 133.62C390.062 130.312 390.28 133.047 390.776 128.647C391.045 126.255 388.558 128.37 392.239 124.687C394.729 122.197 394.102 124.164 396.35 120.681C393.876 111.457 388.528 119.267 385.352 96.5764C389.036 94.7455 387.624 96.8863 390.139 94.0972C388.187 78.8421 359.142 74.5188 340.679 77.6197C330.791 79.2805 329.705 79.0023 324.737 84.8708C307.119 105.684 334.087 128.186 334.624 132.434C335.351 138.179 331.952 145.44 329.788 149.372V149.371Z" fill="white"/>
<path fill-rule="evenodd" clip-rule="evenodd" d="M310.569 156.096C339.698 157.989 342.618 178.739 332.035 192.046C327.405 197.867 325.187 198.032 319.447 202.304C321.252 205.98 319.186 209.276 327.441 216.595C334.839 223.155 348.937 233.017 359.514 232.498C367.996 232.081 371.038 227.801 377.417 225.198C375.94 230.938 373.524 232.622 375.819 236.369C376.223 234.788 381.539 219 382.092 218.267C383.122 207.966 383.268 195.615 379 187.153C374.94 179.104 365.44 174.317 363.109 167.962C362.888 168.068 362.539 168.131 362.39 168.147L345.869 160.671C340.926 157.422 335.79 152.908 329.789 150.371C324.387 151.012 315.104 154.441 310.569 156.096L310.569 156.096Z" fill="#92AB3F"/>
<path fill-rule="evenodd" clip-rule="evenodd" d="M382.092 218.267C381.539 219 376.223 234.788 375.819 236.369L371.279 243.641C369.628 246.871 368.616 249.042 366.92 251.97C364.869 255.511 359.647 264.899 359.247 268.961C361.614 273.82 367.008 278.47 373.06 280.687C380.033 283.24 385.808 278.375 390.498 275.398C401.622 268.337 416.917 258.641 426.03 249.129C429.541 245.465 429.603 245.427 432.831 243.033C444.775 234.175 451.818 225.847 440.814 212.643C435.867 206.707 433.168 205.423 422.349 205.558C418.73 217.26 420.644 213.962 414.638 216.095C414.246 222.597 414.035 228.417 419.366 231.276C414.252 235.251 395.202 242.125 387.551 244.568C384.446 238.611 382.497 226.214 382.092 218.266V218.267Z" fill="white"/>
<path fill-rule="evenodd" clip-rule="evenodd" d="M365.965 555.789C366.46 565.49 362.326 575.743 369.771 581.314C377.18 582.544 384.288 579.849 390.724 578.313C398.28 576.51 404.739 577.212 412.653 574.951C422.42 572.159 443.442 564.945 436.997 552.636C431.691 550.023 416.724 552.516 409.452 551.831C402.72 551.197 403.481 550.037 400.301 546.851C396.026 542.568 394.06 545.864 386.945 545.033C386.103 554.437 378.937 559.122 367.265 558.915L365.964 555.79L365.965 555.789Z" fill="#758834"/>
<path fill-rule="evenodd" clip-rule="evenodd" d="M112.812 527.294C114.785 530.845 118.092 534.425 121.914 536.664L124.593 534.858C126.226 533.996 125.9 534.664 127.351 533.567C131.689 530.289 125.527 517.806 145.403 507.227C150.77 504.37 151.998 503.523 152.762 496.702C141.805 496.022 140.608 485.891 143.424 475.616C137.262 471.673 116.904 453.177 116.907 481.311C116.907 492.138 116.607 494.882 114.176 503.715C112.097 511.277 113.17 519.299 112.812 527.294V527.294Z" fill="#758834"/>
<path fill-rule="evenodd" clip-rule="evenodd" d="M112.812 526.294C113.17 518.3 112.097 510.277 114.176 502.716C116.607 493.882 116.907 491.138 116.906 480.312C116.904 452.177 137.262 470.673 143.424 474.616C154.037 472.223 169.484 463.102 176.633 456.67C178.857 454.67 179.046 453.775 181.567 451.776C218.882 422.18 235.116 442.788 246.057 415.453C249.864 405.942 253.268 395.46 256.446 385.729C258.096 380.676 259.636 375.712 261.411 371.13C262.937 367.191 265.987 360.457 266.753 356.668C268.267 349.186 252.2 329.195 271.219 303.268L275.473 298.576C275.545 298.279 275.812 298.259 275.97 298.09C269.299 286.471 245.776 264.236 233.682 236.855C220.604 207.246 223.551 216.418 255.424 186.991C262.613 180.354 267.975 179.615 271.752 177.436C276.853 174.491 274.179 170.478 284.019 163.918C287.082 161.876 308.743 155.229 310.569 155.095C315.104 153.44 324.387 150.011 329.789 149.371C331.953 145.439 335.352 138.178 334.625 132.432C334.087 128.185 307.12 105.683 324.738 84.8697C329.706 79.0012 330.791 79.2794 340.68 77.6186C359.143 74.518 388.188 78.841 390.139 94.0961C387.625 96.8852 389.037 94.7444 385.352 96.5753C388.529 119.266 393.877 111.455 396.351 120.68C394.102 124.163 394.729 122.196 392.24 124.686C388.559 128.369 391.046 126.254 390.776 128.646C390.281 133.046 390.062 130.311 389.007 133.619L388.242 138.144C384.834 152.038 384.6 147.982 368.544 148.705C364.519 153.486 362.794 158.15 363.109 166.961C365.44 173.316 374.94 178.103 379 186.152C383.268 194.614 383.122 206.965 382.092 217.266C382.497 225.213 384.446 237.611 387.551 243.567C395.202 241.125 414.252 234.251 419.366 230.276C414.035 227.417 414.246 221.596 414.638 215.095C420.644 212.962 418.729 216.26 422.349 204.558C433.168 204.423 435.867 205.707 440.814 211.643C451.818 224.846 444.775 233.175 432.831 242.033C429.603 244.427 429.542 244.465 426.03 248.129C416.916 257.64 401.622 267.337 390.498 274.398C385.808 277.375 380.033 282.239 373.06 279.686C367.008 277.47 361.614 272.82 359.247 267.961L357.689 266.188C356.155 270.778 353.886 274.03 351.941 278.365C343.735 296.649 346.038 305.992 346.596 321.816C349.544 325.596 376.246 387.357 379.943 396.526C382.521 402.918 389.471 415.618 390.095 421.597C390.922 429.516 385.722 442.732 384.056 451.379C382.133 461.359 381.59 472.961 381.047 483.214C379.9 504.857 378.902 526.085 386.946 545.033C394.061 545.863 396.027 542.567 400.302 546.851C403.481 550.036 402.721 551.197 409.453 551.831C416.725 552.515 431.691 550.022 436.998 552.635C443.443 564.945 422.421 572.159 412.654 574.95C404.74 577.212 398.28 576.51 390.725 578.313C384.289 579.848 377.18 582.543 369.772 581.314C362.326 575.742 366.461 565.489 365.966 555.788C358.978 529.313 345.417 505.266 342.432 476.397C340.039 453.258 348.531 439.431 343.713 430.705C339.165 422.467 325.993 410.848 318.755 404.583C311.87 410.689 289.3 439.029 282.373 447.769C280.373 450.292 277.101 454.607 275.211 456.448C270.179 461.353 262.288 464.242 252.477 465.878C233.521 469.04 216.694 472.514 198.75 477.75C182.487 482.495 164.952 488.989 152.763 495.702C151.998 502.523 150.77 503.37 145.403 506.227C125.527 516.806 131.69 529.288 127.351 532.567C125.9 533.664 126.226 532.996 124.593 533.858L121.914 535.664C126.196 540.445 130.042 544.402 134.139 548.927C145.852 561.857 165.588 574.406 178.97 584.586C190.72 593.524 238.8 617.65 252.257 619.014L254.491 618.664C252.969 612.683 255.961 622.883 253.259 616.772C253.23 616.705 253.092 616.464 253.074 616.391C252.416 613.834 253.381 615.162 254.367 612.591C247.45 609.242 254.541 607.089 242.414 603.945C234.353 601.855 220.526 594.964 212.876 591.176L198.663 583.856C205.014 584.058 234.27 591.579 245.164 593.354C340.113 608.826 445.602 599.727 523.719 545.879L555.167 520.805C568.193 506.221 588.013 473.073 596.092 455.326C607.698 429.831 616.1 406.149 621.561 375.311C627.148 343.757 625.855 309.575 619.672 278.667C606.421 212.428 575.227 154.355 524.061 107.785C473.507 61.7723 406.321 32.7108 323.899 34.7057C255.636 36.3582 202.813 61.8233 162.41 90.4407C156.818 94.4011 152.043 97.5293 147.168 102.051L133.139 114.764C126.993 120.737 128.617 117.043 119.422 127.847C116.916 130.791 115.96 131.203 112.984 134.249C111.088 136.191 108.758 139.337 106.754 141.844C95.9517 155.362 93.771 159.136 84.3522 172.731C77.6573 182.394 70.4821 195.679 65.1024 207.51C39.5844 263.631 30.4018 316.419 41.4618 384.996C45.9672 412.931 56.5824 441.9 68.1487 463.887C74.4228 475.814 80.9023 486.587 88.412 496.743L112.812 526.294Z" fill="#222222"/>
<path fill-rule="evenodd" clip-rule="evenodd" d="M292.749 280.928C290.704 271.332 288.317 244.068 287.18 231.563C286.92 228.707 286.641 226.517 286.511 223.777C286.392 221.24 286.554 217.384 285.365 215.065L263.573 223.06C265.697 233.579 269.848 247.014 273.49 256.176C275.591 261.46 277.703 266.265 280.077 271.189C283.046 277.345 283.826 280.395 292.749 280.928Z" fill="#222222"/>
<ellipse cx="345.5" cy="115.5" rx="6.5" ry="5.5" fill="#D2FA4D"/>
<path fill-rule="evenodd" clip-rule="evenodd" d="M282.315 448.209C289.242 439.469 311.812 411.129 318.698 405.023C325.935 411.288 341.169 426.797 345.717 435.035C359.479 422.979 369.852 412.384 379.886 396.966C376.189 387.796 349.487 326.035 346.539 322.255C332.224 318.616 320.433 308.731 309.473 302.681C294.5 317.5 276 297.5 275.416 299.015L271.162 303.707C252.143 329.634 268.209 349.625 266.696 357.108C265.93 360.896 262.88 367.63 261.354 371.57C259.578 376.151 258.039 381.116 256.389 386.169C253.211 395.899 249.807 406.381 246 415.893C282.315 448.209 246 415.893 282.315 448.209Z" fill="#758834"/>
</svg>
