<svg width="110" height="110" viewBox="0 0 110 110" fill="none" xmlns="http://www.w3.org/2000/svg">
<path d="M34.375 12.4529L9.16669 27.1609V98.5418L34.375 88.1514V12.4529ZM43.5417 86.6709L58.4146 95.4526C54.6972 90.3623 52.6984 84.2199 52.7084 77.9167C52.7078 72.9138 53.9671 67.9913 56.3702 63.6033C58.7732 59.2153 62.2427 55.5031 66.4584 52.8092V23.3292L43.5417 9.79459V86.6709ZM100.833 11.4583V54.4317C97.3101 51.6884 93.2169 49.7695 88.8545 48.8161C84.4921 47.8627 79.9715 47.8991 75.6251 48.9225V21.8488L100.833 11.4583Z" fill="#8E8E93"/>
<path d="M87.0834 73.3333V55H77.9167V73.3333H59.5834V82.5H77.9167V100.833H87.0834V82.5H105.417V73.3333H87.0834Z" fill="#8E8E93"/>
</svg>
