<?xml version="1.0" standalone="no"?>
<!DOCTYPE svg PUBLIC "-//W3C//DTD SVG 20010904//EN"
 "http://www.w3.org/TR/2001/REC-SVG-20010904/DTD/svg10.dtd">
<svg version="1.0" xmlns="http://www.w3.org/2000/svg"
 width="256.000000pt" height="256.000000pt" viewBox="0 0 256.000000 256.000000"
 preserveAspectRatio="xMidYMid meet">

<g transform="translate(0.000000,256.000000) scale(0.100000,-0.100000)"
fill="#000000" stroke="none">
<path d="M1137 2549 c-154 -16 -355 -82 -488 -159 -336 -197 -564 -522 -630
-900 -19 -107 -16 -335 5 -443 102 -522 500 -920 1024 -1024 118 -23 346 -23
465 0 471 94 842 424 985 877 43 138 56 227 56 385 -1 156 -11 224 -56 370
-102 334 -341 615 -656 770 -221 108 -458 150 -705 124z m113 -136 c0 -16 3
-52 6 -80 6 -44 4 -53 -9 -53 -12 0 -17 13 -19 58 l-3 57 -15 -59 c-9 -33 -21
-61 -28 -64 -6 -2 -23 20 -37 50 l-25 53 4 -52 c4 -40 2 -53 -8 -53 -8 0 -15
19 -20 53 -10 89 -8 107 13 107 13 0 25 -16 41 -55 12 -30 25 -53 29 -50 4 2
13 29 20 60 10 43 16 55 32 55 14 0 19 -7 19 -27z m158 3 c12 -12 13 -20 5
-38 -7 -16 -7 -28 0 -40 8 -12 8 -24 -1 -42 -10 -24 -17 -26 -68 -26 l-57 0 7
53 c3 28 6 67 6 86 l0 34 46 -6 c25 -2 53 -12 62 -21z m138 -7 c59 -15 58 -33
-1 -25 -37 6 -46 4 -52 -9 -7 -20 12 -35 44 -35 21 0 40 -16 30 -26 -2 -3 -23
-1 -45 4 -38 9 -40 8 -45 -14 -4 -20 1 -25 32 -34 20 -5 42 -10 49 -10 12 0
16 -12 7 -22 -5 -5 -113 17 -120 24 -2 2 4 38 13 81 18 84 17 84 88 66z m-531
-15 c21 -8 45 -56 45 -89 0 -51 -63 -89 -115 -69 -21 8 -45 56 -45 89 0 51 63
89 115 69z m646 -29 c-4 -36 -47 -145 -58 -145 -17 0 -17 0 13 86 15 41 31 73
36 72 5 -2 9 -8 9 -13z m96 -27 c67 -28 86 -78 37 -100 -23 -11 -24 -16 -18
-51 9 -55 -17 -45 -31 12 -14 58 -39 71 -60 31 -15 -28 -35 -41 -35 -21 0 17
62 141 70 141 5 0 22 -5 37 -12z m-913 -17 c9 -10 14 -25 11 -33 -4 -10 1 -17
14 -21 16 -4 21 -13 21 -36 0 -33 -23 -54 -71 -66 -25 -6 -29 -2 -58 60 -17
37 -31 71 -31 75 0 8 66 39 86 39 6 1 18 -7 28 -18z m1095 -86 c63 -32 52
-126 -18 -155 -24 -9 -35 -9 -59 4 -16 8 -32 23 -36 31 -18 48 5 108 48 125
29 12 33 12 65 -5z m-1343 -49 c-32 -28 -35 -34 -23 -50 13 -17 15 -17 45 9
17 14 37 23 43 20 7 -5 -3 -19 -26 -37 -34 -29 -35 -31 -19 -49 16 -18 18 -17
52 11 52 43 63 23 11 -21 -24 -21 -47 -39 -51 -39 -9 0 -98 116 -98 127 1 14
84 72 94 66 5 -4 -7 -20 -28 -37z m909 -11 c263 -66 483 -244 607 -490 147
-289 115 -670 -77 -940 -49 -69 -169 -187 -235 -232 -175 -118 -412 -178 -615
-154 -442 52 -775 386 -824 824 -30 265 61 532 248 729 237 250 565 346 896
263z m586 -66 c20 -20 24 -72 4 -67 -5 2 -9 10 -8 19 3 24 -34 56 -49 41 -8
-8 -5 -23 13 -56 23 -44 23 -45 5 -65 -25 -28 -52 -26 -82 4 -27 28 -30 75 -5
83 10 3 12 -1 9 -16 -7 -26 17 -62 43 -62 25 0 24 20 -2 64 -16 28 -18 39 -9
55 14 27 54 27 81 0z m-1576 -23 c37 -16 70 -67 60 -94 -3 -9 -19 -32 -36 -51
l-31 -33 -59 58 -60 59 40 38 c46 43 41 41 86 23z m1711 -141 c4 -9 -9 -34
-31 -61 -20 -25 -35 -47 -33 -49 2 -2 30 3 61 11 56 14 77 13 77 -6 0 -16
-135 -101 -139 -88 -4 11 11 27 60 60 23 16 21 16 -31 2 -30 -7 -58 -14 -62
-14 -17 0 -6 27 23 63 17 21 29 40 27 42 -2 3 -21 -7 -41 -20 -37 -26 -57 -31
-57 -16 0 9 118 89 133 90 4 1 10 -6 13 -14z m-1835 -68 c46 -31 52 -85 15
-122 -29 -29 -55 -31 -96 -10 -57 29 -65 81 -21 126 35 35 57 36 102 6z m1939
-117 c0 -10 -121 -70 -141 -70 -28 0 -1 25 54 50 67 31 87 36 87 20z m-2045
-50 c14 -16 15 -24 6 -51 -15 -44 -15 -46 21 -58 23 -8 29 -14 21 -22 -8 -8
-31 -4 -83 16 -71 27 -72 28 -66 58 14 72 63 99 101 57z m2085 -20 c0 -5 -31
-18 -70 -30 -67 -20 -69 -21 -60 -46 13 -32 13 -54 1 -54 -6 0 -16 21 -23 48
l-14 47 60 22 c66 23 106 28 106 13z m31 -135 c0 -9 -50 -25 -126 -39 -64 -12
-36 16 36 35 69 19 90 20 90 4z m-2171 -15 c10 -19 13 -19 40 -5 34 17 50 19
50 5 0 -5 -17 -18 -39 -29 -60 -31 -66 -71 -10 -71 19 0 29 -5 29 -15 0 -8 -3
-15 -7 -15 -10 0 -137 21 -149 25 -14 4 0 90 17 111 17 21 57 17 69 -6z m2194
-76 c8 -63 8 -84 -3 -84 -5 0 -11 10 -15 23 -5 23 -7 23 -71 14 -36 -5 -68 -7
-71 -4 -14 14 11 25 71 32 60 6 66 9 64 28 -2 31 0 37 10 37 4 0 11 -21 15
-46z m-2185 -85 c54 -19 68 -75 30 -123 -42 -54 -149 -22 -149 45 0 42 10 60
44 75 38 16 36 16 75 3z m2121 -38 c41 -15 76 -33 78 -40 2 -6 -25 -24 -60
-40 -91 -41 -108 -45 -108 -27 0 9 11 18 25 22 20 5 25 12 25 38 0 25 -6 35
-25 44 -23 11 -35 32 -17 32 4 0 41 -13 82 -29z m-2076 -163 c30 -42 19 -91
-25 -113 -41 -22 -77 -18 -104 10 -30 29 -33 75 -7 98 24 22 35 10 17 -17 -19
-26 -19 -41 1 -60 32 -33 114 -8 114 34 0 11 -11 27 -25 36 -14 9 -25 20 -25
25 0 18 39 8 54 -13z m2122 6 l31 -6 -8 -51 c-12 -72 -52 -100 -82 -57 -13 19
-16 19 -52 5 -60 -26 -62 1 -2 31 56 29 64 61 15 66 -17 2 -34 9 -36 17 -5 14
35 12 134 -5z m-2026 -334 c11 -21 20 -48 20 -58 0 -27 -25 -45 -56 -39 -21 4
-28 -1 -42 -29 -8 -19 -20 -34 -25 -34 -11 0 -5 30 14 77 18 45 3 61 -39 39
-23 -12 -31 -13 -35 -3 -3 10 112 84 135 86 4 1 17 -17 28 -39z m1820 -9 c0
-6 -9 -26 -21 -45 -20 -34 -20 -35 -1 -45 17 -9 23 -6 41 24 11 19 25 35 31
35 15 0 13 -8 -11 -47 -18 -29 -19 -37 -8 -44 26 -16 38 -9 60 32 13 26 24 38
30 32 9 -9 -32 -96 -50 -107 -4 -3 -37 12 -74 33 -36 22 -63 33 -61 26 3 -7 1
-16 -5 -20 -22 -13 -10 -31 45 -69 36 -25 52 -42 46 -48 -6 -6 -27 3 -60 26
-55 40 -64 42 -81 22 -9 -10 -8 -16 4 -26 8 -7 15 -23 15 -36 0 -20 6 -25 40
-30 57 -9 45 -30 -14 -26 -27 2 -53 -1 -62 -9 -13 -10 -11 -16 11 -39 19 -20
23 -30 15 -35 -12 -7 -120 90 -120 109 0 5 17 26 39 46 38 37 125 157 155 218
16 30 36 43 36 23z m-1760 -100 c0 -17 -132 -93 -143 -82 -6 6 14 25 59 54 64
41 84 48 84 28z m48 -64 c41 -33 33 -101 -14 -132 -72 -47 -155 29 -114 105
24 44 91 58 128 27z m160 -170 c24 -22 32 -82 10 -74 -7 2 -12 12 -10 22 4 23
-26 55 -51 55 -27 0 -67 -38 -67 -63 0 -26 28 -57 50 -57 26 0 31 12 13 32
-23 26 -9 34 21 11 30 -21 32 -30 9 -55 -20 -23 -52 -23 -79 0 -47 37 -52 83
-15 126 35 40 77 41 119 3z m1342 0 c24 -18 50 -60 50 -78 0 -32 -49 -79 -82
-79 -41 0 -88 48 -88 90 0 60 76 102 120 67z m-1235 -75 c22 -15 41 -35 43
-44 4 -20 -35 -61 -51 -55 -9 3 -11 -7 -8 -35 l3 -40 58 57 c42 41 63 56 75
51 13 -5 16 -14 11 -37 -3 -18 -6 -56 -6 -86 0 -39 -4 -53 -12 -50 -7 2 -13
16 -13 30 1 38 -47 58 -75 32 -17 -15 -24 -16 -45 -7 -21 10 -25 18 -25 56 0
34 -5 48 -19 56 -16 8 -22 5 -39 -21 -12 -20 -22 -27 -27 -20 -8 13 65 141 80
140 6 0 28 -12 50 -27z m1129 -60 c20 -35 36 -66 36 -68 0 -12 -39 -1 -92 26
l-60 31 30 -55 c22 -38 28 -56 19 -59 -15 -6 -91 128 -82 143 4 6 30 -2 65
-20 33 -17 62 -30 66 -30 3 0 -6 21 -20 46 -14 25 -23 51 -20 56 8 13 17 3 58
-70z m-902 -103 l23 -72 16 54 c17 57 48 86 35 33 -22 -88 -39 -134 -50 -134
-7 0 -21 27 -31 60 -10 34 -21 63 -25 65 -4 2 -12 -18 -19 -45 -8 -32 -18 -50
-28 -50 -10 0 -13 6 -9 16 3 8 14 44 23 80 9 35 23 64 30 64 6 0 22 -32 35
-71z m683 65 c21 -8 45 -56 45 -89 0 -65 -89 -98 -134 -50 l-23 25 -9 -32
c-11 -37 -43 -58 -90 -58 -31 0 -32 1 -43 63 -16 93 -16 95 24 103 53 10 84
-2 100 -39 l14 -32 1 34 c0 61 56 97 115 75z m-522 -45 c44 -12 62 -45 52 -95
-9 -48 -35 -66 -91 -62 l-49 3 2 50 c6 119 11 125 86 104z m197 -19 c0 -5 -23
-10 -51 -10 -47 0 -50 -2 -47 -22 2 -19 10 -24 46 -26 56 -4 54 -22 -3 -22
-41 0 -45 -2 -45 -25 0 -23 3 -25 50 -25 28 0 50 -4 50 -10 0 -6 -28 -10 -65
-10 l-65 0 0 80 0 80 65 0 c37 0 65 -4 65 -10z"/>
<path d="M1327 2390 c-4 -17 0 -20 29 -20 27 0 34 4 34 20 0 15 -7 20 -29 20
-20 0 -30 -6 -34 -20z"/>
<path d="M1322 2324 c3 -25 7 -29 33 -29 23 0 31 5 33 23 3 16 -2 22 -16 22
-11 0 -28 3 -37 6 -13 6 -16 1 -13 -22z"/>
<path d="M948 2369 c-12 -7 -18 -22 -18 -49 0 -51 36 -80 75 -62 32 15 35 72
5 102 -22 22 -37 24 -62 9z"/>
<path d="M1717 2299 c-4 -15 1 -22 19 -30 14 -5 32 -9 40 -9 24 0 16 36 -11
48 -35 16 -42 15 -48 -9z"/>
<path d="M778 2299 c-21 -12 -13 -39 11 -39 20 0 41 19 41 37 0 15 -28 17 -52
2z"/>
<path d="M807 2238 c-16 -12 -16 -16 -4 -33 14 -18 16 -18 41 -1 15 9 25 23
23 29 -5 17 -39 20 -60 5z"/>
<path d="M1861 2194 c-25 -32 -27 -57 -5 -78 46 -47 125 25 89 80 -21 32 -58
31 -84 -2z"/>
<path d="M1155 2159 c-242 -34 -478 -184 -615 -391 -91 -138 -150 -331 -150
-488 0 -77 26 -219 55 -303 92 -265 332 -483 615 -559 121 -32 319 -32 438 0
156 42 282 113 399 225 306 293 358 768 123 1125 -188 284 -528 438 -865 391z
m143 -151 c-3 -22 -43 -34 -54 -16 -11 18 6 38 31 38 21 0 26 -4 23 -22z m97
7 c41 -3 85 -16 85 -24 0 -3 -4 -12 -8 -19 -7 -10 -20 -10 -68 1 -32 8 -67 13
-76 11 -13 -2 -18 5 -18 23 0 23 3 24 28 18 15 -4 41 -8 57 -10z m-165 -15 c0
-21 -130 -46 -142 -27 -10 16 -1 26 35 36 52 15 107 10 107 -9z m-273 -81 c3
-12 11 -18 19 -15 8 3 21 9 29 12 8 3 15 2 15 -4 0 -6 -6 -13 -12 -16 -9 -3
-8 -8 5 -16 9 -6 15 -15 12 -20 -3 -5 4 -11 15 -15 14 -4 20 -15 20 -35 0 -28
-15 -49 -22 -31 -3 10 -22 14 -51 12 -10 0 -17 -5 -15 -10 2 -5 51 -59 110
-120 115 -119 106 -115 154 -72 10 9 13 22 9 35 -4 12 -9 33 -12 49 -3 15 -12
27 -19 27 -18 0 -18 14 1 30 11 9 25 6 71 -16 31 -15 58 -34 61 -43 4 -9 13
-24 22 -34 13 -16 13 -19 1 -27 -8 -5 -11 -12 -7 -16 9 -9 -22 -44 -39 -44
-15 0 -48 -69 -39 -79 4 -3 36 26 73 64 36 39 104 109 151 157 47 48 82 90 79
94 -9 9 -50 9 -70 0 -15 -7 -18 -3 -18 23 0 23 6 34 23 41 12 5 18 9 13 9 -6
1 -1 8 10 16 18 14 18 14 0 15 -15 0 -16 3 -6 15 9 11 17 12 30 5 25 -13 27
-13 33 10 4 15 14 20 36 20 30 0 41 -13 21 -25 -13 -8 -13 -42 1 -51 6 -3 25
8 43 25 18 17 37 31 44 31 20 0 13 -32 -12 -59 -31 -33 -37 -64 -14 -69 23 -4
65 41 73 79 4 16 11 32 17 35 13 8 63 -41 83 -81 33 -70 7 -181 -53 -225 -16
-12 -32 -34 -35 -49 -3 -15 -18 -40 -34 -55 -15 -15 -28 -33 -29 -39 0 -7 -2
-17 -2 -24 -3 -18 -92 -77 -93 -61 -1 7 -4 2 -8 -11 -5 -18 -20 -28 -61 -42
-69 -22 -84 -23 -77 -5 4 10 1 13 -8 10 -15 -6 -20 -18 -29 -75 l-6 -36 54 -7
c45 -5 63 -2 95 15 22 11 50 19 63 17 20 -3 17 -8 -33 -51 l-56 -48 85 -82
c96 -94 107 -110 93 -135 -9 -15 -24 -2 -110 88 -54 58 -95 108 -89 111 16 10
-74 18 -135 12 -31 -3 -57 -3 -57 1 0 4 12 18 28 31 20 18 23 24 11 25 -9 0
-22 -7 -30 -16 -21 -26 -61 -41 -111 -43 -49 -1 -52 2 -51 47 1 7 -10 11 -26
10 -34 -2 -51 8 -51 31 0 12 -7 18 -17 17 -9 0 -23 10 -30 24 -9 18 -13 20
-13 8 0 -22 -16 -23 -36 -3 -9 8 -24 15 -33 15 -10 0 -24 -7 -31 -15 -17 -20
-40 -19 -69 4 -21 16 -23 24 -18 58 6 36 3 43 -28 73 -19 19 -35 41 -35 50 0
9 -13 29 -29 44 -16 16 -32 38 -35 51 -3 12 -22 35 -42 50 -63 48 -91 148 -63
222 10 27 66 93 79 93 4 0 17 -23 29 -50 23 -51 52 -76 76 -66 18 7 8 39 -21
67 -25 24 -32 59 -12 59 7 0 26 -14 44 -31 18 -17 37 -28 43 -25 14 9 14 43 1
51 -20 12 -9 25 21 25 23 0 32 -5 36 -21z m162 -7 c-30 -5 -57 7 -40 17 7 5
24 3 37 -3 23 -10 23 -11 3 -14z m371 8 c0 -5 -17 -10 -37 -9 -31 0 -34 2 -18
9 28 12 55 12 55 0z m-310 -46 c0 -17 -26 -19 -36 -3 -7 12 15 31 28 23 4 -3
8 -12 8 -20z m240 5 c0 -12 -29 -24 -37 -16 -3 4 -3 13 0 21 6 16 37 11 37 -5z
m-635 -409 c0 -22 -29 -18 -33 3 -3 14 1 18 15 15 10 -2 18 -10 18 -18z m1021
9 c10 -17 -13 -36 -27 -22 -12 12 -4 33 11 33 5 0 12 -5 16 -11z m-108 -154
c-15 -14 -31 -31 -35 -39 -13 -21 -102 -56 -144 -56 -22 0 -39 2 -39 4 0 34
51 66 104 66 21 0 50 10 72 25 50 34 78 34 42 0z m-890 -32 c-4 -22 -22 -20
-26 1 -2 10 3 16 13 16 10 0 15 -7 13 -17z m978 6 c10 -17 -13 -36 -27 -22
-12 12 -4 33 11 33 5 0 12 -5 16 -11z m-849 -60 c21 -8 38 -7 65 2 30 9 40 9
52 0 8 -7 20 -10 26 -6 7 4 26 -6 43 -23 18 -16 42 -35 55 -41 28 -15 29 -41
1 -41 -12 0 -42 10 -67 23 l-45 22 -123 -129 c-86 -91 -127 -127 -138 -123 -9
4 -16 12 -16 18 0 7 47 60 105 119 58 58 105 109 105 113 0 4 -16 7 -36 7 -19
0 -33 4 -30 9 4 5 -10 19 -29 31 -19 12 -35 24 -35 26 0 8 39 4 67 -7z m-83
-107 c8 -13 -11 -35 -23 -28 -16 10 -14 36 3 36 8 0 17 -4 20 -8z m886 -6 c0
-21 -21 -31 -30 -15 -5 7 -6 17 -4 21 9 14 34 9 34 -6z m-235 -36 c3 -5 1 -10
-6 -10 -9 0 -10 -33 -5 -132 4 -73 9 -147 12 -164 5 -25 1 -32 -19 -41 -38
-18 -62 -6 -85 43 -22 44 -32 115 -13 84 6 -8 8 -17 5 -21 -8 -14 17 -21 31
-9 17 14 20 82 5 111 -6 11 -7 19 -1 19 5 0 8 11 7 24 -1 30 -7 27 -44 -29
-29 -43 -30 -44 -35 -19 -3 18 -1 24 9 20 23 -9 21 18 -3 38 l-24 19 38 18
c21 10 49 27 63 38 27 22 55 27 65 11z m-240 -96 c-11 -8 -20 -19 -20 -24 0
-4 -3 -12 -7 -16 -4 -4 -11 -29 -14 -56 -7 -50 -33 -69 -35 -25 -1 21 -1 21
-9 -3 -6 -17 -8 -19 -9 -7 -2 44 45 122 84 138 30 12 32 10 10 -7z m78 -71
c19 -82 27 -173 16 -173 -5 0 -9 21 -9 48 0 47 -20 150 -35 186 -6 13 -5 17 2
13 6 -4 18 -37 26 -74z m-21 -28 c8 -56 5 -65 -23 -65 -16 0 -19 7 -19 44 0
88 30 103 42 21z m-607 35 c8 -12 -16 -50 -32 -50 -19 0 -16 17 5 29 10 6 12
11 4 11 -7 0 -10 5 -7 10 8 13 22 13 30 0z m45 -21 c0 -6 -5 -20 -11 -32 l-12
-22 25 23 c33 30 47 28 18 -3 -27 -29 -30 -30 -54 -12 -15 11 -17 17 -7 35 12
23 41 30 41 11z m1070 -39 c0 -17 -7 -30 -16 -34 -9 -4 -18 -5 -19 -4 -8 10
-26 50 -23 52 14 12 44 23 50 20 5 -3 8 -18 8 -34z m-1006 4 c19 -7 20 -23 3
-45 -18 -24 -48 -1 -40 29 6 23 12 26 37 16z m146 -24 c0 -11 -7 -20 -15 -20
-8 0 -15 9 -15 20 0 11 7 20 15 20 8 0 15 -9 15 -20z m650 0 c0 -11 -7 -20
-15 -20 -8 0 -15 9 -15 20 0 11 7 20 15 20 8 0 15 -9 15 -20z m150 0 c12 -23
6 -40 -15 -40 -7 0 -15 -4 -17 -9 -1 -5 -13 -1 -26 9 l-23 19 23 20 c28 26 44
27 58 1z m-603 -42 c-3 -7 -5 -2 -5 12 0 14 2 19 5 13 2 -7 2 -19 0 -25z
m-342 -38 c13 -14 7 -16 -60 -15 -41 0 -75 2 -75 4 0 2 9 19 21 37 l21 34 39
-22 c22 -12 46 -29 54 -38z m1025 0 c25 -49 25 -53 -1 -39 -13 6 -47 9 -80 7
-32 -2 -56 0 -53 4 5 7 104 68 111 68 2 0 12 -18 23 -40z m-880 -55 c0 -25 -2
-25 -47 -9 -15 5 -13 9 12 20 17 7 31 13 33 14 1 0 2 -11 2 -25z m350 -17 c0
-26 -3 -28 -40 -28 -38 0 -40 2 -40 29 0 28 2 30 40 28 37 -1 40 -4 40 -29z
m305 18 c33 -14 35 -12 -33 -31 -13 -4 -22 2 -30 20 -11 23 -9 25 11 25 12 -1
36 -7 52 -14z m-603 -57 c29 -6 60 -14 68 -17 8 -3 23 -4 33 -3 12 2 17 -5 17
-23 0 -29 -10 -38 -29 -26 -9 5 -10 13 -5 21 6 10 1 10 -16 -2 -23 -15 -30
-14 -83 0 -32 9 -58 20 -58 24 1 4 1 14 1 22 0 18 3 18 72 4z m563 -10 c-4 -5
-1 -9 4 -9 6 0 11 -6 11 -14 0 -19 -106 -37 -237 -41 l-103 -4 0 25 c0 28 29
34 31 7 1 -17 2 -17 6 0 3 13 14 17 41 17 44 -1 131 9 169 19 40 11 84 11 78
0z m-355 -29 c-15 -9 -15 -21 1 -31 8 -5 -4 -8 -29 -7 -37 0 -42 3 -42 23 0
29 4 32 46 27 21 -3 31 -8 24 -12z m68 -77 c2 -8 -5 -13 -17 -13 -12 0 -21 6
-21 16 0 18 31 15 38 -3z"/>
<path d="M904 1735 c-10 -26 31 -61 96 -80 22 -6 21 -3 -15 35 -52 54 -73 66
-81 45z"/>
<path d="M1591 1705 c-28 -27 -49 -50 -47 -52 2 -3 25 4 49 15 48 21 76 57 59
74 -7 7 -27 -5 -61 -37z"/>
<path d="M1012 1620 c-11 -18 -8 -22 38 -42 39 -18 53 -31 65 -61 8 -20 15
-45 16 -55 0 -9 6 -1 14 18 l13 35 -61 63 c-34 34 -64 62 -67 62 -3 0 -11 -9
-18 -20z"/>
<path d="M1517 1633 c-12 -12 -7 -22 8 -17 8 4 15 10 15 15 0 11 -14 12 -23 2z"/>
<path d="M1350 1465 c-26 -27 -31 -38 -22 -47 7 -7 12 -8 12 -4 0 5 7 3 15 -4
16 -13 24 0 39 63 9 36 -3 34 -44 -8z"/>
<path d="M1705 1429 c-4 -6 -5 -12 -2 -15 2 -3 7 2 10 11 7 17 1 20 -8 4z"/>
<path d="M1434 1408 l-19 -23 23 19 c21 18 27 26 19 26 -2 0 -12 -10 -23 -22z"/>
<path d="M940 1396 c0 -2 8 -10 18 -17 15 -13 16 -12 3 4 -13 16 -21 21 -21
13z"/>
<path d="M1230 1368 c0 -15 6 -25 14 -25 12 0 13 5 4 21 -16 31 -18 32 -18 4z"/>
<path d="M1280 1383 c0 -4 5 -15 10 -23 8 -13 10 -13 10 2 0 9 -4 20 -10 23
-5 3 -10 3 -10 -2z"/>
<path d="M1506 1353 c-6 -14 -5 -15 5 -6 7 7 10 15 7 18 -3 3 -9 -2 -12 -12z"/>
<path d="M1091 1344 c0 -11 3 -14 6 -6 3 7 2 16 -1 19 -3 4 -6 -2 -5 -13z"/>
<path d="M1304 1337 c-3 -10 -3 -21 0 -24 3 -4 6 2 6 12 0 14 3 15 14 6 15
-12 52 -11 73 2 7 4 28 8 48 9 19 1 33 3 30 6 -9 9 -71 5 -92 -6 -28 -15 -33
-15 -33 2 0 21 -39 15 -46 -7z"/>
<path d="M930 1331 c0 -6 5 -13 10 -16 6 -3 10 1 10 9 0 9 -4 16 -10 16 -5 0
-10 -4 -10 -9z"/>
<path d="M1137 1328 c7 -8 11 -17 8 -20 -3 -2 2 -5 10 -5 21 0 19 10 -7 26
-20 13 -22 12 -11 -1z"/>
<path d="M998 1323 c7 -3 16 -2 19 1 4 3 -2 6 -13 5 -11 0 -14 -3 -6 -6z"/>
<path d="M1188 1291 c9 -5 11 -18 7 -37 -6 -28 -5 -27 10 5 8 18 15 34 15 35
0 1 -10 3 -22 3 -15 2 -18 -1 -10 -6z"/>
<path d="M1370 1273 c0 -5 5 -15 10 -23 8 -12 10 -11 10 8 0 12 -4 22 -10 22
-5 0 -10 -3 -10 -7z"/>
<path d="M1345 1190 c-3 -5 1 -10 9 -10 8 0 18 5 21 10 3 6 -1 10 -9 10 -8 0
-18 -4 -21 -10z"/>
<path d="M1418 823 c-21 -5 -21 -5 -6 -38 16 -36 28 -31 25 10 -1 19 -2 34 -2
34 0 -1 -8 -3 -17 -6z"/>
<path d="M1790 883 c0 -5 5 -15 10 -23 8 -12 10 -11 10 8 0 12 -4 22 -10 22
-5 0 -10 -3 -10 -7z"/>
<path d="M807 853 c-4 -3 -7 -11 -7 -17 0 -6 5 -5 12 2 6 6 9 14 7 17 -3 3 -9
2 -12 -2z"/>
<path d="M960 642 c0 -5 7 -9 15 -9 8 0 15 4 15 9 0 4 -7 8 -15 8 -8 0 -15 -4
-15 -8z"/>
<path d="M1121 614 c0 -11 3 -14 6 -6 3 7 2 16 -1 19 -3 4 -6 -2 -5 -13z"/>
<path d="M1311 604 c0 -11 3 -14 6 -6 3 7 2 16 -1 19 -3 4 -6 -2 -5 -13z"/>
<path d="M445 2050 c-19 -20 -18 -22 23 -62 40 -41 42 -42 62 -23 27 24 25 51
-5 80 -29 30 -56 32 -80 5z"/>
<path d="M301 1856 c-7 -8 -11 -27 -9 -43 7 -58 100 -72 114 -16 13 49 -74 97
-105 59z"/>
<path d="M220 1679 c-15 -26 -6 -49 19 -49 20 0 31 18 31 51 0 26 -36 25 -50
-2z"/>
<path d="M166 1498 c-7 -36 -8 -33 22 -42 20 -7 22 -4 22 33 0 33 -3 41 -19
41 -13 0 -20 -10 -25 -32z"/>
<path d="M160 1340 c-24 -24 -25 -39 -6 -65 29 -40 116 -16 116 32 0 22 -38
53 -65 53 -14 0 -34 -9 -45 -20z"/>
<path d="M2340 1297 c0 -24 2 -25 30 -14 31 12 29 20 -7 32 -20 5 -23 3 -23
-18z"/>
<path d="M2360 1126 c0 -61 34 -59 46 2 6 30 4 32 -20 32 -23 0 -26 -4 -26
-34z"/>
<path d="M327 846 c-15 -12 -16 -18 -6 -39 14 -32 34 -40 49 -22 9 10 7 21 -5
44 -8 17 -17 31 -18 31 -1 0 -10 -7 -20 -14z"/>
<path d="M2022 577 c-22 -23 -22 -24 -3 -41 18 -16 20 -16 41 13 34 49 3 72
-38 28z"/>
<path d="M396 649 c-33 -26 -34 -63 -2 -84 56 -37 127 42 80 89 -21 22 -46 20
-78 -5z"/>
<path d="M1914 475 c-28 -28 -22 -58 19 -89 24 -18 27 -18 51 -2 29 19 34 51
11 83 -23 32 -54 35 -81 8z"/>
<path d="M699 414 c-11 -14 -10 -19 10 -36 14 -10 31 -17 40 -16 27 5 23 33
-8 51 -26 15 -30 15 -42 1z"/>
<path d="M836 311 c-17 -19 -17 -20 3 -31 19 -10 21 -8 21 20 0 35 -1 36 -24
11z"/>
<path d="M1589 299 c-21 -21 -20 -59 3 -86 13 -16 60 -17 76 -1 19 19 14 66
-8 88 -26 26 -45 25 -71 -1z"/>
<path d="M1447 273 c-16 -4 -18 -11 -12 -56 4 -29 9 -55 11 -59 5 -8 45 1 62
15 19 15 14 65 -8 87 -21 21 -22 21 -53 13z"/>
<path d="M1086 220 c-8 -59 -3 -70 29 -70 28 0 55 34 55 70 0 33 -17 50 -51
50 -24 0 -27 -4 -33 -50z"/>
</g>
</svg>
