<svg width="205" height="205" viewBox="0 0 205 205" fill="none" xmlns="http://www.w3.org/2000/svg">
<path opacity="0.5" d="M51.004 168.649C83.8286 184.291 137.047 184.291 169.871 168.649C202.696 153.008 202.692 127.649 169.871 111.996C137.051 96.3418 83.8286 96.35 51.004 111.996C18.1794 127.641 18.1835 153.004 51.004 168.649Z" fill="#EBEBEB"/>
<path d="M157.374 139.38C169.901 139.38 180.056 134.539 180.056 128.568C180.056 122.597 169.901 117.756 157.374 117.756C144.848 117.756 134.693 122.597 134.693 128.568C134.693 134.539 144.848 139.38 157.374 139.38Z" fill="#E0E0E0"/>
<path d="M123.074 171.605C117.014 174.496 107.19 174.496 101.131 171.605C95.0707 168.715 95.0707 164.037 101.131 161.146C107.19 158.256 117.014 158.276 123.074 161.146C129.134 164.016 129.15 168.719 123.074 171.605Z" fill="#E0E0E0"/>
<path d="M41.574 134.722L44.9073 132.799C44.9073 132.799 46.6662 124.956 44.0463 114.993C41.4264 105.03 33.8701 97.58 29.93 99.1421C25.9899 100.704 26.0924 103.652 28.2654 106.641C30.0694 109.101 35.9201 115.087 38.7327 121.983C40.4083 126.033 41.3696 130.343 41.574 134.722Z" fill="#407BFF"/>
<path opacity="0.1" d="M41.574 134.722L44.9073 132.799C44.9073 132.799 46.6662 124.956 44.0463 114.993C41.4264 105.03 33.8701 97.58 29.93 99.1421C25.9899 100.704 26.0924 103.652 28.2654 106.641C30.0694 109.101 35.9201 115.087 38.7327 121.983C40.4083 126.033 41.3696 130.343 41.574 134.722Z" fill="black"/>
<path d="M43.3493 133.902H43.3206C43.2676 133.894 43.2198 133.865 43.1877 133.822C43.1555 133.779 43.1414 133.725 43.1484 133.672C45.4239 117.272 35.26 104.013 30.6352 101.245C30.6084 101.234 30.5844 101.217 30.5648 101.195C30.5452 101.173 30.5304 101.148 30.5214 101.12C30.5125 101.092 30.5096 101.063 30.5129 101.034C30.5163 101.005 30.5258 100.977 30.5408 100.952C30.5558 100.927 30.576 100.905 30.6001 100.889C30.6241 100.872 30.6514 100.861 30.6801 100.855C30.7089 100.85 30.7384 100.851 30.7667 100.858C30.795 100.866 30.8215 100.879 30.8443 100.897C35.5388 103.701 45.8585 117.137 43.5543 133.73C43.5457 133.778 43.5205 133.821 43.483 133.853C43.4455 133.884 43.3983 133.902 43.3493 133.902Z" fill="white"/>
<path d="M41.5741 134.722L36.5803 137.592C35.5373 137.071 34.4074 136.746 33.247 136.633C31.1232 136.366 29.7087 134.316 29.9178 132.787C30.0572 131.754 30.3893 130.577 30.2294 129.531C30.09 128.597 29.1839 127.756 28.3393 127.428C27.6204 127.203 26.87 127.097 26.1171 127.112C24.9158 127.055 23.6571 126.92 22.6444 126.292C21.6317 125.665 20.8855 124.41 21.2135 123.25C21.434 122.65 21.7921 122.109 22.259 121.672C22.724 121.233 23.1011 120.71 23.3701 120.13C23.8129 118.974 23.0298 118.236 22.0991 117.699C18.8191 115.813 17.3431 114.324 18.5239 112.898C19.7047 111.471 22.9478 110.848 26.2729 112.594C29.598 114.341 32.3573 112.467 34.5508 112.836C37.9866 113.41 38.1875 115.837 37.7611 117.945C37.3347 120.052 41.5864 120.95 42.6401 123.48C43.4314 125.317 44.0792 131.352 41.5741 134.722Z" fill="#407BFF"/>
<path d="M39.9095 135.886C39.8565 135.886 39.8055 135.866 39.7673 135.829C39.7291 135.793 39.7066 135.742 39.7045 135.69C39.2945 123.984 24.2926 113.775 20.7543 113.189C20.7276 113.185 20.702 113.176 20.6789 113.162C20.6558 113.148 20.6357 113.129 20.6197 113.108C20.6037 113.086 20.5921 113.061 20.5857 113.035C20.5792 113.009 20.578 112.982 20.5821 112.955C20.5921 112.902 20.6225 112.854 20.6669 112.823C20.7113 112.791 20.7662 112.779 20.8199 112.787C24.5468 113.402 39.7004 123.533 40.1145 135.673C40.1156 135.7 40.1113 135.727 40.102 135.752C40.0927 135.778 40.0785 135.801 40.0603 135.821C40.042 135.84 40.02 135.856 39.9955 135.868C39.9711 135.879 39.9446 135.885 39.9177 135.886H39.9095Z" fill="white"/>
<path d="M104.247 157.03C104.083 154.98 102.5 151.479 100.147 148.986C97.7933 146.493 94.0541 145.296 91.7417 146.296C89.5892 147.231 90.0648 150.117 92.9061 151.827C95.7474 153.537 99.9786 155.628 101.43 158.863L104.234 162.745L104.247 157.03Z" fill="#407BFF"/>
<path opacity="0.1" d="M104.247 157.03C104.083 154.98 102.5 151.479 100.147 148.986C97.7933 146.493 94.0541 145.296 91.7417 146.296C89.5892 147.231 90.0648 150.117 92.9061 151.827C95.7474 153.537 99.9786 155.628 101.43 158.863L104.234 162.745L104.247 157.03Z" fill="black"/>
<path d="M104.247 160.786H104.288C104.324 160.781 104.359 160.768 104.391 160.75C104.422 160.731 104.45 160.707 104.472 160.677C104.494 160.648 104.51 160.614 104.519 160.579C104.529 160.543 104.531 160.506 104.525 160.47C103.505 152.873 95.7842 147.588 92.7133 147.006C92.6772 146.998 92.6401 146.998 92.604 147.006C92.568 147.013 92.5337 147.027 92.5032 147.048C92.4727 147.069 92.4466 147.095 92.4264 147.126C92.4061 147.156 92.3922 147.191 92.3853 147.227C92.3782 147.263 92.3782 147.3 92.3855 147.336C92.3928 147.372 92.4071 147.407 92.4277 147.437C92.4483 147.468 92.4747 147.494 92.5054 147.514C92.5361 147.534 92.5706 147.548 92.6067 147.555C95.4767 148.1 102.996 153.328 103.968 160.544C103.978 160.611 104.011 160.672 104.062 160.716C104.113 160.761 104.179 160.785 104.247 160.786Z" fill="white"/>
<path d="M103.943 165.517C103.533 164.389 101.959 162.598 99.5522 161.212C96.8913 159.674 93.64 159.129 92.7954 157.838C91.7827 156.28 93.0291 154.636 95.6408 154.746C98.2525 154.857 103.095 158.026 104.251 163.287L103.943 165.517Z" fill="#407BFF"/>
<path d="M104.14 164.41H104.193C104.23 164.403 104.265 164.389 104.296 164.369C104.327 164.348 104.353 164.322 104.374 164.291C104.395 164.26 104.409 164.225 104.416 164.188C104.423 164.152 104.422 164.114 104.415 164.078C103.64 160.183 97.9941 156.148 94.3451 155.98C94.2716 155.98 94.2005 156.007 94.1459 156.056C94.0913 156.106 94.0571 156.174 94.0499 156.247C94.0477 156.322 94.0747 156.394 94.1252 156.449C94.1758 156.505 94.2459 156.538 94.3205 156.542C97.7071 156.698 103.148 160.581 103.865 164.189C103.879 164.251 103.913 164.308 103.963 164.348C104.013 164.389 104.076 164.41 104.14 164.41Z" fill="white"/>
<path d="M37.9906 137.76C37.754 137.601 37.5699 137.376 37.4619 137.112C37.3538 136.849 37.3266 136.559 37.3838 136.28L51.9224 71.9346C52.0974 71.3124 52.4922 70.7748 53.0335 70.4217L139.544 20.4837C139.808 20.3438 140.102 20.2683 140.401 20.2633C140.7 20.2583 140.996 20.324 141.266 20.455C141.498 20.6146 141.679 20.8394 141.785 21.1013C141.891 21.3631 141.917 21.6503 141.86 21.9269L127.317 86.2723C127.142 86.8955 126.746 87.4333 126.202 87.7852L39.7126 137.723C39.4487 137.864 39.1553 137.941 38.856 137.948C38.5568 137.954 38.2603 137.89 37.9906 137.76Z" fill="#F0F0F0"/>
<path d="M53.587 72.8857L39.0484 137.256C38.9254 137.805 39.2206 138.027 39.7126 137.744L126.223 87.8056C126.766 87.4538 127.162 86.9159 127.338 86.2927L141.86 21.9268C141.983 21.3733 141.688 21.156 141.196 21.4389L54.6858 71.3769C54.1501 71.7315 53.7601 72.2671 53.587 72.8857Z" fill="#E6E6E6"/>
<path d="M142.914 21.4062C142.644 21.2758 142.348 21.2108 142.049 21.2165C141.75 21.2222 141.456 21.2984 141.192 21.439L54.6817 71.377C54.4307 71.5394 54.229 71.7674 54.0982 72.0362C53.9674 72.305 53.9125 72.6044 53.9396 72.9022L65.3253 152.602C65.3808 152.904 65.4961 153.192 65.6644 153.449C65.8327 153.706 66.0505 153.927 66.3052 154.099C66.5736 154.23 66.8694 154.295 67.1681 154.29C67.4668 154.284 67.7599 154.207 68.0231 154.066L154.517 104.14C154.768 103.977 154.971 103.749 155.101 103.479C155.232 103.209 155.287 102.909 155.259 102.611L143.91 22.9027C143.853 22.5992 143.735 22.3103 143.564 22.0532C143.393 21.7962 143.172 21.5761 142.914 21.4062Z" fill="#F0F0F0"/>
<path d="M55.6206 73.8656L66.9899 153.566C66.9922 153.684 67.0273 153.8 67.0914 153.9C67.1555 154.001 67.246 154.081 67.353 154.133C67.46 154.185 67.5793 154.206 67.6975 154.194C67.8158 154.182 67.9285 154.138 68.0231 154.066L154.517 104.14C154.768 103.977 154.971 103.749 155.101 103.479C155.232 103.209 155.287 102.909 155.259 102.611L143.91 22.9026C143.909 22.7835 143.874 22.667 143.81 22.5663C143.746 22.4656 143.656 22.3846 143.549 22.3323C143.442 22.28 143.322 22.2585 143.203 22.2702C143.085 22.2818 142.972 22.3262 142.877 22.3983L56.3668 72.3363C56.1145 72.4986 55.9114 72.727 55.7799 72.9966C55.6483 73.2663 55.5932 73.5669 55.6206 73.8656Z" fill="#FAFAFA"/>
<path d="M39.1263 136.895L61.2663 124.107L61.91 128.74L51.7584 134.603C51.7584 134.603 49.0524 135.562 47.9782 135.833C46.904 136.104 39.1263 136.895 39.1263 136.895Z" fill="#E0E0E0"/>
<path d="M61.9224 128.744L65.2434 152.032L51.7708 134.607L61.9224 128.744Z" fill="#E6E6E6"/>
<path d="M64.8456 152.807L52.7711 137.125C52.5707 136.891 52.3173 136.708 52.032 136.592C51.7468 136.476 51.4379 136.429 51.1311 136.456L39.8397 138.096C39.2038 138.164 38.5618 138.048 37.9906 137.76C37.5314 137.498 37.6093 137.194 38.1628 137.088L51.1393 134.591C51.4436 134.545 51.7545 134.579 52.0418 134.689C52.3292 134.799 52.5833 134.981 52.7793 135.218L66.5266 153.75C66.8628 154.205 66.7644 154.357 66.3052 154.09C65.7517 153.745 65.2586 153.312 64.8456 152.807Z" fill="#E0E0E0"/>
<path d="M141.881 21.6112C141.879 21.3802 141.821 21.1531 141.711 20.95C141.6 20.7469 141.442 20.5741 141.249 20.4468C140.979 20.3177 140.683 20.2534 140.384 20.2591C140.085 20.2648 139.792 20.3403 139.527 20.4796L53.0171 70.4176C52.7533 70.5829 52.5237 70.7972 52.3406 71.049C52.1374 71.3109 51.9883 71.6105 51.9019 71.9305L49.8519 81.0202L51.5165 81.9755L139.81 31.0125L141.86 21.9269C141.88 21.8229 141.888 21.717 141.885 21.6112H141.881Z" fill="#407BFF"/>
<path opacity="0.2" d="M141.86 21.9268C141.983 21.3733 141.688 21.156 141.196 21.4389L54.6859 71.3769C54.1456 71.7293 53.751 72.2652 53.5748 72.8857L51.5248 81.9754L139.81 31.0124L141.86 21.9268Z" fill="black"/>
<path opacity="0.1" d="M54.0216 72.0083C53.8181 72.2678 53.6701 72.5665 53.587 72.8857L51.537 81.9754L49.8724 81.016L51.9224 71.9263C52.0088 71.6063 52.1579 71.3067 52.3611 71.0448L54.0216 72.0083Z" fill="black"/>
<path opacity="0.4" d="M141.88 21.607C141.839 21.2995 141.573 21.197 141.192 21.4389L54.6817 71.3729C54.416 71.5374 54.186 71.7535 54.0052 72.0084L52.3406 71.0448C52.5237 70.7931 52.7533 70.5788 53.0171 70.4135L139.527 20.4754C139.792 20.3362 140.085 20.2607 140.384 20.255C140.683 20.2493 140.979 20.3136 141.249 20.4426C141.442 20.5699 141.6 20.7428 141.71 20.9459C141.821 21.1489 141.879 21.376 141.88 21.607Z" fill="white"/>
<path d="M143.996 23.6653L143.91 22.9027C143.904 22.8654 143.896 22.8284 143.885 22.792C143.887 22.7811 143.887 22.77 143.885 22.7592C143.746 22.2074 143.409 21.726 142.938 21.4062C142.669 21.2758 142.373 21.2108 142.073 21.2165C141.774 21.2222 141.481 21.2984 141.216 21.439L54.7063 71.377C54.4444 71.5392 54.2373 71.7763 54.1118 72.0576C53.9837 72.3195 53.9325 72.6123 53.9642 72.9022L55.6042 84.3207L57.2688 85.2842L145.521 34.3253L143.996 23.6653Z" fill="#407BFF"/>
<path opacity="0.1" d="M57.2524 85.2801L55.5878 84.3166L53.9478 72.8981C53.9162 72.6082 53.9674 72.3154 54.0954 72.0535L55.7641 73.0129C55.6331 73.2739 55.5804 73.5672 55.6124 73.8575L57.2524 85.2801Z" fill="black"/>
<path opacity="0.4" d="M143.861 22.7592C143.837 22.6559 143.788 22.5601 143.718 22.4808C143.648 22.4014 143.559 22.341 143.459 22.3051C143.36 22.2692 143.253 22.2589 143.148 22.2752C143.043 22.2915 142.944 22.3338 142.86 22.3984L56.3504 72.3364C56.0875 72.4974 55.8801 72.7348 55.7559 73.017L54.12 72.0576C54.2465 71.7758 54.4533 71.5377 54.7145 71.3729L141.225 21.439C141.489 21.2984 141.782 21.2222 142.082 21.2165C142.381 21.2108 142.677 21.2758 142.946 21.4062C143.406 21.7307 143.731 22.2118 143.861 22.7592Z" fill="white"/>
<path d="M80.2166 140.359L79.1834 133.098C79.1819 133.004 79.1545 132.911 79.1041 132.831C79.0538 132.751 78.9824 132.687 78.8979 132.644C78.8133 132.602 78.7187 132.584 78.6245 132.592C78.5302 132.599 78.4399 132.633 78.3634 132.688L70.8235 137.043C70.6203 137.173 70.4572 137.356 70.3522 137.573C70.2473 137.791 70.2046 138.033 70.229 138.273L71.2581 145.55C71.2581 145.645 71.2846 145.739 71.3346 145.82C71.3846 145.9 71.4562 145.966 71.5414 146.008C71.6265 146.051 71.7218 146.069 71.8166 146.06C71.9114 146.052 72.0019 146.017 72.0781 145.96L79.618 141.606C79.8249 141.475 79.9909 141.289 80.0968 141.069C80.2027 140.848 80.2442 140.602 80.2166 140.359Z" fill="#407BFF"/>
<path d="M91.8769 133.635L90.8396 126.378C90.8396 126.283 90.8131 126.19 90.7631 126.109C90.713 126.028 90.6415 125.963 90.5563 125.92C90.4712 125.878 90.3759 125.859 90.2811 125.868C90.1863 125.877 90.0958 125.911 90.0196 125.968L82.4797 130.319C82.2769 130.449 82.114 130.633 82.0091 130.85C81.9042 131.067 81.8613 131.309 81.8852 131.549L82.9225 138.81C82.9225 138.905 82.949 138.998 82.9991 139.079C83.0491 139.16 83.1207 139.225 83.2058 139.268C83.291 139.311 83.3863 139.329 83.4811 139.32C83.5758 139.312 83.6664 139.277 83.7425 139.22L91.2824 134.865C91.4859 134.736 91.6493 134.552 91.7543 134.335C91.8593 134.118 91.9018 133.875 91.8769 133.635Z" fill="#EBEBEB"/>
<path d="M103.537 126.911L102.5 119.654C102.5 119.559 102.474 119.466 102.424 119.385C102.374 119.304 102.302 119.239 102.217 119.196C102.132 119.154 102.036 119.135 101.942 119.144C101.847 119.153 101.756 119.187 101.68 119.244L94.1361 123.603C93.9333 123.733 93.7704 123.917 93.6655 124.134C93.5606 124.351 93.5177 124.593 93.5416 124.833L94.5789 132.094C94.5789 132.189 94.6054 132.282 94.6554 132.363C94.7055 132.444 94.7771 132.51 94.8622 132.552C94.9473 132.595 95.0426 132.613 95.1374 132.604C95.2322 132.596 95.3228 132.561 95.3989 132.504L102.939 128.15C103.144 128.02 103.309 127.835 103.415 127.616C103.521 127.397 103.563 127.153 103.537 126.911Z" fill="#EBEBEB"/>
<path d="M115.21 120.192L114.173 112.93C114.173 112.835 114.146 112.742 114.096 112.661C114.046 112.58 113.975 112.515 113.889 112.472C113.804 112.43 113.709 112.411 113.614 112.42C113.519 112.429 113.429 112.463 113.353 112.52L105.78 116.883C105.577 117.013 105.413 117.196 105.308 117.413C105.203 117.631 105.161 117.873 105.185 118.113L106.223 125.37C106.223 125.465 106.249 125.558 106.299 125.639C106.349 125.72 106.421 125.786 106.506 125.828C106.591 125.871 106.687 125.889 106.781 125.88C106.876 125.872 106.967 125.837 107.043 125.78L114.583 121.43C114.793 121.303 114.963 121.12 115.074 120.901C115.185 120.682 115.232 120.436 115.21 120.192Z" fill="#EBEBEB"/>
<path d="M126.858 113.467L125.821 106.19C125.821 106.095 125.794 106.002 125.744 105.921C125.694 105.84 125.623 105.774 125.538 105.732C125.452 105.689 125.357 105.671 125.262 105.68C125.167 105.688 125.077 105.723 125.001 105.78L117.461 110.134C117.257 110.264 117.094 110.448 116.989 110.665C116.884 110.882 116.842 111.124 116.866 111.364L117.904 118.621C117.904 118.716 117.93 118.81 117.98 118.891C118.03 118.972 118.102 119.037 118.187 119.08C118.272 119.122 118.367 119.14 118.462 119.132C118.557 119.123 118.648 119.088 118.724 119.031L126.28 114.689C126.478 114.558 126.637 114.374 126.739 114.159C126.841 113.944 126.882 113.704 126.858 113.467Z" fill="#EBEBEB"/>
<path d="M138.519 106.744L137.481 99.4825C137.481 99.3873 137.455 99.294 137.405 99.213C137.355 99.1321 137.283 99.0666 137.198 99.0241C137.113 98.9815 137.017 98.9635 136.923 98.972C136.828 98.9806 136.737 99.0154 136.661 99.0725L129.121 103.427C128.918 103.556 128.754 103.74 128.649 103.957C128.544 104.174 128.502 104.417 128.527 104.657L129.56 111.93C129.56 112.025 129.587 112.119 129.637 112.2C129.687 112.28 129.758 112.346 129.843 112.388C129.928 112.431 130.024 112.449 130.119 112.44C130.213 112.432 130.304 112.397 130.38 112.34L137.92 107.986C138.126 107.855 138.291 107.67 138.397 107.45C138.503 107.231 138.545 106.986 138.519 106.744Z" fill="#EBEBEB"/>
<path d="M150.179 100.04L149.142 92.779C149.142 92.6838 149.115 92.5905 149.065 92.5095C149.015 92.4286 148.943 92.3632 148.858 92.3206C148.773 92.278 148.678 92.26 148.583 92.2686C148.488 92.2771 148.398 92.3119 148.322 92.369L140.782 96.7232C140.579 96.8532 140.415 97.0369 140.31 97.2541C140.206 97.4712 140.163 97.7132 140.187 97.9532L141.22 105.214C141.222 105.309 141.249 105.401 141.3 105.481C141.35 105.561 141.421 105.626 141.506 105.668C141.59 105.711 141.685 105.729 141.779 105.721C141.874 105.713 141.964 105.68 142.04 105.624L149.58 101.27C149.784 101.141 149.948 100.957 150.054 100.74C150.16 100.523 150.203 100.28 150.179 100.04Z" fill="#EBEBEB"/>
<path d="M78.1911 126.153L77.1538 118.9C77.1523 118.805 77.1249 118.713 77.0746 118.633C77.0243 118.553 76.9529 118.488 76.8683 118.446C76.7837 118.404 76.6892 118.385 76.5949 118.393C76.5007 118.401 76.4104 118.434 76.3338 118.49L68.7939 122.844C68.5908 122.974 68.4276 123.158 68.3227 123.375C68.2177 123.592 68.1751 123.834 68.1994 124.074L69.2326 131.335C69.2341 131.43 69.2615 131.522 69.3118 131.602C69.3622 131.682 69.4335 131.747 69.5181 131.789C69.6027 131.832 69.6973 131.85 69.7915 131.842C69.8858 131.834 69.9761 131.801 70.0526 131.745L77.5925 127.391C77.7964 127.26 77.9602 127.075 78.0658 126.856C78.1714 126.638 78.2148 126.394 78.1911 126.153Z" fill="#407BFF"/>
<path d="M89.8515 119.429L88.8142 112.168C88.8127 112.073 88.7853 111.981 88.735 111.901C88.6846 111.821 88.6133 111.756 88.5287 111.714C88.4441 111.672 88.3496 111.653 88.2553 111.661C88.1611 111.669 88.0708 111.702 87.9942 111.758L80.4543 116.112C80.2512 116.242 80.088 116.426 79.9831 116.643C79.8781 116.86 79.8355 117.102 79.8598 117.342L80.893 124.603C80.8945 124.698 80.9219 124.79 80.9723 124.87C81.0226 124.95 81.0939 125.015 81.1785 125.057C81.2631 125.099 81.3577 125.118 81.4519 125.11C81.5462 125.102 81.6365 125.069 81.713 125.013L89.2529 120.659C89.4555 120.528 89.6184 120.344 89.724 120.128C89.8295 119.911 89.8736 119.669 89.8515 119.429Z" fill="#EBEBEB"/>
<path d="M101.512 112.705L100.475 105.444C100.473 105.349 100.446 105.257 100.395 105.177C100.345 105.097 100.274 105.032 100.189 104.99C100.105 104.948 100.01 104.929 99.9157 104.937C99.8215 104.945 99.7312 104.978 99.6546 105.034L92.1147 109.388C91.9116 109.518 91.7484 109.702 91.6435 109.919C91.5385 110.136 91.4959 110.378 91.5202 110.618L92.5534 117.879C92.5549 117.974 92.5823 118.066 92.6327 118.146C92.683 118.226 92.7543 118.291 92.8389 118.333C92.9235 118.375 93.0181 118.394 93.1123 118.386C93.2066 118.378 93.2969 118.345 93.3734 118.289L100.913 113.935C101.116 113.804 101.279 113.62 101.384 113.404C101.49 113.187 101.534 112.945 101.512 112.705Z" fill="#EBEBEB"/>
<path d="M113.16 105.981L112.123 98.7198C112.121 98.6253 112.094 98.5329 112.043 98.4529C111.993 98.3728 111.922 98.3081 111.837 98.2658C111.753 98.2236 111.658 98.2053 111.564 98.213C111.47 98.2208 111.379 98.2543 111.303 98.3098L103.771 102.672C103.568 102.803 103.405 102.986 103.3 103.203C103.195 103.421 103.153 103.662 103.176 103.902L104.21 111.163C104.211 111.258 104.239 111.35 104.289 111.43C104.339 111.51 104.411 111.575 104.495 111.617C104.58 111.66 104.674 111.678 104.769 111.67C104.863 111.662 104.953 111.629 105.03 111.573L112.57 107.219C112.772 107.087 112.935 106.901 113.039 106.683C113.143 106.465 113.185 106.222 113.16 105.981Z" fill="#EBEBEB"/>
<path d="M124.833 99.2569L123.795 91.9999C123.795 91.9047 123.769 91.8115 123.719 91.7305C123.669 91.6495 123.597 91.5841 123.512 91.5415C123.427 91.499 123.332 91.481 123.237 91.4895C123.142 91.498 123.052 91.5328 122.975 91.5899L115.431 95.94C115.229 96.0703 115.066 96.2542 114.961 96.4712C114.856 96.6883 114.813 96.9301 114.837 97.17L115.87 104.431C115.872 104.526 115.899 104.618 115.949 104.698C116 104.778 116.071 104.843 116.156 104.885C116.24 104.927 116.335 104.946 116.429 104.938C116.523 104.93 116.614 104.897 116.69 104.841L124.23 100.479C124.432 100.349 124.595 100.167 124.702 99.9519C124.808 99.7365 124.853 99.4962 124.833 99.2569Z" fill="#EBEBEB"/>
<path d="M136.493 92.533L135.456 85.2801C135.456 85.1849 135.429 85.0916 135.379 85.0106C135.329 84.9297 135.258 84.8643 135.173 84.8217C135.087 84.7791 134.992 84.7611 134.897 84.7696C134.803 84.7782 134.712 84.813 134.636 84.8701L127.1 89.2284C126.897 89.358 126.733 89.5417 126.628 89.759C126.523 89.9762 126.481 90.2184 126.506 90.4584L127.539 97.7154C127.54 97.8099 127.568 97.9023 127.618 97.9823C127.668 98.0624 127.74 98.1271 127.824 98.1694C127.909 98.2117 128.003 98.2299 128.098 98.2222C128.192 98.2144 128.282 98.1809 128.359 98.1254L135.899 93.7712C136.102 93.6395 136.265 93.4543 136.37 93.2358C136.475 93.0173 136.518 92.7741 136.493 92.533Z" fill="#EBEBEB"/>
<path d="M148.154 85.813L147.116 78.5519C147.116 78.4568 147.09 78.3635 147.04 78.2825C146.99 78.2015 146.918 78.1361 146.833 78.0935C146.748 78.051 146.652 78.033 146.558 78.0415C146.463 78.05 146.372 78.0848 146.296 78.1419L138.752 82.4961C138.55 82.6266 138.388 82.8106 138.283 83.0277C138.179 83.2448 138.137 83.4866 138.162 83.7261L139.195 90.9831C139.197 91.0777 139.224 91.17 139.274 91.2501C139.325 91.3301 139.396 91.3948 139.481 91.4371C139.565 91.4794 139.66 91.4977 139.754 91.4899C139.848 91.4822 139.938 91.4487 140.015 91.3931L147.555 87.043C147.757 86.9119 147.92 86.7281 148.025 86.5113C148.131 86.2945 148.175 86.0531 148.154 85.813Z" fill="#EBEBEB"/>
<path d="M76.1616 111.93L75.1284 104.669C75.1269 104.574 75.0995 104.482 75.0492 104.402C74.9988 104.322 74.9275 104.257 74.8429 104.215C74.7583 104.173 74.6637 104.154 74.5695 104.162C74.4752 104.17 74.3849 104.203 74.3084 104.259L66.7603 108.65C66.5581 108.781 66.3958 108.965 66.2909 109.182C66.1861 109.399 66.1428 109.64 66.1658 109.88L67.2031 117.137C67.2031 117.232 67.2296 117.326 67.2796 117.406C67.3297 117.487 67.4013 117.553 67.4864 117.595C67.5715 117.638 67.6668 117.656 67.7616 117.647C67.8564 117.639 67.9469 117.604 68.0231 117.547L75.5671 113.16C75.7699 113.03 75.9328 112.846 76.0377 112.629C76.1426 112.412 76.1855 112.17 76.1616 111.93Z" fill="#407BFF"/>
<path d="M87.8221 105.223L86.7889 97.9614C86.7874 97.8668 86.76 97.7745 86.7097 97.6945C86.6593 97.6144 86.588 97.5497 86.5034 97.5074C86.4188 97.4651 86.3242 97.4469 86.23 97.4546C86.1357 97.4624 86.0454 97.4959 85.9689 97.5514L78.429 101.906C78.2268 102.037 78.0645 102.221 77.9596 102.437C77.8548 102.654 77.8115 102.896 77.8345 103.136L78.8718 110.397C78.8733 110.491 78.9007 110.584 78.951 110.664C79.0014 110.744 79.0727 110.808 79.1573 110.851C79.2419 110.893 79.3364 110.911 79.4307 110.903C79.5249 110.896 79.6153 110.862 79.6918 110.807L87.2317 106.453C87.4341 106.322 87.5964 106.138 87.7006 105.921C87.8048 105.704 87.8469 105.462 87.8221 105.223Z" fill="#EBEBEB"/>
<path d="M99.4824 98.4984L98.4492 91.2373C98.4477 91.1427 98.4203 91.0504 98.37 90.9703C98.3196 90.8903 98.2483 90.8256 98.1637 90.7833C98.0791 90.741 97.9845 90.7227 97.8903 90.7305C97.796 90.7383 97.7057 90.7717 97.6292 90.8273L90.0893 95.1815C89.8874 95.3128 89.7254 95.4968 89.6206 95.7136C89.5158 95.9304 89.4723 96.1717 89.4948 96.4115L90.5321 103.673C90.5336 103.767 90.561 103.859 90.6113 103.94C90.6617 104.02 90.733 104.084 90.8176 104.127C90.9022 104.169 90.9967 104.187 91.091 104.179C91.1852 104.172 91.2756 104.138 91.3521 104.083L98.892 99.7284C99.0944 99.5979 99.2567 99.4139 99.3609 99.1968C99.4651 98.9797 99.5072 98.7379 99.4824 98.4984Z" fill="#EBEBEB"/>
<path d="M111.143 91.7745L110.11 84.5134C110.108 84.4189 110.081 84.3265 110.03 84.2465C109.98 84.1664 109.909 84.1017 109.824 84.0594C109.74 84.0171 109.645 83.9989 109.551 84.0066C109.456 84.0144 109.366 84.0479 109.29 84.1034L101.75 88.4576C101.548 88.5889 101.386 88.7729 101.281 88.9897C101.176 89.2065 101.133 89.4479 101.155 89.6876L102.192 96.9487C102.194 97.0433 102.221 97.1356 102.272 97.2157C102.322 97.2957 102.393 97.3604 102.478 97.4027C102.563 97.445 102.657 97.4633 102.751 97.4555C102.846 97.4477 102.936 97.4143 103.012 97.3587L110.552 93.0045C110.755 92.874 110.917 92.69 111.021 92.4729C111.126 92.2558 111.168 92.0141 111.143 91.7745Z" fill="#EBEBEB"/>
<path d="M122.803 85.0504L121.77 77.7893C121.769 77.6947 121.741 77.6024 121.691 77.5223C121.64 77.4423 121.569 77.3776 121.484 77.3353C121.4 77.293 121.305 77.2747 121.211 77.2825C121.117 77.2903 121.027 77.3237 120.95 77.3793L113.41 81.7335C113.208 81.8648 113.046 82.0488 112.941 82.2656C112.837 82.4824 112.793 82.7237 112.816 82.9635L113.853 90.2246C113.854 90.3191 113.882 90.4115 113.932 90.4915C113.982 90.5716 114.054 90.6363 114.138 90.6786C114.223 90.7209 114.318 90.7391 114.412 90.7314C114.506 90.7236 114.596 90.6901 114.673 90.6346L122.213 86.2804C122.415 86.1499 122.578 85.9659 122.682 85.7488C122.786 85.5317 122.828 85.2899 122.803 85.0504Z" fill="#EBEBEB"/>
<path d="M134.48 78.31L133.447 71.0489C133.445 70.9544 133.418 70.862 133.368 70.782C133.317 70.7019 133.246 70.6372 133.161 70.5949C133.077 70.5526 132.982 70.5344 132.888 70.5421C132.794 70.5499 132.703 70.5834 132.627 70.6389L125.05 75.03C124.848 75.1613 124.686 75.3454 124.581 75.5622C124.476 75.779 124.433 76.0203 124.455 76.26L125.493 83.5211C125.494 83.6157 125.522 83.708 125.572 83.7881C125.622 83.8681 125.694 83.9328 125.778 83.9751C125.863 84.0174 125.957 84.0357 126.052 84.0279C126.146 84.0202 126.236 83.9867 126.313 83.9311L133.869 79.54C134.076 79.4125 134.242 79.2297 134.35 79.0123C134.458 78.7949 134.503 78.5516 134.48 78.31Z" fill="#EBEBEB"/>
<path d="M146.124 71.6024L145.091 64.3454C145.089 64.2509 145.062 64.1585 145.012 64.0785C144.961 63.9984 144.89 63.9337 144.805 63.8915C144.721 63.8492 144.626 63.8309 144.532 63.8387C144.438 63.8464 144.347 63.8799 144.271 63.9354L136.731 68.2855C136.529 68.4165 136.366 68.6005 136.262 68.8174C136.157 69.0342 136.114 69.2757 136.136 69.5155L137.174 76.7766C137.175 76.8712 137.203 76.9635 137.253 77.0436C137.303 77.1236 137.375 77.1883 137.459 77.2306C137.544 77.2729 137.638 77.2912 137.733 77.2834C137.827 77.2757 137.917 77.2422 137.994 77.1866L145.55 72.8242C145.748 72.6927 145.907 72.5092 146.008 72.2937C146.109 72.0783 146.149 71.8391 146.124 71.6024Z" fill="#EBEBEB"/>
<path d="M74.1362 97.7358L73.0989 90.4788C73.0989 90.3836 73.0724 90.2903 73.0224 90.2094C72.9723 90.1284 72.9007 90.063 72.8156 90.0204C72.7305 89.9779 72.6352 89.9598 72.5404 89.9684C72.4456 89.9769 72.355 90.0117 72.2789 90.0688L64.739 94.4189C64.5362 94.5492 64.3733 94.7331 64.2684 94.9501C64.1635 95.1672 64.1206 95.409 64.1445 95.6489L65.19 102.91C65.19 103.005 65.2165 103.098 65.2665 103.179C65.3166 103.26 65.3882 103.326 65.4733 103.368C65.5584 103.411 65.6537 103.429 65.7485 103.42C65.8433 103.412 65.9339 103.377 66.01 103.32L73.5499 98.9658C73.7519 98.8351 73.9136 98.651 74.0172 98.4338C74.1207 98.2166 74.1619 97.975 74.1362 97.7358Z" fill="#407BFF"/>
<path d="M85.7966 91.02L84.7593 83.763C84.7593 83.6678 84.7328 83.5745 84.6827 83.4936C84.6327 83.4126 84.5611 83.3472 84.476 83.3046C84.3908 83.262 84.2955 83.244 84.2008 83.2526C84.106 83.2611 84.0154 83.2959 83.9393 83.353L76.3994 87.7072C76.1959 87.8368 76.0325 88.0205 75.9275 88.2378C75.8225 88.455 75.78 88.6972 75.8049 88.9372L76.8422 96.1942C76.8422 96.2894 76.8687 96.3827 76.9187 96.4636C76.9688 96.5446 77.0404 96.61 77.1255 96.6526C77.2106 96.6951 77.3059 96.7132 77.4007 96.7046C77.4955 96.6961 77.586 96.6613 77.6622 96.6042L85.2021 92.25C85.4056 92.1204 85.569 91.9366 85.674 91.7194C85.779 91.5022 85.8214 91.26 85.7966 91.02Z" fill="#EBEBEB"/>
<path d="M97.457 84.2919L96.4197 77.0308C96.4197 76.9356 96.3932 76.8423 96.3431 76.7614C96.2931 76.6804 96.2215 76.615 96.1364 76.5724C96.0513 76.5298 95.9559 76.5118 95.8612 76.5204C95.7664 76.5289 95.6758 76.5637 95.5997 76.6208L88.0598 80.975C87.8563 81.1046 87.6929 81.2884 87.5879 81.5056C87.4829 81.7228 87.4404 81.965 87.4653 82.205L88.5026 89.462C88.5026 89.5572 88.5291 89.6505 88.5791 89.7314C88.6292 89.8124 88.7008 89.8778 88.7859 89.9204C88.871 89.963 88.9663 89.981 89.0611 89.9724C89.1559 89.9639 89.2464 89.9291 89.3226 89.872L96.8625 85.5219C97.0653 85.3916 97.2282 85.2078 97.3331 84.9907C97.438 84.7736 97.4809 84.5318 97.457 84.2919Z" fill="#EBEBEB"/>
<path d="M109.117 77.5679L108.08 70.3068C108.08 70.2116 108.054 70.1183 108.004 70.0374C107.953 69.9564 107.882 69.891 107.797 69.8484C107.712 69.8059 107.616 69.7878 107.522 69.7964C107.427 69.8049 107.336 69.8397 107.26 69.8968L99.7202 74.251C99.5167 74.3806 99.3533 74.5644 99.2483 74.7816C99.1433 74.9988 99.1008 75.241 99.1257 75.481L100.159 82.7421C100.16 82.8367 100.188 82.929 100.238 83.0091C100.288 83.0891 100.36 83.1538 100.444 83.1961C100.529 83.2384 100.624 83.2567 100.718 83.2489C100.812 83.2411 100.902 83.2077 100.979 83.1521L108.519 78.7979C108.722 78.6681 108.886 78.4845 108.992 78.2674C109.097 78.0503 109.141 77.8082 109.117 77.5679Z" fill="#EBEBEB"/>
<path d="M120.778 70.8439L119.74 63.5828C119.74 63.4876 119.714 63.3943 119.664 63.3134C119.614 63.2324 119.542 63.167 119.457 63.1244C119.372 63.0819 119.277 63.0638 119.182 63.0724C119.087 63.0809 118.997 63.1157 118.92 63.1728L111.381 67.527C111.177 67.6566 111.014 67.8404 110.909 68.0576C110.804 68.2748 110.761 68.517 110.786 68.757L111.819 76.0181C111.821 76.1127 111.848 76.205 111.899 76.2851C111.949 76.3651 112.02 76.4298 112.105 76.4721C112.189 76.5144 112.284 76.5327 112.378 76.5249C112.472 76.5171 112.563 76.4837 112.639 76.4281L120.179 72.0739C120.383 71.9445 120.547 71.7609 120.653 71.5437C120.758 71.3265 120.802 71.0843 120.778 70.8439Z" fill="#EBEBEB"/>
<path d="M132.43 64.1199L131.393 56.8588C131.393 56.7636 131.366 56.6703 131.316 56.5894C131.266 56.5084 131.195 56.443 131.109 56.4004C131.024 56.3579 130.929 56.3398 130.834 56.3484C130.739 56.3569 130.649 56.3917 130.573 56.4488L123.033 60.803C122.83 60.933 122.667 61.1168 122.562 61.3339C122.457 61.5511 122.414 61.7931 122.438 62.033L123.476 69.29C123.477 69.3846 123.504 69.4769 123.555 69.557C123.605 69.637 123.677 69.7017 123.761 69.744C123.846 69.7863 123.94 69.8046 124.035 69.7968C124.129 69.789 124.219 69.7556 124.296 69.7L131.836 65.3458C132.038 65.2162 132.201 65.033 132.306 64.8167C132.411 64.6003 132.454 64.3592 132.43 64.1199Z" fill="#EBEBEB"/>
<path d="M144.099 57.4001L143.061 50.139C143.061 50.0438 143.035 49.9505 142.985 49.8695C142.935 49.7886 142.863 49.7231 142.778 49.6806C142.693 49.638 142.598 49.62 142.503 49.6285C142.408 49.6371 142.317 49.6719 142.241 49.729L134.701 54.0832C134.498 54.2131 134.335 54.3969 134.23 54.6141C134.125 54.8312 134.083 55.0732 134.107 55.3132L135.14 62.5743C135.142 62.6688 135.169 62.7612 135.219 62.8412C135.27 62.9213 135.341 62.986 135.426 63.0282C135.51 63.0705 135.605 63.0888 135.699 63.0811C135.793 63.0733 135.884 63.0398 135.96 62.9843L143.5 58.6301C143.704 58.5006 143.868 58.3171 143.974 58.0999C144.079 57.8827 144.123 57.6404 144.099 57.4001Z" fill="#EBEBEB"/>
<path d="M72.3445 84.9028L72.0821 83.0496C72.0821 82.9544 72.0556 82.8611 72.0056 82.7802C71.9555 82.6992 71.8839 82.6338 71.7988 82.5912C71.7137 82.5487 71.6184 82.5306 71.5236 82.5392C71.4288 82.5477 71.3383 82.5825 71.2621 82.6396L63.7181 87.002C63.515 87.132 63.3518 87.3158 63.2469 87.5329C63.1419 87.7501 63.0992 87.9921 63.1236 88.232L63.3819 90.0852C63.3834 90.1798 63.4108 90.2721 63.4611 90.3522C63.5115 90.4322 63.5828 90.4969 63.6674 90.5392C63.752 90.5815 63.8466 90.5998 63.9408 90.592C64.0351 90.5842 64.1254 90.5508 64.2019 90.4952L71.75 86.1246C71.9509 85.9943 72.1124 85.8117 72.2171 85.5964C72.3219 85.3811 72.3659 85.1413 72.3445 84.9028Z" fill="#E6E6E6"/>
<path d="M84.0049 78.1788L83.7425 76.3256C83.7425 76.2304 83.716 76.1371 83.666 76.0562C83.6159 75.9752 83.5443 75.9098 83.4592 75.8672C83.3741 75.8246 83.2788 75.8066 83.184 75.8152C83.0892 75.8237 82.9987 75.8585 82.9225 75.9156L75.3785 80.278C75.1754 80.408 75.0122 80.5918 74.9073 80.8089C74.8023 81.0261 74.7596 81.2681 74.784 81.508L75.0423 83.3612C75.0438 83.4558 75.0712 83.5481 75.1215 83.6282C75.1719 83.7082 75.2432 83.7729 75.3278 83.8152C75.4124 83.8575 75.507 83.8758 75.6012 83.868C75.6955 83.8602 75.7858 83.8268 75.8623 83.7712L83.4063 79.417C83.6106 79.2859 83.7746 79.1008 83.8802 78.8823C83.9859 78.6638 84.029 78.4203 84.0049 78.1788Z" fill="#E6E6E6"/>
<path d="M95.6653 71.4549L95.4029 69.6017C95.4014 69.5071 95.374 69.4148 95.3237 69.3347C95.2733 69.2547 95.202 69.19 95.1174 69.1477C95.0328 69.1054 94.9383 69.0871 94.844 69.0949C94.7498 69.1026 94.6594 69.1361 94.5829 69.1917L87.0389 73.5541C86.8358 73.684 86.6726 73.8678 86.5677 74.085C86.4627 74.3021 86.42 74.5441 86.4444 74.7841L86.7027 76.6373C86.7027 76.7324 86.7292 76.8257 86.7793 76.9067C86.8293 76.9877 86.9009 77.0531 86.986 77.0957C87.0711 77.1382 87.1665 77.1562 87.2612 77.1477C87.356 77.1391 87.4466 77.1044 87.5227 77.0473L95.0667 72.6931C95.271 72.5619 95.435 72.3769 95.5406 72.1584C95.6463 71.9399 95.6894 71.6964 95.6653 71.4549Z" fill="#E6E6E6"/>
<path d="M107.326 64.735L107.063 62.8777C107.062 62.7831 107.034 62.6908 106.984 62.6107C106.934 62.5307 106.862 62.466 106.778 62.4237C106.693 62.3814 106.599 62.3631 106.504 62.3709C106.41 62.3786 106.32 62.4121 106.243 62.4677L98.6993 66.8301C98.4962 66.96 98.333 67.1438 98.2281 67.361C98.1231 67.5781 98.0804 67.8201 98.1048 68.0601L98.3631 69.9133C98.3631 70.0084 98.3896 70.1017 98.4397 70.1827C98.4897 70.2637 98.5613 70.3291 98.6464 70.3717C98.7315 70.4142 98.8269 70.4322 98.9216 70.4237C99.0164 70.4152 99.107 70.3804 99.1831 70.3233L106.727 65.9732C106.931 65.8414 107.094 65.6562 107.2 65.4379C107.305 65.2195 107.349 64.9764 107.326 64.735Z" fill="#E6E6E6"/>
<path d="M118.986 58.011L118.724 56.1537C118.722 56.0591 118.695 55.9668 118.645 55.8867C118.594 55.8067 118.523 55.742 118.438 55.6997C118.354 55.6574 118.259 55.6391 118.165 55.6469C118.071 55.6546 117.98 55.6881 117.904 55.7437L110.36 60.1061C110.157 60.2364 109.994 60.4202 109.889 60.6373C109.784 60.8543 109.741 61.0962 109.765 61.3361L110.024 63.1893C110.024 63.2844 110.05 63.3777 110.1 63.4587C110.15 63.5397 110.222 63.6051 110.307 63.6477C110.392 63.6902 110.487 63.7082 110.582 63.6997C110.677 63.6911 110.767 63.6564 110.844 63.5993L118.388 59.2492C118.591 59.1174 118.755 58.9322 118.86 58.7139C118.966 58.4955 119.009 58.2524 118.986 58.011Z" fill="#E6E6E6"/>
<path d="M130.647 51.287L130.384 49.4338C130.384 49.3386 130.358 49.2453 130.308 49.1643C130.258 49.0834 130.186 49.0179 130.101 48.9754C130.016 48.9328 129.92 48.9148 129.826 48.9233C129.731 48.9319 129.64 48.9667 129.564 49.0238L122.02 53.3821C121.817 53.5124 121.654 53.6962 121.55 53.9133C121.445 54.1303 121.402 54.3722 121.426 54.6121L121.684 56.4694C121.685 56.5639 121.713 56.6563 121.763 56.7363C121.814 56.8164 121.885 56.8811 121.969 56.9233C122.054 56.9656 122.149 56.9839 122.243 56.9762C122.337 56.9684 122.427 56.9349 122.504 56.8794L130.048 52.5252C130.252 52.3937 130.416 52.2086 130.521 51.9902C130.627 51.7717 130.67 51.5284 130.647 51.287Z" fill="#E6E6E6"/>
<path d="M142.303 44.563L142.045 42.7098C142.045 42.6146 142.018 42.5213 141.968 42.4403C141.918 42.3594 141.846 42.2939 141.761 42.2514C141.676 42.2088 141.581 42.1908 141.486 42.1993C141.391 42.2079 141.301 42.2427 141.225 42.2998L133.685 46.654C133.481 46.7836 133.318 46.9673 133.213 47.1846C133.108 47.4018 133.065 47.644 133.09 47.884L133.348 49.7372C133.35 49.8317 133.377 49.9241 133.428 50.0041C133.478 50.0842 133.549 50.1489 133.634 50.1912C133.719 50.2334 133.813 50.2517 133.907 50.244C134.002 50.2362 134.092 50.2027 134.168 50.1472L141.712 45.793C141.915 45.6621 142.077 45.4781 142.181 45.2611C142.285 45.044 142.327 44.8025 142.303 44.563Z" fill="#E6E6E6"/>
<path opacity="0.2" d="M63.55 73.9558C63.513 73.4141 63.6248 72.8725 63.8734 72.3897C64.122 71.907 64.4979 71.5014 64.9604 71.217C65.8788 70.6881 66.7357 71.053 66.8792 72.037C66.9173 72.5793 66.8055 73.1217 66.556 73.6047C66.3065 74.0878 65.929 74.4929 65.4647 74.7758C64.5504 75.3047 63.6935 74.9398 63.55 73.9558Z" fill="black"/>
<path opacity="0.2" d="M75.2227 67.24C75.1847 66.6982 75.2961 66.1563 75.5448 65.6734C75.7935 65.1904 76.17 64.785 76.6331 64.5012C77.5515 63.9682 78.4084 64.3331 78.5519 65.3212C78.5897 65.863 78.4777 66.4046 78.2282 66.887C77.9787 67.3693 77.6014 67.7737 77.1374 68.0559C76.219 68.5684 75.3621 68.2035 75.2227 67.24Z" fill="black"/>
<path opacity="0.2" d="M86.8708 60.4955C86.8328 59.9537 86.9442 59.4118 87.1929 58.9289C87.4416 58.4459 87.818 58.0405 88.2812 57.7567C89.1996 57.2237 90.0606 57.5886 90.2 58.5767C90.2377 59.118 90.1261 59.6592 89.8774 60.1414C89.6287 60.6236 89.2524 61.0283 88.7896 61.3114C87.8712 61.8403 87.0102 61.4754 86.8708 60.4955Z" fill="black"/>
<path opacity="0.2" d="M110.183 47.0353C110.145 46.4934 110.257 45.9515 110.506 45.4686C110.754 44.9857 111.131 44.5802 111.594 44.2965C112.512 43.7676 113.369 44.1325 113.509 45.1165C113.548 45.6586 113.438 46.2012 113.189 46.6844C112.94 47.1677 112.563 47.5729 112.098 47.8553C111.18 48.3801 110.323 48.0193 110.183 47.0353Z" fill="black"/>
<path opacity="0.2" d="M121.852 40.303C121.813 39.761 121.924 39.2188 122.173 38.7357C122.422 38.2526 122.799 37.8473 123.262 37.5642C124.181 37.0312 125.038 37.3961 125.181 38.3842C125.219 38.9266 125.108 39.4689 124.858 39.9519C124.609 40.435 124.231 40.8401 123.767 41.123C122.848 41.6478 121.991 41.2829 121.852 40.303Z" fill="black"/>
<path opacity="0.2" d="M133.5 33.575C133.462 33.0331 133.574 32.4912 133.822 32.0083C134.071 31.5254 134.447 31.12 134.911 30.8362C135.829 30.3032 136.69 30.6681 136.829 31.6562C136.867 32.1975 136.756 32.7387 136.507 33.2209C136.258 33.7031 135.882 34.1078 135.419 34.3909C134.48 34.9198 133.66 34.5549 133.5 33.575Z" fill="black"/>
<path d="M62.3447 62.8776C61.1147 62.1601 59.9093 62.0576 58.9909 62.5865C58.0725 63.1154 57.5641 64.1978 57.5641 65.6369C57.5721 66.3101 57.6714 66.979 57.8593 67.6254L58.5891 67.2154C58.4581 66.7021 58.3892 66.1749 58.3841 65.6451C58.3841 64.5135 58.7449 63.6812 59.4009 63.304C59.67 63.1537 59.9742 63.0774 60.2824 63.0826C60.8639 63.1104 61.4286 63.2868 61.9224 63.5951C64.1036 64.8579 65.8789 67.9329 65.8789 70.4503C65.8801 70.6298 65.8705 70.8092 65.8502 70.9874C65.8401 71.3445 65.7458 71.694 65.5747 72.0076C65.4037 72.3211 65.1609 72.5897 64.8662 72.7914C64.4903 72.9945 64.0566 73.0638 63.6362 72.9882C63.5534 73.2533 63.5187 73.531 63.5337 73.8082C63.6869 73.8326 63.8418 73.8449 63.997 73.8451C64.4485 73.8508 64.8933 73.7346 65.2844 73.5089C65.6504 73.2794 65.9607 72.9711 66.1926 72.6066C66.4245 72.242 66.5723 71.8304 66.6251 71.4015C66.6803 71.0903 66.7078 70.7747 66.7071 70.4586C66.7112 67.6501 64.7514 64.2675 62.3447 62.8776Z" fill="#F5F5F5"/>
<path d="M74.0133 56.1455C72.7833 55.428 71.5779 55.3255 70.6595 55.8544C69.7411 56.3833 69.2327 57.4657 69.2327 58.9048C69.2407 59.5779 69.34 60.2468 69.5279 60.8933L70.2577 60.4833C70.1266 59.9699 70.0578 59.4427 70.0527 58.913C70.0527 57.7814 70.4135 56.9491 71.0695 56.5719C71.3386 56.4216 71.6427 56.3452 71.951 56.3505C72.5325 56.3782 73.0971 56.5547 73.591 56.863C75.7722 58.1258 77.5475 61.2008 77.5475 63.7182C77.5487 63.8976 77.5391 64.077 77.5188 64.2553C77.5087 64.6123 77.4143 64.9618 77.2433 65.2754C77.0723 65.5889 76.8295 65.8575 76.5348 66.0593C76.1589 66.2623 75.7252 66.3317 75.3048 66.2561C75.222 66.5211 75.1873 66.7988 75.2023 67.0761C75.3555 67.1004 75.5104 67.1127 75.6656 67.113C76.1171 67.1186 76.5618 67.0025 76.953 66.7768C77.319 66.5472 77.6293 66.239 77.8612 65.8744C78.0931 65.5099 78.2409 65.0982 78.2937 64.6694C78.3489 64.3581 78.3764 64.0425 78.3757 63.7264C78.3798 60.9302 76.42 57.5354 74.0133 56.1455Z" fill="#F5F5F5"/>
<path d="M85.6613 49.4173C84.4313 48.6998 83.2259 48.5973 82.3075 49.1262C81.3891 49.6551 80.8807 50.7375 80.8807 52.1766C80.8887 52.8498 80.988 53.5187 81.1759 54.1651L81.9057 53.7551C81.7747 53.2418 81.7059 52.7146 81.7007 52.1848C81.7007 51.0532 82.0615 50.2209 82.7175 49.8437C82.9867 49.6934 83.2908 49.617 83.599 49.6223C84.1805 49.6501 84.7452 49.8265 85.239 50.1348C87.4202 51.3976 89.1955 54.4726 89.1955 56.99C89.1968 57.1695 89.1872 57.3488 89.1668 57.5271C89.1568 57.8841 89.0624 58.2337 88.8914 58.5472C88.7204 58.8608 88.4776 59.1294 88.1828 59.3311C87.807 59.5341 87.3733 59.6035 86.9528 59.5279C86.8701 59.793 86.8353 60.0707 86.8503 60.3479C87.0036 60.3723 87.1585 60.3846 87.3136 60.3848C87.7652 60.3904 88.2099 60.2743 88.601 60.0486C88.9671 59.8191 89.2773 59.5108 89.5093 59.1463C89.7412 58.7817 89.8889 58.37 89.9417 57.9412C89.997 57.6299 90.0244 57.3144 90.0237 56.9982C90.0278 54.202 88.068 50.8072 85.6613 49.4173Z" fill="#F5F5F5"/>
<path d="M108.978 35.9775C107.748 35.26 106.543 35.1575 105.624 35.6864C104.706 36.2153 104.197 37.2977 104.197 38.7368C104.205 39.4099 104.305 40.0789 104.493 40.7253L105.222 40.3153C105.091 39.802 105.023 39.2748 105.017 38.745C105.017 37.6134 105.378 36.7811 106.034 36.4039C106.303 36.2536 106.607 36.1772 106.916 36.1825C107.497 36.2102 108.062 36.3867 108.556 36.695C110.737 37.9578 112.512 41.0328 112.512 43.5502C112.513 43.7296 112.504 43.909 112.483 44.0873C112.473 44.4443 112.379 44.7939 112.208 45.1074C112.037 45.421 111.794 45.6896 111.499 45.8913C111.124 46.0943 110.69 46.1637 110.269 46.0881C110.187 46.3531 110.152 46.6308 110.167 46.9081C110.32 46.9324 110.475 46.9448 110.63 46.945C111.082 46.9506 111.527 46.8345 111.918 46.6088C112.284 46.3792 112.594 46.071 112.826 45.7064C113.058 45.3419 113.206 44.9302 113.258 44.5014C113.314 44.1901 113.341 43.8745 113.34 43.5584C113.344 40.7622 111.385 37.3674 108.978 35.9775Z" fill="#F5F5F5"/>
<path d="M120.647 29.2413C119.417 28.5238 118.211 28.4213 117.293 28.9502C116.374 29.4791 115.866 30.5615 115.866 32.0006C115.874 32.6737 115.973 33.3427 116.161 33.9891L116.891 33.5791C116.76 33.0658 116.691 32.5386 116.686 32.0088C116.686 30.8772 117.047 30.0449 117.703 29.6677C117.972 29.5174 118.276 29.441 118.584 29.4463C119.166 29.474 119.731 29.6505 120.224 29.9588C122.406 31.2216 124.181 34.2966 124.181 36.814C124.182 36.9934 124.173 37.1728 124.152 37.3511C124.142 37.7081 124.048 38.0577 123.877 38.3712C123.706 38.6848 123.463 38.9534 123.168 39.1551C122.792 39.3581 122.359 39.4275 121.938 39.3519C121.855 39.6169 121.821 39.8946 121.836 40.1719C121.989 40.1962 122.144 40.2086 122.299 40.2088C122.751 40.2144 123.195 40.0983 123.586 39.8726C123.952 39.643 124.263 39.3348 124.495 38.9702C124.727 38.6057 124.874 38.194 124.927 37.7652C124.982 37.4539 125.01 37.1383 125.009 36.8222C125.013 34.0301 123.053 30.6312 120.647 29.2413Z" fill="#F5F5F5"/>
<path d="M132.295 22.5131C131.065 21.7956 129.859 21.6931 128.941 22.222C128.023 22.7509 127.51 23.8333 127.51 25.2724C127.518 25.9456 127.617 26.6145 127.805 27.2609L128.535 26.8509C128.404 26.3376 128.335 25.8104 128.33 25.2806C128.33 24.149 128.691 23.3167 129.347 22.9395C129.616 22.7892 129.92 22.7129 130.228 22.7181C130.81 22.7459 131.374 22.9223 131.868 23.2306C134.05 24.4934 135.825 27.5684 135.825 30.0858C135.826 30.2653 135.816 30.4446 135.796 30.6229C135.786 30.98 135.692 31.3295 135.521 31.6431C135.35 31.9566 135.107 32.2252 134.812 32.4269C134.436 32.63 134.003 32.6993 133.582 32.6237C133.499 32.8888 133.465 33.1665 133.48 33.4437C133.633 33.4681 133.788 33.4804 133.943 33.4806C134.394 33.4863 134.839 33.3701 135.23 33.1444C135.596 32.9149 135.907 32.6066 136.139 32.2421C136.37 31.8775 136.518 31.4659 136.571 31.037C136.626 30.7258 136.654 30.4102 136.653 30.094C136.661 27.2978 134.701 23.903 132.295 22.5131Z" fill="#F5F5F5"/>
<path d="M144.41 129.15L141.655 133.935C141.474 134.234 141.419 134.592 141.503 134.932C141.586 135.271 141.801 135.564 142.1 135.745C142.399 135.926 142.758 135.981 143.097 135.897C143.437 135.814 143.729 135.599 143.91 135.3L146.682 130.487C146.948 130.027 146.661 129.359 146.038 128.998C145.415 128.637 144.677 128.703 144.41 129.15Z" fill="#455A64"/>
<path d="M166.337 120.725L171.122 123.48C171.269 123.571 171.433 123.632 171.603 123.659C171.774 123.686 171.949 123.679 172.117 123.638C172.285 123.597 172.443 123.523 172.582 123.42C172.721 123.317 172.839 123.188 172.927 123.04C173.016 122.891 173.074 122.726 173.099 122.555C173.123 122.384 173.113 122.209 173.07 122.042C173.026 121.875 172.949 121.718 172.844 121.58C172.74 121.443 172.608 121.327 172.458 121.241L167.645 118.49C167.186 118.224 166.517 118.511 166.157 119.134C165.796 119.757 165.878 120.458 166.337 120.725Z" fill="#455A64"/>
<path d="M171.638 99.1544H171.614L159.957 92.4263H159.925C157.366 90.9708 153.84 91.1963 149.949 93.4349C142.131 97.9449 135.792 108.929 135.792 117.957C135.792 122.467 137.37 125.62 139.917 127.104H139.937L151.593 133.836H151.622C154.18 135.3 157.711 135.066 161.606 132.832C169.42 128.322 175.759 117.338 175.759 108.314C175.759 103.804 174.184 100.639 171.638 99.1544Z" fill="#407BFF"/>
<path opacity="0.1" d="M151.405 133.701L139.925 127.084H139.9C137.354 125.595 135.78 122.43 135.78 117.936C135.78 113.91 137.042 109.499 139.129 105.448L150.786 112.176C148.695 116.227 147.436 120.638 147.436 124.665C147.444 129.052 148.953 132.176 151.405 133.701Z" fill="black"/>
<path opacity="0.4" d="M171.615 122.253C177.143 112.677 177.143 102.327 171.615 99.1357C166.087 95.9441 157.124 101.119 151.596 110.695C146.067 120.27 146.067 130.62 151.595 133.812C157.123 137.004 166.086 131.828 171.615 122.253Z" fill="white"/>
<path d="M155.279 131.885C150.802 131.885 150.318 126.825 150.318 124.648C150.318 116.686 156.144 106.608 163.028 102.615C164.783 101.602 166.472 101.069 167.916 101.069C172.393 101.069 172.877 106.128 172.877 108.306C172.877 116.268 167.05 126.346 160.167 130.339C158.408 131.352 156.718 131.885 155.279 131.885Z" fill="#FAFAFA"/>
<path d="M158.465 125.702C158.443 125.706 158.421 125.706 158.399 125.702C158.348 125.683 158.306 125.646 158.283 125.597C158.259 125.548 158.255 125.491 158.272 125.44L161.409 116.481C161.427 116.429 161.465 116.387 161.514 116.363C161.563 116.339 161.62 116.336 161.671 116.354C161.723 116.372 161.765 116.41 161.789 116.459C161.813 116.508 161.816 116.565 161.798 116.616L158.67 125.563C158.656 125.605 158.629 125.642 158.592 125.668C158.554 125.693 158.51 125.705 158.465 125.702Z" fill="#407BFF"/>
<path d="M166.304 119.183C166.221 119.184 166.138 119.168 166.062 119.134L160.991 116.94V107.74C160.991 107.577 161.055 107.42 161.171 107.305C161.286 107.19 161.442 107.125 161.606 107.125C161.769 107.125 161.925 107.19 162.04 107.305C162.156 107.42 162.221 107.577 162.221 107.74V116.132L166.55 118.006C166.679 118.063 166.783 118.163 166.847 118.288C166.911 118.413 166.931 118.556 166.902 118.694C166.873 118.831 166.798 118.955 166.689 119.044C166.581 119.133 166.445 119.182 166.304 119.183Z" fill="#37474F"/>
<path d="M161.606 114.554C162.524 114.021 163.27 114.452 163.27 115.513C163.236 116.089 163.068 116.648 162.779 117.146C162.49 117.644 162.088 118.068 161.606 118.383C160.683 118.916 159.937 118.486 159.937 117.42C159.972 116.845 160.141 116.287 160.431 115.789C160.721 115.291 161.123 114.868 161.606 114.554Z" fill="#407BFF"/>
<path d="M148.059 107.953C146.05 111.426 142.266 113 139.421 111.356C137.751 110.391 136.534 108.802 136.036 106.94C135.538 105.077 135.801 103.093 136.766 101.424C137.731 99.7546 139.319 98.5372 141.182 98.0393C143.045 97.5414 145.029 97.8039 146.698 98.7689C149.535 100.45 150.06 104.476 148.059 107.953Z" fill="#455A64"/>
<path d="M139.42 111.356C142.266 112.996 146.05 111.426 148.059 107.953C148.508 107.174 148.841 106.335 149.047 105.46C148.932 105.612 145.587 109.876 141.429 108.675C137.198 107.445 136.403 104.193 136.768 101.422C136.289 102.248 135.979 103.161 135.853 104.107C135.728 105.054 135.79 106.016 136.036 106.938C136.282 107.861 136.708 108.726 137.289 109.484C137.87 110.242 138.594 110.878 139.42 111.356Z" fill="#37474F"/>
<path d="M138.252 100.716L136.095 99.4865C135.948 99.3954 135.785 99.3346 135.614 99.3074C135.443 99.2803 135.268 99.2874 135.1 99.3284C134.932 99.3693 134.774 99.4433 134.635 99.546C134.496 99.6488 134.378 99.7782 134.29 99.9267C134.201 100.075 134.143 100.24 134.118 100.411C134.094 100.582 134.104 100.757 134.148 100.924C134.191 101.092 134.268 101.249 134.373 101.386C134.478 101.524 134.609 101.639 134.759 101.725L136.94 102.988C137.403 103.254 138.072 102.967 138.432 102.344C138.793 101.721 138.711 100.983 138.252 100.716Z" fill="#407BFF"/>
<path d="M170.421 90.3148L171.651 88.1623C171.742 88.0152 171.802 87.8515 171.83 87.6807C171.857 87.5098 171.85 87.3353 171.809 87.1672C171.768 86.9992 171.694 86.841 171.591 86.7018C171.488 86.5626 171.359 86.4453 171.21 86.3566C171.062 86.2679 170.897 86.2097 170.726 86.1853C170.555 86.1609 170.38 86.1708 170.213 86.2145C170.046 86.2581 169.889 86.3346 169.751 86.4396C169.613 86.5445 169.498 86.6758 169.412 86.8257L168.149 89.0069C167.883 89.4661 168.149 90.1344 168.793 90.4952C169.437 90.856 170.15 90.7781 170.421 90.3148Z" fill="#407BFF"/>
<path d="M160.002 91.2045C160.48 90.3767 161.117 89.6511 161.875 89.0692C162.633 88.4872 163.499 88.0603 164.422 87.8129C165.345 87.5654 166.308 87.5022 167.256 87.6269C168.203 87.7516 169.117 88.0617 169.945 88.5395C170.773 89.0174 171.498 89.6536 172.08 90.4119C172.662 91.1701 173.089 92.0356 173.337 92.9588C173.584 93.8821 173.647 94.845 173.523 95.7927C173.398 96.7404 173.088 97.6542 172.61 98.482L160.002 91.2045Z" fill="#455A64"/>
<path d="M171.011 89.3143C171.421 90.1712 172.536 93.7997 171.011 94.7017C169.486 95.6037 162.442 92.6107 162.442 92.6107L172.61 98.4819C173.457 97.0078 173.761 95.2837 173.469 93.6089C173.176 91.9342 172.307 90.4147 171.011 89.3143Z" fill="#37474F"/>
<path d="M124.997 110.089C117.74 100.335 115.353 99.2486 113.988 98.9165L116.383 105.477L121.36 111.86" fill="#FFA8A7"/>
<path d="M113.279 98.8099C113.279 98.8099 114.82 98.3425 117.051 100.528C119.281 102.713 121.971 105.899 121.971 105.899C121.971 105.899 121.245 108.502 118.978 109.31L115.698 105.899L113.279 98.8099Z" fill="#407BFF"/>
<path opacity="0.1" d="M113.279 98.8099C113.279 98.8099 114.82 98.3425 117.051 100.528C119.281 102.713 121.971 105.899 121.971 105.899C121.971 105.899 121.245 108.502 118.978 109.31L115.698 105.899L113.279 98.8099Z" fill="black"/>
<path d="M114.692 93.413C116.931 92.8845 118.318 90.641 117.789 88.4019C117.261 86.1628 115.017 84.7761 112.778 85.3046C110.539 85.8331 109.152 88.0766 109.681 90.3157C110.209 92.5548 112.453 93.9415 114.692 93.413Z" fill="#263238"/>
<path d="M103.763 164.869H106.698V159.847H103.763V164.869Z" fill="#FFA8A7"/>
<path d="M113.332 161.22L116.264 161.323L116.411 156.005L113.476 155.902L113.332 161.22Z" fill="#FFA8A7"/>
<path d="M103.951 120.023V140.322C103.882 141.142 103.287 142.524 103.131 145.956C102.934 150.167 103.578 161.753 103.578 161.753C103.578 161.753 104.952 163.118 106.895 161.753C106.895 161.753 109.499 145.214 110.027 141.044C110.487 137.403 111.257 127.514 111.257 127.514L113.012 142.409C113.012 142.409 112.533 145.144 112.43 147.071C112.328 148.998 113.275 159.301 113.275 159.301C113.75 159.598 114.295 159.766 114.856 159.787C115.416 159.807 115.972 159.681 116.469 159.42C116.469 159.42 118.478 143.984 118.781 142.241C119.084 140.499 117.678 120.019 117.678 120.019L103.951 120.023Z" fill="#37474F"/>
<path d="M106.772 99.7489C106.361 99.8058 105.956 99.9005 105.563 100.032C104.743 100.347 104.386 101.34 104.193 102.213C104.032 102.945 103.951 103.693 103.951 104.443V120.023C106.001 122.262 113.184 123.303 117.678 120.023C117.678 120.023 117.592 106.264 117.268 104.001C116.682 100.073 114.808 98.6706 112.914 98.8182L108.383 99.466L106.772 99.7489Z" fill="#407BFF"/>
<path d="M106.534 92.3156C106.534 92.3156 107.211 95.4849 107.481 96.0056C107.66 96.3251 107.953 96.5653 108.301 96.678L108.252 94.4435L106.534 92.3156Z" fill="#263238"/>
<path d="M107.383 87.7687C107.147 87.7417 106.907 87.7687 106.683 87.8475C106.459 87.9263 106.255 88.055 106.087 88.2238C105.534 88.7937 105.846 90.5731 106.534 92.3238L107.809 92.4673L107.383 87.7687Z" fill="#263238"/>
<path d="M108.191 92.4591C107.932 92.6149 107.572 92.1229 107.256 91.7949C106.94 91.4669 105.915 91.0159 105.403 92.0942C104.89 93.1725 105.854 94.6485 106.661 94.9027C108.055 95.3373 108.264 94.4435 108.264 94.4435L108.371 99.4701C108.679 100.144 109.149 100.731 109.739 101.179C110.329 101.627 111.022 101.922 111.754 102.037C114.214 102.369 113.713 100.335 112.902 99.3348V97.8055C113.522 97.9052 114.152 97.9382 114.779 97.9039C115.804 97.744 116.448 96.9363 116.76 95.8293C117.26 94.0458 117.448 92.6108 117.026 89.1053C116.559 85.2677 112.106 85.2267 109.683 86.7437C107.26 88.2607 108.191 92.4591 108.191 92.4591Z" fill="#FFA8A7"/>
<path d="M108.191 92.8896C108.06 92.8896 107.572 92.0696 107.256 91.7949C106.817 91.3849 107.383 87.7687 107.383 87.7687C107.266 87.4564 107.242 87.1167 107.315 86.7911C107.388 86.4656 107.554 86.1684 107.793 85.936C108.392 85.2718 109.4 85.202 111.118 84.9314C112.02 84.7879 113.39 84.5215 114.292 84.3698C115.366 84.1689 116.255 83.9598 117.014 84.6158C117.313 84.8728 117.525 85.2165 117.62 85.5993C117.714 85.9822 117.688 86.385 117.543 86.7519C117.465 86.9198 117.361 87.0747 117.235 87.2111C117.018 87.453 116.981 87.781 116.674 87.8794C116.674 87.8794 116.022 88.4697 114.39 88.6665C112.887 88.7789 111.377 88.7501 109.88 88.5805C109.404 88.5149 109.277 88.6666 109.023 89.9171C108.806 91.02 108.621 92.8814 108.191 92.8896Z" fill="#263238"/>
<path d="M107.387 88.0516L105.846 87.2316C105.894 87.1277 105.964 87.0348 106.05 86.9586C106.135 86.8824 106.236 86.8245 106.345 86.7884C106.454 86.7523 106.569 86.7388 106.683 86.7488C106.798 86.7587 106.909 86.7919 107.01 86.8462C107.214 86.9615 107.367 87.1503 107.437 87.3742C107.507 87.5981 107.489 87.8404 107.387 88.0516Z" fill="#263238"/>
<path d="M112.898 97.8054C112.898 97.8054 110.614 97.3462 109.814 96.9198C109.344 96.6762 108.958 96.296 108.707 95.8292C108.829 96.2957 109.042 96.7333 109.335 97.1166C109.921 97.8628 112.898 98.4163 112.898 98.4163V97.8054Z" fill="#F28F8F"/>
<path d="M112.496 92.3074C112.493 92.3974 112.463 92.4846 112.411 92.5579C112.358 92.6312 112.285 92.6875 112.201 92.7198C112.117 92.752 112.025 92.7588 111.937 92.7393C111.849 92.7198 111.769 92.6748 111.706 92.6099C111.644 92.5451 111.602 92.4633 111.585 92.3747C111.569 92.2861 111.579 92.1946 111.614 92.1117C111.649 92.0287 111.708 91.958 111.783 91.9082C111.858 91.8584 111.946 91.8318 112.037 91.8318C112.098 91.8323 112.159 91.8451 112.215 91.8694C112.272 91.8937 112.323 91.929 112.366 91.9733C112.409 92.0175 112.442 92.0699 112.464 92.1273C112.487 92.1846 112.497 92.2459 112.496 92.3074Z" fill="#263238"/>
<path d="M112.008 90.5813L111.028 91.1184C110.959 90.9838 110.945 90.8281 110.988 90.6832C111.03 90.5382 111.127 90.4152 111.258 90.3394C111.322 90.3043 111.394 90.2828 111.467 90.276C111.54 90.2692 111.614 90.2774 111.684 90.3C111.755 90.3226 111.819 90.3592 111.875 90.4075C111.931 90.4559 111.976 90.515 112.008 90.5813Z" fill="#263238"/>
<path d="M112.693 95.0543L113.738 95.4643C113.716 95.5345 113.679 95.5994 113.631 95.655C113.582 95.7107 113.523 95.756 113.457 95.7882C113.391 95.8204 113.319 95.8388 113.245 95.8423C113.171 95.8458 113.098 95.8344 113.029 95.8087C112.957 95.7819 112.891 95.741 112.835 95.6884C112.778 95.6357 112.733 95.5724 112.702 95.5022C112.671 95.4319 112.654 95.3561 112.652 95.2792C112.651 95.2023 112.664 95.1259 112.693 95.0543Z" fill="#F28F8F"/>
<path d="M116.579 90.9626L115.686 90.2738C115.727 90.213 115.781 90.1615 115.844 90.1223C115.906 90.0832 115.976 90.0572 116.049 90.0461C116.122 90.035 116.197 90.0389 116.268 90.0576C116.34 90.0763 116.406 90.1094 116.465 90.1549C116.584 90.2489 116.663 90.3853 116.684 90.5357C116.705 90.6862 116.668 90.8391 116.579 90.9626Z" fill="#263238"/>
<path d="M116.305 92.1802C116.306 92.2414 116.295 92.3022 116.272 92.3591C116.25 92.416 116.216 92.4678 116.173 92.5117C116.131 92.5555 116.08 92.5905 116.023 92.6145C115.967 92.6385 115.907 92.6512 115.845 92.6517C115.751 92.655 115.657 92.6298 115.577 92.5794C115.496 92.529 115.433 92.4556 115.394 92.3688C115.356 92.282 115.344 92.1857 115.361 92.0923C115.378 91.9988 115.422 91.9126 115.488 91.8446C115.555 91.7766 115.64 91.7299 115.733 91.7107C115.826 91.6914 115.922 91.7004 116.01 91.7365C116.098 91.7726 116.173 91.8342 116.225 91.9133C116.278 91.9923 116.305 92.0853 116.305 92.1802Z" fill="#263238"/>
<path d="M113.824 91.3234L113.976 94.0786L115.415 93.5907L113.824 91.3234Z" fill="#F28F8F"/>
<path d="M106.694 163.422V163.012C106.977 163.131 107.629 165.624 108.793 166.702C109.72 167.546 110.983 168.518 111.303 169.461C111.622 170.404 109.544 170.982 108.679 170.826C107.674 170.65 105.932 169.941 105.497 169.285C105.062 168.629 104.853 167.645 104.497 167.182C104.14 166.718 103.324 166.165 103.131 165.607C103.073 165.087 103.13 164.561 103.299 164.066C103.435 163.549 103.582 162.979 103.759 163.028C103.759 163.09 103.759 163.348 103.759 163.348C104.178 163.674 104.695 163.849 105.226 163.844C105.657 163.836 106.698 163.75 106.694 163.422Z" fill="#263238"/>
<path d="M116.292 160.417C116.448 160.417 116.571 160.638 116.907 161.003C117.41 161.506 117.994 161.921 118.633 162.233C119.732 162.786 121.868 163.631 122.836 164.066C123.439 164.34 123.41 165.07 122.787 165.484C122.164 165.898 120.655 166.198 118.847 165.792C117.859 165.574 116.575 164.66 115.763 164.709C114.952 164.758 113.431 164.75 112.832 164.336C112.233 163.922 112.471 163.041 112.639 162.286C112.824 161.466 113.09 160.191 113.365 160.236V160.499C113.722 161.032 115.517 161.249 116.292 160.859V160.417Z" fill="#263238"/>
<path d="M111.258 127.51C112.78 127.04 114.179 126.241 115.358 125.169C115.358 125.169 114.57 126.645 112.225 128.018L112.274 136.017L111.258 127.51Z" fill="#263238"/>
<path d="M105.694 127.387C105.21 126.977 104.907 126.448 104.177 125.911C103.648 125.584 103.205 125.136 102.885 124.603C102.475 123.914 102.065 121.618 101.942 119.437C101.869 117.001 102.212 114.571 102.955 112.25C103.951 109.499 105.973 105.809 106.645 104.251C107.317 102.693 106.957 101.91 106.354 101.118C105.649 100.192 104.341 100.188 103.107 102.299C101.463 105.234 100.151 108.343 99.1953 111.569C98.5512 113.983 98.3115 116.486 98.486 118.978C98.6213 121.286 99.1256 123.049 99.7734 125.267C99.9538 125.87 99.9333 126.362 100.138 127.555C100.192 128.053 100.319 128.541 100.516 129.002C100.794 129.556 101.148 130.069 101.569 130.523C102.103 131.101 102.781 131.526 103.533 131.753C103.947 131.877 104.384 131.901 104.808 131.823C105.235 131.746 105.62 131.519 105.895 131.184C105.952 131.117 105.992 131.036 106.01 130.95C106.008 130.797 105.948 130.65 105.841 130.54C105.259 129.857 104.712 129.146 104.201 128.408C103.824 127.772 103.644 127.268 103.791 127.297C103.939 127.325 104.132 127.707 104.681 128.051C105.231 128.396 105.911 128.383 106.071 128.076C106.231 127.768 106.19 127.805 105.694 127.387Z" fill="#FFA8A7"/>
<path d="M105.895 99.9375C104.722 100.007 103.656 100.27 102.484 102.594C101.311 104.919 99.4701 109.273 99.4701 109.273C99.9144 110.068 100.565 110.729 101.354 111.184C102.143 111.64 103.041 111.873 103.951 111.86C103.951 111.86 106.649 106.227 107.088 104.743C107.527 103.259 107.83 100.86 105.895 99.9375Z" fill="#407BFF"/>
<path opacity="0.1" d="M105.895 99.9375C104.722 100.007 103.656 100.27 102.484 102.594C101.311 104.919 99.4701 109.273 99.4701 109.273C99.9144 110.068 100.565 110.729 101.354 111.184C102.143 111.64 103.041 111.873 103.951 111.86C103.951 111.86 106.649 106.227 107.088 104.743C107.527 103.259 107.83 100.86 105.895 99.9375Z" fill="black"/>
<path d="M121.36 111.86C121.093 112.639 118.535 115.013 116.653 115.768C116.207 115.921 115.728 115.95 115.267 115.85C114.826 115.664 114.352 115.572 113.873 115.579C113.324 115.628 112.766 115.735 112.213 115.8C112.098 115.804 111.984 115.832 111.881 115.882C111.545 116.067 111.737 116.35 112.004 116.452C112.433 116.607 112.873 116.732 113.32 116.825V116.944C112.175 117.345 110.98 117.585 109.769 117.658C109.554 117.66 109.345 117.732 109.175 117.863C109.105 117.941 109.056 118.035 109.033 118.137C109.009 118.238 109.011 118.344 109.039 118.445C109.097 118.644 109.195 118.83 109.326 118.99C109.821 119.738 110.59 120.261 111.467 120.446C112.353 120.513 113.244 120.402 114.087 120.118C114.494 120.003 114.896 119.876 115.292 119.736C116.452 119.309 117.583 118.804 118.674 118.224C121.013 116.996 123.182 115.471 125.128 113.685C126.309 112.533 126.018 111.426 125.025 110.089" fill="#FFA8A7"/>
<path d="M116.378 115.841C116.378 115.841 116.788 115.69 117.256 116.44C117.723 117.19 118.018 118.56 117.432 118.83C117.634 118.842 117.835 118.801 118.017 118.711C118.198 118.621 118.352 118.486 118.465 118.318C118.586 117.783 118.553 117.226 118.37 116.709C118.187 116.193 117.862 115.738 117.432 115.399C117.037 115.407 116.661 115.565 116.378 115.841Z" fill="#37474F"/>
<path d="M118.547 116.116C118.635 116.265 118.677 116.436 118.667 116.608C118.657 116.78 118.596 116.945 118.492 117.083C118.388 117.22 118.246 117.324 118.083 117.38C117.92 117.436 117.744 117.443 117.577 117.399C117.411 117.355 117.261 117.262 117.147 117.133C117.033 117.004 116.96 116.843 116.937 116.672C116.915 116.501 116.944 116.328 117.02 116.173C117.096 116.019 117.217 115.89 117.367 115.805C117.565 115.69 117.8 115.658 118.021 115.716C118.243 115.775 118.432 115.919 118.547 116.116Z" fill="#407BFF"/>
<path d="M118.347 116.231C118.41 116.34 118.44 116.466 118.432 116.593C118.424 116.719 118.379 116.841 118.302 116.942C118.225 117.042 118.12 117.118 118 117.159C117.88 117.199 117.75 117.204 117.628 117.171C117.505 117.138 117.396 117.069 117.312 116.974C117.229 116.878 117.176 116.76 117.159 116.634C117.143 116.509 117.165 116.381 117.222 116.267C117.278 116.154 117.367 116.06 117.477 115.997C117.55 115.955 117.63 115.928 117.713 115.917C117.795 115.906 117.88 115.912 117.96 115.934C118.041 115.955 118.117 115.993 118.183 116.044C118.249 116.095 118.305 116.158 118.347 116.231Z" fill="#FAFAFA"/>
</svg>
