<svg width="205" height="205" viewBox="0 0 205 205" fill="none" xmlns="http://www.w3.org/2000/svg">
<path d="M111.176 155.287H68.4741V188.223H111.176V155.287Z" fill="#EBEBEB"/>
<path d="M100.479 187.993C100.421 187.993 100.372 180.65 100.372 171.593C100.372 162.536 100.421 155.193 100.479 155.193C100.536 155.193 100.585 162.536 100.585 171.593C100.585 180.65 100.536 187.993 100.479 187.993Z" fill="#E0E0E0"/>
<path d="M107.555 180.728H104.284V184.43H107.555V180.728Z" fill="#FAFAFA"/>
<path d="M86.3542 155.374H81.5039V162.401H86.3542V155.374Z" fill="#E0E0E0"/>
<path d="M86.3542 181.097H81.5039V188.124H86.3542V181.097Z" fill="#E0E0E0"/>
<path d="M188.662 147.03H134.816V188.559H188.662V147.03Z" fill="#EBEBEB"/>
<path d="M175.168 188.264C175.111 188.264 175.062 179.01 175.062 167.592C175.062 156.173 175.111 146.919 175.168 146.919C175.226 146.919 175.275 156.173 175.275 167.592C175.275 179.01 175.23 188.264 175.168 188.264Z" fill="#E0E0E0"/>
<path d="M184.094 179.104H179.965V183.77H184.094V179.104Z" fill="#FAFAFA"/>
<path d="M157.358 147.137H151.241V155.997H157.358V147.137Z" fill="#E0E0E0"/>
<path d="M157.358 179.572H151.241V188.432H157.358V179.572Z" fill="#E0E0E0"/>
<path d="M33.3986 148.252C35.5798 147.129 38.1464 146.981 40.5654 147.383C41.8651 147.596 43.2181 147.985 44.1037 148.961C44.9893 149.937 45.1533 151.655 44.1406 152.495C43.5338 152.996 42.6933 153.069 41.9061 153.061C40.0119 153.037 37.9127 152.705 36.3998 153.844C35.5347 154.496 34.9607 155.575 33.9398 155.894C32.9189 156.214 31.7914 155.611 31.2584 154.701C30.7653 153.752 30.6567 152.649 30.955 151.622C31.0757 150.91 31.359 150.236 31.7828 149.651C32.2066 149.067 32.7596 148.588 33.3986 148.252Z" fill="#EBEBEB"/>
<path d="M28.4048 138.613C29.7373 140.515 32.3285 139.888 33.5298 138.723C34.7311 137.559 35.2395 135.878 35.6987 134.275C36.7565 130.605 37.8184 126.756 37.0353 123.02C36.8468 121.888 36.3487 120.829 35.5962 119.962C35.2152 119.536 34.7296 119.217 34.1873 119.036C33.6451 118.856 33.0651 118.82 32.5048 118.933C31.1969 119.277 30.3851 120.573 29.7988 121.774C28.0702 125.365 27.1653 129.297 27.1502 133.283C27.1502 135.14 27.3593 137.083 28.4048 138.613Z" fill="#EBEBEB"/>
<path d="M24.7476 141.343C26.1949 139.625 26.4696 137.124 25.8259 134.972C25.1822 132.819 23.7267 130.991 22.0498 129.494C20.0775 127.74 17.7826 126.386 15.293 125.509C14.3281 125.119 13.2903 124.943 12.2508 124.993C11.7323 125.022 11.2288 125.178 10.7844 125.447C10.3399 125.715 9.96782 126.089 9.70062 126.534C8.98722 127.891 9.67192 129.535 10.4099 130.88C11.7095 133.246 13.1928 135.507 14.8461 137.641C16.1786 139.355 17.7161 141.048 19.7292 141.823C21.7423 142.598 23.8661 142.508 24.9403 141.101" fill="#EBEBEB"/>
<path d="M28.3146 167.321C28.3858 167.039 28.427 166.75 28.4376 166.46C28.4991 165.828 28.5729 165.037 28.6672 164.098C28.7847 162.937 28.9613 161.782 29.1961 160.638C29.5042 159.239 29.9251 157.868 30.4548 156.538C30.9743 155.216 31.6768 153.974 32.5417 152.848C33.2488 151.932 34.1489 151.183 35.178 150.654C35.8779 150.309 36.6279 150.077 37.4002 149.966C37.6909 149.954 37.9796 149.912 38.2612 149.838C37.971 149.806 37.6781 149.806 37.3879 149.838C36.5859 149.899 35.8012 150.103 35.0714 150.441C33.9846 150.954 33.0317 151.712 32.2875 152.655C31.3823 153.796 30.6526 155.066 30.1227 156.423C29.5936 157.769 29.1821 159.159 28.8927 160.576C28.6696 161.735 28.5149 162.905 28.4294 164.082C28.3556 165.086 28.3269 165.898 28.3146 166.46C28.2844 166.746 28.2844 167.035 28.3146 167.321Z" fill="#E0E0E0"/>
<path d="M28.4786 165.509C28.5029 165.374 28.5112 165.236 28.5032 165.099C28.5032 164.795 28.5032 164.414 28.5032 163.951C28.5032 162.954 28.5032 161.511 28.5524 159.732C28.6426 156.173 28.9624 152.352 29.5405 146.944C30.1022 141.864 30.8525 135.956 31.6479 132.114C31.816 131.241 31.9882 130.454 32.1522 129.765C32.3162 129.076 32.4351 128.478 32.5622 127.998C32.6893 127.518 32.759 127.178 32.8328 126.883C32.8729 126.749 32.8963 126.612 32.9025 126.473C32.8407 126.592 32.7939 126.719 32.7631 126.85C32.6729 127.141 32.5622 127.502 32.4269 127.949C32.2916 128.396 32.1276 129.019 31.9554 129.703C31.7832 130.388 31.5864 131.175 31.4019 132.049C30.417 136.592 29.6765 141.185 29.1838 145.808C28.5934 151.22 28.3269 156.148 28.3023 159.715C28.3023 161.499 28.3023 162.946 28.3638 163.943C28.3925 164.406 28.4171 164.787 28.4335 165.086C28.4315 165.229 28.4467 165.37 28.4786 165.509Z" fill="#E0E0E0"/>
<path d="M28.5032 156.005C28.5345 155.605 28.5345 155.203 28.5032 154.804C28.4581 154.033 28.3515 152.922 28.1342 151.556C27.8661 149.96 27.5074 148.38 27.06 146.825C26.543 144.911 25.8809 143.038 25.0797 141.224C23.708 137.882 21.7393 134.817 19.27 132.18C18.8416 131.727 18.3842 131.302 17.9006 130.909C17.6915 130.728 17.4906 130.552 17.3184 130.413L16.81 130.048C16.4909 129.804 16.1522 129.587 15.7973 129.4C15.7399 129.478 17.2282 130.355 19.106 132.352C21.4946 135.014 23.4109 138.065 24.7722 141.372C25.5596 143.174 26.224 145.027 26.7607 146.919C27.2116 148.46 27.5851 150.023 27.88 151.601C28.126 152.95 28.29 154.061 28.3556 154.816C28.3732 155.215 28.4225 155.613 28.5032 156.005Z" fill="#E0E0E0"/>
<path d="M18.6796 171.323L19.6308 184.373H36.3957L37.3469 171.323H18.6796Z" fill="#EBEBEB"/>
<path d="M39.3436 166.181H17.0601V171.323H39.3436V166.181Z" fill="#EBEBEB"/>
<path d="M17.0601 183.873V185.295H18.1097H38.9787V183.873H17.0601Z" fill="#E0E0E0"/>
<path d="M19.1347 187.649L18.1097 185.139H38.1792L36.982 187.649H19.1347Z" fill="#E0E0E0"/>
<path d="M37.0353 175.586C37.0144 175.63 36.9882 175.672 36.9574 175.709C36.8918 175.796 36.8057 175.906 36.7073 176.042L35.7315 177.272L35.6864 177.329L35.6454 177.272L33.2469 173.955H33.3822L31.0206 177.296L30.9468 177.403L30.8648 177.304L28.0645 173.971H28.2244L28.0727 174.168L25.5676 177.304L25.4815 177.411L25.4077 177.3L23.042 173.959H23.1814L20.2704 177.272L20.2212 177.333L20.1802 177.263L19.27 175.755C19.1716 175.591 19.0978 175.455 19.0363 175.345C19.0054 175.299 18.9806 175.249 18.9625 175.197C19.0009 175.236 19.034 175.28 19.0609 175.328L19.3192 175.718L20.2745 177.222H20.1843L23.0543 173.869L23.124 173.782L23.1896 173.873L25.5758 177.202H25.42L27.9169 174.057C27.9702 173.992 28.0235 173.926 28.0686 173.864L28.1506 173.762L28.2326 173.86L31.0247 177.202H30.8689L33.2551 173.877L33.3248 173.778L33.3904 173.877C34.3375 175.226 35.1411 176.37 35.7397 177.231H35.6536L36.6704 176.001C36.7811 175.873 36.8713 175.771 36.941 175.685C36.97 175.65 37.0015 175.617 37.0353 175.586Z" fill="#F5F5F5"/>
<path d="M37.5806 171.236C37.5806 171.294 33.3781 171.343 28.1998 171.343C23.0215 171.343 18.819 171.294 18.819 171.236C18.819 171.179 23.0174 171.134 28.1998 171.134C33.3822 171.134 37.5806 171.179 37.5806 171.236Z" fill="#F5F5F5"/>
<path d="M155.153 23.2883L151.717 23.3069L151.81 40.4036L155.246 40.385L155.153 23.2883Z" fill="#E0E0E0"/>
<path d="M130.849 23.3339L121.952 23.3821L122.003 32.8201L130.9 32.772L130.849 23.3339Z" fill="#EBEBEB"/>
<path d="M139.705 23.2858L130.808 23.334L130.859 32.772L139.756 32.7239L139.705 23.2858Z" fill="#F5F5F5"/>
<path d="M121.963 25.9939C127.878 26.0431 133.795 26.0158 139.716 25.9119C139.741 25.9119 139.765 25.902 139.782 25.8843C139.8 25.8666 139.81 25.8426 139.81 25.8176C139.81 25.7926 139.8 25.7686 139.782 25.7509C139.765 25.7332 139.741 25.7233 139.716 25.7233C133.803 25.6905 127.875 25.7233 121.963 25.834C121.945 25.8381 121.928 25.8483 121.917 25.8628C121.905 25.8773 121.899 25.8954 121.899 25.9139C121.899 25.9325 121.905 25.9506 121.917 25.9651C121.928 25.9796 121.945 25.9898 121.963 25.9939Z" fill="#E0E0E0"/>
<path d="M132.572 32.6152L116.406 32.7026L116.448 40.3941L132.614 40.3067L132.572 32.6152Z" fill="#EBEBEB"/>
<path d="M148.66 32.528L132.494 32.6155L132.535 40.307L148.701 40.2195L148.66 32.528Z" fill="#F5F5F5"/>
<path d="M116.415 34.85C127.153 34.9689 137.928 34.85 148.67 34.6901C148.695 34.6901 148.719 34.6802 148.737 34.6625C148.754 34.6448 148.764 34.6208 148.764 34.5958C148.764 34.5708 148.754 34.5468 148.737 34.5291C148.719 34.5115 148.695 34.5015 148.67 34.5015C137.932 34.4441 127.153 34.4482 116.415 34.686C116.394 34.686 116.373 34.6947 116.357 34.71C116.342 34.7254 116.333 34.7463 116.333 34.768C116.333 34.7898 116.342 34.8106 116.357 34.826C116.373 34.8414 116.394 34.85 116.415 34.85Z" fill="#E0E0E0"/>
<path d="M173 40.4014H110.368V43.1566H173V40.4014Z" fill="#E0E0E0"/>
<path d="M123.164 41.7256H120.622V51.1269H123.164V41.7256Z" fill="#E0E0E0"/>
<path d="M161.118 41.7256H158.576V51.1269H161.118V41.7256Z" fill="#E0E0E0"/>
<path d="M158.505 16.9111L155.069 16.9297L155.197 40.4428L158.632 40.4243L158.505 16.9111Z" fill="#EBEBEB"/>
<path d="M163.871 21.2895L158.533 21.3184L158.636 40.3749L163.974 40.346L163.871 21.2895Z" fill="#F5F5F5"/>
<path d="M163.836 24.9688C162.062 25.0942 160.28 25.0942 158.506 24.9688C160.281 24.8489 162.061 24.8489 163.836 24.9688Z" fill="#E0E0E0"/>
<path d="M163.836 24.19C162.949 24.2797 162.058 24.3098 161.167 24.2802C160.276 24.3097 159.384 24.2795 158.498 24.19C160.272 24.0646 162.053 24.0646 163.828 24.19H163.836Z" fill="#E0E0E0"/>
<path d="M163.836 37.4862C162.062 37.6115 160.28 37.6115 158.506 37.4862C160.281 37.3663 162.061 37.3663 163.836 37.4862Z" fill="#E0E0E0"/>
<path d="M163.836 36.6868C162.061 36.8067 160.281 36.8067 158.506 36.6868C160.28 36.5614 162.062 36.5614 163.836 36.6868Z" fill="#E0E0E0"/>
<path d="M161.253 34.9401C161.204 34.9401 161.163 33.0172 161.163 30.6474C161.163 28.2776 161.204 26.3506 161.253 26.3506C161.302 26.3506 161.347 28.2735 161.347 30.6474C161.347 33.0213 161.306 34.9401 161.253 34.9401Z" fill="#E0E0E0"/>
<path d="M169.707 25.9775H163.898V40.3603H169.707V25.9775Z" fill="#EBEBEB"/>
<path d="M156.735 21.9225C157.281 21.9225 157.723 21.4801 157.723 20.9344C157.723 20.3887 157.281 19.9463 156.735 19.9463C156.189 19.9463 155.747 20.3887 155.747 20.9344C155.747 21.4801 156.189 21.9225 156.735 21.9225Z" fill="#E0E0E0"/>
<path d="M157.042 23.6528H156.431V37.642H157.042V23.6528Z" fill="#E0E0E0"/>
<path d="M190.511 188.333C190.511 188.395 151.101 188.44 102.504 188.44C53.9068 188.44 14.4894 188.395 14.4894 188.333C14.4894 188.272 53.8904 188.227 102.504 188.227C151.118 188.227 190.511 188.276 190.511 188.333Z" fill="#263238"/>
<path d="M61.1761 37.8635C63.1096 40.2297 64.1565 43.1965 64.1363 46.2521C64.1158 47.9823 63.796 49.8888 64.8046 51.2951C65.5672 52.3611 66.9612 52.8982 67.5803 54.0544C68.3265 55.4443 67.691 57.2032 68.1502 58.712C68.798 60.8522 71.3072 61.7501 72.7955 63.4188C73.4299 64.1567 73.8738 65.0389 74.0882 65.9881C74.3026 66.9373 74.2811 67.9247 74.0255 68.8636C73.7544 69.7987 73.264 70.6555 72.5951 71.3629C71.9262 72.0703 71.0981 72.6078 70.1797 72.9308C69.199 73.3174 68.1052 73.2997 67.1375 72.8816C66.133 72.3814 65.4975 71.3523 65.0055 70.3478C64.0174 68.3716 55.3377 57.6911 54.8457 55.5345" fill="#263238"/>
<path d="M54.8621 35.3463C51.3115 34.7723 47.8921 37.1298 46.4038 40.4016C44.9155 43.6734 44.8663 47.3716 44.7638 50.9796C44.6613 54.5876 44.3989 58.3268 42.5662 61.4182C41.4018 63.3821 39.5978 65.1082 39.3149 67.3673C39.0607 69.3927 40.1103 71.4345 39.7618 73.4476C39.4584 75.2024 38.1218 76.7276 38.1751 78.5029C38.2407 80.6431 40.4424 82.2544 42.5785 82.3118C44.7146 82.3692 46.7154 81.2499 48.3923 79.9215C51.1244 77.7523 53.3106 74.9735 54.776 71.8076" fill="#263238"/>
<path d="M49.0196 43.8086C48.908 42.9154 48.9771 42.009 49.2226 41.143C49.4681 40.2771 49.885 39.4693 50.4487 38.7675C51.0124 38.0658 51.7113 37.4845 52.5039 37.058C53.2965 36.6316 54.1668 36.3687 55.063 36.2851C58.6423 35.9407 61.828 38.6098 62.3651 42.1686C62.8366 45.2887 63.2384 48.4375 63.2261 49.5814C63.181 53.0295 61.1761 54.3702 60.3561 54.7761C60.0611 54.8819 59.7561 54.9575 59.4459 55.0016V55.0262L60.2085 58.9868C60.557 61.5821 59.1097 63.9068 56.5185 64.2717C53.9273 64.6366 51.8896 62.6563 51.4919 60.061L49.0196 43.8086Z" fill="#FFBE9D"/>
<path d="M61.6599 43.6774C61.6025 43.7594 61.1474 43.5175 60.5652 43.6036C59.983 43.6897 59.5935 44.0423 59.5197 43.9808C59.4459 43.9193 59.5197 43.8168 59.7001 43.6528C59.9243 43.4344 60.2108 43.2911 60.5201 43.2428C60.8235 43.1961 61.1339 43.2478 61.4057 43.3904C61.6107 43.5216 61.6886 43.6446 61.6599 43.6774Z" fill="#263238"/>
<path d="M56.4693 44.9402C56.4119 45.0222 55.9568 44.7762 55.3705 44.8623C54.7842 44.9484 54.4029 45.3051 54.3291 45.2436C54.2553 45.1821 54.3291 45.0755 54.5095 44.9156C54.7337 44.6972 55.0202 44.5539 55.3295 44.5056C55.6333 44.4624 55.943 44.5154 56.2151 44.6573C56.416 44.7844 56.498 44.9033 56.4693 44.9402Z" fill="#263238"/>
<path d="M58.5972 48.0685C58.8904 47.9274 59.2004 47.8241 59.5197 47.761C59.6673 47.7241 59.8026 47.6749 59.8149 47.5683C59.8016 47.4185 59.7446 47.2759 59.6509 47.1583L59.04 46.0677C58.1913 44.5425 57.5558 43.2797 57.6173 43.2428C57.6788 43.2059 58.4373 44.4236 59.2573 45.9488C59.4664 46.326 59.6673 46.6868 59.8477 47.0271C59.9668 47.1938 60.0247 47.3965 60.0117 47.6011C59.9981 47.657 59.9719 47.7091 59.9349 47.7532C59.8979 47.7973 59.8512 47.8322 59.7985 47.8553C59.7185 47.8902 59.6345 47.915 59.5484 47.9291C59.2387 48.0168 58.919 48.0637 58.5972 48.0685Z" fill="#263238"/>
<path d="M59.4131 55.0057C59.4131 55.0057 57.1868 55.5182 54.12 54.2349C54.12 54.2349 55.4443 57.0844 59.6222 56.0717L59.4131 55.0057Z" fill="#EB996E"/>
<path d="M56.17 43.4108C56.1372 43.5789 55.5427 43.5871 54.8703 43.7716C54.1979 43.9561 53.669 44.2185 53.5583 44.0914C53.5091 44.0299 53.5829 43.8659 53.7838 43.6814C54.0543 43.45 54.3739 43.2833 54.7185 43.1938C55.063 43.1043 55.4234 43.0943 55.7723 43.1648C56.0429 43.2263 56.17 43.3329 56.17 43.4108Z" fill="#263238"/>
<path d="M61.1802 42.3859C61.0982 42.5335 60.6759 42.4556 60.1921 42.5171C59.7083 42.5786 59.3106 42.7385 59.1958 42.6114C59.1466 42.5499 59.1957 42.4105 59.3515 42.2588C59.5666 42.0682 59.8364 41.9505 60.1224 41.9226C60.4048 41.8886 60.6908 41.9415 60.9424 42.0743C61.1392 42.185 61.2171 42.3121 61.1802 42.3859Z" fill="#263238"/>
<path d="M55.2024 45.6946C55.2114 45.758 55.2329 45.819 55.2657 45.8741C55.2985 45.9291 55.3419 45.9771 55.3934 46.0153C55.4449 46.0534 55.5035 46.081 55.5657 46.0963C55.6279 46.1116 55.6926 46.1144 55.7559 46.1046C55.8175 46.0975 55.877 46.0782 55.9311 46.0479C55.9851 46.0176 56.0326 45.9768 56.0707 45.928C56.1089 45.8791 56.137 45.8232 56.1533 45.7634C56.1696 45.7036 56.1739 45.6412 56.1659 45.5798C56.1467 45.4521 56.0776 45.3372 55.9738 45.2604C55.8701 45.1835 55.7401 45.151 55.6124 45.1698C55.5506 45.1763 55.4908 45.1952 55.4364 45.2254C55.3821 45.2555 55.3344 45.2963 55.2961 45.3452C55.2579 45.3942 55.2299 45.4504 55.2138 45.5104C55.1977 45.5704 55.1938 45.633 55.2024 45.6946Z" fill="#263238"/>
<path d="M60.3725 44.5752C60.3917 44.7028 60.4608 44.8177 60.5645 44.8945C60.6683 44.9714 60.7983 45.004 60.926 44.9852C60.9876 44.9781 61.0471 44.9588 61.1012 44.9285C61.1552 44.8982 61.2027 44.8574 61.2408 44.8086C61.279 44.7598 61.3071 44.7038 61.3234 44.644C61.3397 44.5843 61.344 44.5218 61.336 44.4604C61.3168 44.3327 61.2477 44.2179 61.144 44.141C61.0402 44.0642 60.9102 44.0316 60.7825 44.0504C60.7207 44.0569 60.6609 44.0758 60.6065 44.106C60.5522 44.1361 60.5045 44.1769 60.4662 44.2259C60.428 44.2748 60.4 44.331 60.3839 44.391C60.3678 44.451 60.3639 44.5136 60.3725 44.5752Z" fill="#263238"/>
<path d="M59.5156 49.2001C59.3547 49.15 59.1812 49.1578 59.0255 49.2222C58.8697 49.2866 58.7414 49.4035 58.6628 49.5527C58.5877 49.6896 58.5573 49.8465 58.5756 50.0016C58.594 50.1567 58.6603 50.3022 58.7653 50.4178C58.877 50.5275 59.0242 50.594 59.1804 50.6053C59.3366 50.6165 59.4918 50.5719 59.6181 50.4793C59.7763 50.3353 59.8719 50.1352 59.8846 49.9217C59.9124 49.7259 59.8656 49.5269 59.7534 49.3641C59.6958 49.2845 59.6136 49.2261 59.5195 49.1979C59.4253 49.1698 59.3246 49.1734 59.2327 49.2083" fill="#EB996E"/>
<path d="M61.91 39.3601C61.5881 38.0611 60.7851 36.9327 59.6632 36.2031C58.7449 35.5398 57.654 35.1567 56.5226 35.1002C55.3841 35.0512 54.2726 35.4551 53.4312 36.2236C52.8341 36.8154 52.4927 37.6175 52.48 38.4581L52.5456 37.8841C52.3733 38.3511 52.3733 38.8643 52.5456 39.3314C52.6399 39.5815 52.7547 39.8357 52.8531 40.0858C53.1466 40.8085 53.6911 41.401 54.3865 41.7545C54.7014 41.9234 55.0541 42.0095 55.4115 42.0046C55.5904 42.001 55.7663 41.9584 55.9271 41.8798C56.0878 41.8012 56.2295 41.6885 56.3422 41.5495C56.5968 41.1051 56.6757 40.5814 56.5636 40.0817C56.8326 40.5755 57.2165 40.9974 57.6829 41.3117C57.921 41.4639 58.2042 41.5294 58.485 41.4973C58.7658 41.4652 59.0269 41.3374 59.2245 41.1354C59.5607 40.7254 59.4295 40.0776 59.2245 39.5692C59.5417 40.0487 59.986 40.4306 60.5078 40.6721C60.6451 40.7508 60.7972 40.8003 60.9546 40.8172C61.112 40.8341 61.2712 40.8182 61.4221 40.7705C61.5427 40.7107 61.6482 40.6242 61.7306 40.5177C61.813 40.4111 61.8701 40.2873 61.8977 40.1555C61.9585 39.8943 61.9627 39.6231 61.91 39.3601Z" fill="#263238"/>
<path d="M58.9457 40.4506C58.9088 40.4506 58.917 39.9627 58.7571 39.2206C58.5726 38.2345 58.0769 37.3335 57.3426 36.6499C56.939 36.2829 56.4521 36.0197 55.924 35.8832C55.4915 35.777 55.0411 35.7659 54.6038 35.8504C54.2008 35.9446 53.8158 36.1039 53.464 36.3219C53.464 36.3219 53.5337 36.2194 53.7141 36.0882C53.973 35.9071 54.2637 35.7764 54.571 35.7028C55.0308 35.5952 55.5093 35.5952 55.9691 35.7028C56.5357 35.8442 57.0574 36.1263 57.4861 36.5228C58.2549 37.2346 58.757 38.188 58.9088 39.2247C58.9576 39.5312 58.9823 39.841 58.9826 40.1513C58.9877 40.2525 58.9752 40.3537 58.9457 40.4506Z" fill="#455A64"/>
<path d="M96.7067 88.2526L80.9422 82.0001C80.9422 82.0001 72.8693 71.4098 73.0374 71.2048L67.3671 77.4122L75.6081 88.5601L94.71 93.0373L97.99 92.1271C97.2684 88.6462 96.7067 88.2526 96.7067 88.2526Z" fill="#FFBE9D"/>
<path d="M62.3487 58.0397L60.2003 57.2197L50.9261 58.3964V60.0364L50.6596 60.0692C48.6604 60.4943 46.743 61.2391 44.9811 62.275C43.3307 63.2825 42.0194 64.7605 41.2157 66.5191C40.4121 68.2778 40.1527 70.2366 40.4711 72.1437C40.8483 74.4889 41.5781 77.3384 42.9885 78.9866C45.6822 82.1395 48.1422 78.2445 48.1422 78.2445C48.1422 78.2445 49.8314 82.0985 49.733 83.923C49.651 85.4523 48.9786 88.6339 48.7613 89.6261C48.7524 89.6658 48.7516 89.7068 48.7591 89.7468C48.7665 89.7867 48.7821 89.8248 48.8047 89.8585C48.8273 89.8923 48.8566 89.9211 48.8907 89.9432C48.9249 89.9652 48.9631 89.9801 49.0032 89.9869L68.5684 93.6072L68.6627 88.8225L68.0395 69.1425L67.158 61.5001C67.158 61.5001 67.1867 57.8511 62.3487 58.0397Z" fill="#407BFF"/>
<path d="M66.8587 60.229L74.3207 71.0079L68.3142 78.3223L66.8587 60.229Z" fill="#407BFF"/>
<path d="M68.47 82.9103C68.4432 82.679 68.4336 82.4461 68.4413 82.2133C68.4413 81.7295 68.4413 81.094 68.4167 80.3191C68.3804 78.2393 68.2312 76.163 67.9698 74.0994C67.6623 71.6804 67.1908 69.5197 66.8341 67.9494L66.3995 66.1044C66.3365 65.8813 66.2899 65.6538 66.2601 65.4238C66.3533 65.6369 66.4274 65.8578 66.4815 66.0839C66.6086 66.4939 66.7808 67.1376 66.9776 67.9166C67.507 69.9395 67.9095 71.9935 68.183 74.0666C68.4465 76.1389 68.5753 78.2261 68.5684 80.315C68.5684 81.135 68.5479 81.7664 68.5233 82.2133C68.5254 82.4468 68.5075 82.6799 68.47 82.9103Z" fill="#263238"/>
<path d="M50.102 66.5225C50.102 66.5553 49.5362 66.5512 48.6301 66.5963C47.4478 66.6604 46.272 66.8126 45.1123 67.0514C43.9529 67.2947 42.8128 67.6222 41.7011 68.0313C40.8483 68.347 40.3358 68.5807 40.3194 68.5479C40.4245 68.4656 40.5404 68.398 40.6638 68.347C40.8893 68.224 41.2255 68.0682 41.6478 67.8919C43.8602 66.9783 46.2246 66.4888 48.6178 66.4487C49.077 66.4487 49.4378 66.4487 49.7043 66.4733C49.8386 66.469 49.9728 66.4856 50.102 66.5225Z" fill="#FAFAFA"/>
<path d="M67.3835 71.4548C67.0836 71.5637 66.7707 71.6327 66.4528 71.6598C64.9367 71.8811 63.4007 71.9334 61.8731 71.8156C61.554 71.8101 61.237 71.7632 60.9301 71.6762C61.2465 71.6481 61.5648 71.6481 61.8813 71.6762C62.4635 71.6762 63.2712 71.6762 64.1609 71.6762C65.0506 71.6762 65.8542 71.586 66.4364 71.5327C66.749 71.4781 67.066 71.452 67.3835 71.4548Z" fill="#FAFAFA"/>
<path d="M70.807 66.58C70.355 67.1022 69.8136 67.5396 69.208 67.8715C68.6363 68.258 67.9984 68.5359 67.3261 68.6915C67.3015 68.6341 68.1461 68.2815 69.0973 67.6747C70.0485 67.0679 70.766 66.5308 70.807 66.58Z" fill="#FAFAFA"/>
<path d="M67.7935 61.5821C66.4999 62.7457 64.8517 63.4391 63.1154 63.5501C63.1154 63.4845 64.2429 63.3123 65.5385 62.7588C66.8341 62.2053 67.7525 61.5288 67.7935 61.5821Z" fill="#FAFAFA"/>
<path d="M68.1994 79.8024C68.0788 79.8835 67.9495 79.9509 67.814 80.0033C67.5557 80.1263 67.1826 80.278 66.707 80.4543C65.4713 80.8983 64.1958 81.2223 62.8981 81.4219C61.6004 81.6222 60.2862 81.695 58.9744 81.6392C58.4701 81.6187 58.0642 81.5818 57.7854 81.5449C57.6394 81.5352 57.495 81.5091 57.3549 81.467C57.3549 81.4301 57.9781 81.467 58.9949 81.4916C61.6016 81.5159 64.1951 81.1171 66.6742 80.3108C67.609 80.0033 68.1871 79.7696 68.1994 79.8024Z" fill="#FAFAFA"/>
<path d="M68.3511 85.3579C68.3511 85.3579 68.2937 85.3989 68.1748 85.4604L67.65 85.69C67.199 85.9032 66.5307 86.182 65.6943 86.51C64.8579 86.838 63.8452 87.1537 62.7054 87.4653C60.2275 88.1326 57.684 88.5272 55.1204 88.642C53.9396 88.6871 52.8777 88.683 51.9839 88.642C51.0901 88.601 50.3726 88.5354 49.8765 88.4657L49.3066 88.3878C49.2395 88.3829 49.1733 88.3691 49.1098 88.3468C49.1764 88.3362 49.2442 88.3362 49.3107 88.3468L49.8847 88.3837C50.3808 88.4247 51.1147 88.4657 51.988 88.4903C52.8613 88.5149 53.9396 88.4903 55.1122 88.4493C56.2848 88.4083 57.5722 88.2607 58.9129 88.0393C60.2536 87.8179 61.5164 87.5514 62.6562 87.2644C63.796 86.9774 64.8046 86.6535 65.641 86.3542C66.4774 86.0549 67.158 85.8048 67.6172 85.6162L68.1502 85.4071C68.2153 85.3837 68.2826 85.3672 68.3511 85.3579Z" fill="#FAFAFA"/>
<path d="M32.39 172.52L30.1719 182.536L26.1252 189.953C26.0564 190.08 26.0143 190.219 26.0015 190.363C25.9887 190.506 26.0055 190.651 26.0508 190.788C26.0962 190.924 26.1691 191.05 26.2651 191.158C26.3611 191.265 26.4781 191.352 26.609 191.413C26.7609 191.482 26.9272 191.515 27.0942 191.507C27.2611 191.499 27.4237 191.451 27.5684 191.367C29.4462 190.285 36.3383 186.255 36.4572 185.513C36.6007 184.656 39.4994 175.103 39.4994 175.103L32.39 172.52Z" fill="#407BFF"/>
<g opacity="0.6">
<path d="M26.609 191.413L36.6253 184.853L36.5187 185.263C36.4311 185.629 36.2159 185.951 35.9119 186.173C35.0919 186.759 32.8082 188.334 27.6012 191.376C27.4517 191.463 27.2829 191.513 27.1097 191.519C26.9366 191.526 26.7646 191.489 26.609 191.413Z" fill="white"/>
</g>
<g opacity="0.6">
<path d="M35.3666 181.126C35.2219 181.186 35.1046 181.298 35.0373 181.439C34.9699 181.581 34.9572 181.742 35.0017 181.893C35.0564 182.039 35.1651 182.159 35.3054 182.227C35.4457 182.296 35.607 182.308 35.756 182.262C35.9109 182.198 36.0363 182.078 36.1076 181.926C36.1789 181.775 36.191 181.602 36.1415 181.442C36.0688 181.296 35.9434 181.185 35.791 181.129C35.6385 181.073 35.4705 181.078 35.3215 181.142" fill="white"/>
</g>
<path d="M29.9546 187.616C29.7892 187.247 29.557 186.912 29.2699 186.628C28.9391 186.397 28.5677 186.232 28.1752 186.14C28.1752 186.111 28.3187 186.066 28.5606 186.091C28.8753 186.131 29.1716 186.262 29.4134 186.468C29.657 186.666 29.8367 186.931 29.93 187.231C29.9997 187.464 29.9792 187.616 29.9546 187.616Z" fill="#263238"/>
<path d="M28.9173 188.776C28.8599 188.809 28.6179 188.407 28.1382 188.133C27.8322 187.991 27.5172 187.869 27.1953 187.768C27.3722 187.71 27.5605 187.695 27.7445 187.724C27.9284 187.753 28.1028 187.826 28.2531 187.936C28.7984 188.252 28.9747 188.764 28.9173 188.776Z" fill="#263238"/>
<path d="M31.693 186.23C31.3443 185.843 30.9659 185.484 30.5614 185.156C30.1156 184.884 29.6495 184.647 29.1674 184.447C29.7219 184.436 30.2624 184.621 30.6926 184.972C31.1668 185.257 31.5221 185.704 31.693 186.23Z" fill="#263238"/>
<path d="M32.6237 183.241C32.5827 183.295 32.0866 182.93 31.3937 182.729C30.7008 182.528 30.0735 182.561 30.0694 182.491C30.5257 182.373 31.0055 182.38 31.458 182.512C31.9106 182.644 32.319 182.896 32.6401 183.241H32.6237Z" fill="#263238"/>
<path d="M33.3494 180.318C32.9494 180.071 32.5177 179.879 32.0661 179.748C31.6008 179.685 31.1291 179.685 30.6639 179.748C30.6639 179.724 30.791 179.625 31.0534 179.547C31.3983 179.454 31.7603 179.442 32.1106 179.513C32.4608 179.584 32.7896 179.737 33.0706 179.957C33.2797 180.154 33.3658 180.302 33.3494 180.318Z" fill="#263238"/>
<path d="M32.2178 179.195C32.2181 179.065 32.246 178.936 32.2998 178.817C32.4159 178.479 32.6001 178.168 32.841 177.903C32.9985 177.693 33.2202 177.541 33.4724 177.469C33.5582 177.455 33.6463 177.467 33.7253 177.503C33.8042 177.54 33.8704 177.599 33.9152 177.674C33.9905 177.826 34.0066 178.002 33.9603 178.166C33.8551 178.494 33.639 178.776 33.3488 178.963C33.0586 179.15 32.7124 179.231 32.3695 179.191C32.0313 179.142 31.715 178.995 31.4604 178.768C31.2058 178.54 31.0242 178.242 30.9386 177.911C30.9189 177.827 30.9171 177.74 30.9334 177.655C30.9496 177.571 30.9835 177.49 31.0329 177.419C31.0895 177.353 31.1658 177.307 31.2505 177.287C31.3353 177.267 31.4242 177.275 31.5044 177.309C31.7361 177.424 31.9339 177.598 32.0784 177.813C32.2957 178.097 32.4609 178.418 32.5663 178.76C32.6162 178.882 32.64 179.014 32.636 179.145C32.4707 178.703 32.2399 178.289 31.9513 177.915C31.8169 177.74 31.6426 177.6 31.4429 177.505C31.399 177.486 31.3501 177.482 31.3035 177.493C31.2569 177.504 31.2152 177.53 31.1846 177.567C31.1559 177.615 31.1375 177.669 31.1304 177.725C31.1234 177.78 31.1279 177.837 31.1436 177.891C31.2291 178.169 31.3915 178.418 31.612 178.608C31.8325 178.798 32.1021 178.922 32.39 178.965C32.68 178.999 32.9728 178.933 33.2208 178.779C33.4687 178.625 33.6571 178.391 33.7553 178.116C33.795 178.005 33.795 177.883 33.7553 177.772C33.732 177.73 33.6962 177.696 33.6528 177.676C33.6094 177.655 33.5606 177.649 33.5134 177.657C33.2997 177.716 33.1093 177.839 32.9681 178.01C32.6536 178.36 32.3999 178.761 32.2178 179.195Z" fill="#263238"/>
<g opacity="0.3">
<path d="M32.1193 173.606L31.6396 175.902L38.8925 177.108L39.4993 175.103L32.3776 172.52L32.1193 173.606Z" fill="black"/>
</g>
<path d="M64.78 176.226L64.1814 184.229C64.1814 184.229 72.119 187.509 72.1518 189.018L56.5718 188.416L56.9818 175.902L64.78 176.226Z" fill="#407BFF"/>
<g opacity="0.6">
<path d="M59.4049 183.369C59.2537 183.409 59.1226 183.504 59.0364 183.634C58.9503 183.765 58.9151 183.923 58.9375 184.078C58.972 184.23 59.0633 184.364 59.1927 184.451C59.3222 184.539 59.4801 184.574 59.6345 184.549C59.7953 184.507 59.9346 184.406 60.0255 184.267C60.1163 184.127 60.1523 183.959 60.1265 183.795C60.0747 183.639 59.9647 183.51 59.8195 183.433C59.6743 183.357 59.5052 183.34 59.3475 183.385" fill="white"/>
</g>
<g opacity="0.6">
<path d="M56.58 188.416L56.6702 187.153L71.5737 188.19C71.5737 188.19 72.2584 188.518 72.16 189.01L56.58 188.416Z" fill="white"/>
</g>
<path d="M64.4438 184.16C64.4438 184.238 64.0584 184.258 63.6771 184.488C63.2958 184.717 63.0826 185.029 63.0129 184.996C62.9432 184.963 63.0744 184.529 63.5418 184.258C64.0092 183.988 64.4643 184.09 64.4438 184.16Z" fill="#263238"/>
<path d="M66.051 184.91C66.051 184.988 65.7312 185.103 65.4606 185.414C65.19 185.726 65.1039 186.062 65.026 186.058C64.9481 186.054 64.9194 185.619 65.2638 185.238C65.6082 184.857 66.051 184.828 66.051 184.91Z" fill="#263238"/>
<path d="M66.9038 186.89C66.8341 186.89 66.7439 186.517 66.953 186.111C67.1621 185.706 67.527 185.55 67.5557 185.615C67.5844 185.681 67.3589 185.894 67.1908 186.23C67.0227 186.567 66.9776 186.886 66.9038 186.89Z" fill="#263238"/>
<path d="M64.37 182.323C64.3372 182.388 63.9928 182.27 63.55 182.282C63.1072 182.294 62.7792 182.417 62.73 182.352C62.6808 182.286 63.0252 182.028 63.55 182.019C64.0748 182.011 64.4192 182.265 64.37 182.323Z" fill="#263238"/>
<g opacity="0.3">
<path d="M64.6693 177.813L64.5627 179.24L56.9162 178.871L56.9695 177.223L64.6693 177.813Z" fill="black"/>
</g>
<path d="M64.4725 180.703C64.2149 180.766 63.9449 180.754 63.6935 180.671C63.4092 180.612 63.1337 180.516 62.8735 180.388C62.7217 180.313 62.5751 180.228 62.4348 180.133C62.3492 180.081 62.2718 180.016 62.2052 179.941C62.16 179.882 62.1354 179.81 62.1354 179.736C62.1354 179.662 62.16 179.59 62.2052 179.531C62.245 179.479 62.2967 179.437 62.3559 179.41C62.4151 179.382 62.4801 179.368 62.5455 179.371C62.6442 179.375 62.742 179.391 62.8366 179.42C63.0006 179.468 63.1599 179.531 63.3122 179.609C63.5711 179.735 63.8078 179.903 64.0133 180.105C64.3618 180.453 64.4725 180.744 64.4479 180.757C64.4233 180.769 64.247 180.535 63.8903 180.244C63.6809 180.08 63.4523 179.943 63.2097 179.834C63.065 179.774 62.9172 179.722 62.7669 179.678C62.6029 179.629 62.4635 179.625 62.4184 179.678C62.3733 179.732 62.4184 179.719 62.4184 179.769C62.4675 179.823 62.5241 179.87 62.5865 179.908C62.718 180 62.8549 180.083 62.9965 180.158C63.2329 180.288 63.4814 180.396 63.7386 180.478C63.9883 180.536 64.2335 180.611 64.4725 180.703Z" fill="#263238"/>
<path d="M64.37 180.81C64.2337 180.58 64.1721 180.314 64.1937 180.048C64.1953 179.759 64.2423 179.473 64.3331 179.199C64.3919 179.038 64.4646 178.883 64.5504 178.736C64.5964 178.634 64.6677 178.546 64.7574 178.48C64.8472 178.414 64.9523 178.372 65.0629 178.358C65.1329 178.363 65.2001 178.387 65.2568 178.429C65.3134 178.47 65.3571 178.527 65.3827 178.592C65.4183 178.684 65.4404 178.781 65.4483 178.879C65.4752 179.053 65.4752 179.23 65.4483 179.404C65.3934 179.694 65.2681 179.965 65.0834 180.195C64.7636 180.605 64.4438 180.667 64.4356 180.642C64.4274 180.618 64.6815 180.466 64.9316 180.085C65.0752 179.867 65.169 179.621 65.2063 179.363C65.2271 179.213 65.2271 179.062 65.2063 178.912C65.1858 178.748 65.1285 178.609 65.067 178.625C65.0055 178.641 64.8537 178.74 64.784 178.871C64.704 179.002 64.6341 179.139 64.575 179.281C64.48 179.528 64.4194 179.788 64.3946 180.052C64.3413 180.511 64.411 180.81 64.37 180.81Z" fill="#263238"/>
<path d="M48.6752 89.9131C48.6752 89.9131 46.2152 90.0238 44.5752 98.437C42.9352 106.85 30.4343 175.021 30.4343 175.021L39.4994 175.103L56.58 110.29L55.4443 177.12L64.6529 177.825C64.6529 177.825 71.5614 103.906 71.6229 99.6055C71.7049 94.2427 68.6258 88.8184 68.6258 88.8184L48.6752 89.9131Z" fill="#263238"/>
<path d="M61.1351 89.1956C61.1925 89.1956 60.2495 94.0131 59.0318 99.9294C57.8141 105.846 56.7809 110.634 56.7235 110.622C56.6661 110.61 57.605 105.805 58.8227 99.8884C60.0404 93.9721 61.09 89.1833 61.1351 89.1956Z" fill="#455A64"/>
<path d="M62.5455 90.3968C62.5455 90.3722 62.7915 90.2984 63.0744 90.5485C63.1548 90.6214 63.2184 90.7108 63.2608 90.8106C63.3033 90.9104 63.3236 91.0182 63.3204 91.1266C63.3101 91.2637 63.2611 91.3951 63.1791 91.5054C63.0971 91.6157 62.9854 91.7005 62.8571 91.7498C62.7319 91.8066 62.5933 91.8272 62.457 91.809C62.3207 91.7909 62.1923 91.7349 62.0863 91.6473C62.007 91.573 61.9444 91.4826 61.9027 91.3822C61.861 91.2819 61.8411 91.1738 61.8444 91.0651C61.8444 90.6879 62.0986 90.5567 62.1027 90.5813C62.0336 90.7319 61.9972 90.8954 61.9961 91.061C62.0016 91.1443 62.0236 91.2256 62.061 91.3002C62.0983 91.3748 62.1501 91.4413 62.2134 91.4956C62.2943 91.5514 62.3879 91.5859 62.4856 91.5961C62.5834 91.6062 62.6821 91.5916 62.7727 91.5537C62.8633 91.5157 62.9429 91.4556 63.0042 91.3788C63.0656 91.302 63.1066 91.2111 63.1236 91.1143C63.1296 91.0313 63.119 90.9478 63.0922 90.8689C63.0654 90.7901 63.0231 90.7174 62.9678 90.6551C62.7669 90.4214 62.5414 90.4296 62.5455 90.3968Z" fill="#455A64"/>
<path d="M62.156 93.726C62.156 93.7014 62.4102 93.726 62.566 94.0663C62.6056 94.1634 62.6236 94.268 62.6186 94.3728C62.6136 94.4776 62.5859 94.5801 62.5373 94.6731C62.4668 94.7836 62.3675 94.8728 62.2501 94.9312C62.1327 94.9895 62.0016 95.0147 61.871 95.0042C61.7403 94.9937 61.6149 94.9477 61.5084 94.8713C61.4019 94.7949 61.3182 94.691 61.2663 94.5706C61.2335 94.4717 61.2228 94.367 61.2348 94.2635C61.2469 94.1601 61.2814 94.0606 61.336 93.972C61.5287 93.6645 61.7911 93.6727 61.7829 93.6973C61.7747 93.7219 61.5861 93.7793 61.4672 94.0417C61.407 94.1888 61.407 94.3537 61.4672 94.5009C61.51 94.5822 61.5727 94.6514 61.6494 94.7021C61.7261 94.7527 61.8144 94.7831 61.9061 94.7905C61.9977 94.7979 62.0897 94.7819 62.1736 94.7442C62.2574 94.7065 62.3303 94.6481 62.3856 94.5747C62.4628 94.4345 62.482 94.2696 62.4389 94.1155C62.32 93.8367 62.1355 93.7547 62.156 93.726Z" fill="#455A64"/>
<path d="M53.4681 90.4789C53.4512 90.6198 53.4154 90.7577 53.3615 90.8889C53.2334 91.2643 53.0729 91.6279 52.8818 91.9755C52.2562 93.1353 51.3527 94.1218 50.2522 94.8467C49.1517 95.5715 47.8886 96.012 46.576 96.1288C46.1818 96.1631 45.7853 96.1631 45.3911 96.1288C45.2522 96.1243 45.1144 96.1023 44.9811 96.0632C44.9811 96.0222 45.6002 96.0919 46.5801 95.9689C47.8572 95.8139 49.081 95.3648 50.1552 94.6569C51.2294 93.9491 52.1248 93.0017 52.7711 91.8893C53.2508 91.0611 53.4312 90.4666 53.4681 90.4789Z" fill="#455A64"/>
<path d="M71.1063 96.4608C71.1063 96.4608 70.9997 96.4116 70.8316 96.2968C70.5967 96.1278 70.3772 95.9385 70.1756 95.731C69.5013 95.0484 68.9752 94.234 68.6302 93.3388C68.2852 92.4435 68.1288 91.4866 68.1707 90.5281C68.1801 90.2396 68.2172 89.9526 68.2814 89.6712C68.3265 89.4703 68.3552 89.3637 68.3716 89.3678C68.388 89.3719 68.3224 89.8147 68.3224 90.5322C68.3231 92.4156 69.0229 94.2317 70.2863 95.6285C70.766 96.1574 71.1268 96.428 71.1063 96.4608Z" fill="#455A64"/>
<path d="M102.91 96.6987C103.045 96.3707 103.008 96.5019 100.835 95.0587C100.835 95.0587 103.951 97.1087 103.628 96.1329C103.347 95.7632 103.005 95.4455 102.615 95.194C103.435 95.6778 103.91 95.7311 104.054 95.5343C104.3 95.194 102.516 93.8943 101.668 93.308C102.444 93.863 103.257 94.3631 104.103 94.8045C104.607 94.9603 104.366 94.3699 104.025 93.9394C103.685 93.5089 101.045 90.9669 100.335 90.2084C100.268 90.1506 100.213 90.0789 100.176 89.9983C100.139 89.9176 100.12 89.8298 100.12 89.741C100.12 89.6521 100.139 89.5643 100.176 89.4837C100.213 89.403 100.268 89.3313 100.335 89.2736C101.606 88.4536 102.164 87.1457 102.147 86.7152C102.133 86.6182 102.089 86.5283 102.02 86.4582C101.952 86.3881 101.863 86.3415 101.766 86.3251C101.67 86.3087 101.571 86.3234 101.483 86.3669C101.395 86.4105 101.324 86.4807 101.278 86.5676C100.957 86.9663 100.583 87.3195 100.167 87.6172C99.8442 87.869 99.481 88.0645 99.0929 88.1953C98.6419 88.3429 96.4238 88.2199 95.9482 87.978L94.4353 93.1071C94.4353 93.1071 99.9252 95.6737 100.967 96.1739C102.246 96.7807 102.816 96.9488 102.91 96.6987Z" fill="#FFBE9D"/>
<path d="M99.8472 94.3002C99.8021 94.3617 100.516 94.8824 101.438 95.4687C102.361 96.055 103.135 96.4773 103.172 96.4158C103.209 96.3543 102.496 95.8295 101.577 95.2473C100.659 94.6651 99.8882 94.2223 99.8472 94.3002Z" fill="#EB996E"/>
<path d="M100.364 93.2955C100.323 93.357 101.053 93.9556 102.004 94.6362C102.955 95.3168 103.742 95.8211 103.783 95.7637C103.824 95.7063 103.099 95.1036 102.143 94.423C101.188 93.7424 100.409 93.2381 100.364 93.2955Z" fill="#EB996E"/>
<path d="M100.909 92.2788C100.868 92.3362 101.549 92.9184 102.43 93.5744C103.312 94.2304 104.07 94.7142 104.103 94.6568C104.136 94.5994 103.468 94.0172 102.586 93.3612C101.705 92.7052 100.954 92.2214 100.909 92.2788Z" fill="#EB996E"/>
<path d="M45.0713 73.7017L49.0975 73.9232C49.3827 75.0471 49.764 76.1445 50.2373 77.2032C53.4804 71.578 55.9773 64.0381 56.6169 61.0082C56.5267 60.7102 56.416 60.374 56.2848 59.9996C56.1865 59.4335 56.2033 58.8534 56.334 58.2939C56.4447 57.6216 56.6333 56.7114 56.6866 56.2932C56.8629 55.014 57.0679 54.809 57.5066 54.9566C58.1134 55.1534 57.2565 58.5523 57.7526 58.6261C58.0232 58.663 58.3471 57.4986 58.4455 56.5433C58.5439 55.588 58.9703 52.6524 59.286 52.4433C59.7493 52.1563 60.1511 52.6114 60.0363 53.5626C59.9215 54.5138 59.7698 57.3961 60.2741 57.433C60.7784 57.4699 61.1884 52.5991 61.1884 52.5991C61.1884 52.5991 61.1105 51.5413 61.6927 51.5659C62.7464 51.611 61.9264 56.7483 61.8362 57.2362C61.7706 57.5724 62.32 57.6462 62.3692 57.269C62.4184 56.8918 62.6726 52.3941 63.7427 52.431C64.5627 52.4597 63.1072 56.6622 63.5705 57.638C64.0338 58.6138 64.3536 54.3293 65.1408 54.3867C65.4319 54.4113 65.6492 54.4687 65.1121 56.8918C64.5879 58.8186 63.9597 60.7155 63.2302 62.5744C62.0002 69.2983 56.5103 90.807 47.9331 86.871C43.1361 84.6693 40.8934 73.751 40.8934 73.751L45.0713 73.7017Z" fill="#FFBE9D"/>
<path d="M63.2384 62.6111C63.2454 62.5603 63.2592 62.5106 63.2794 62.4635C63.3163 62.3569 63.3614 62.2175 63.4229 62.0535C63.5582 61.664 63.7427 61.1228 63.9846 60.4135C64.2265 59.7042 64.5176 58.8432 64.8046 57.8264C64.9522 57.3221 65.0752 56.7727 65.1859 56.1864C65.2433 55.8912 65.2966 55.5878 65.3335 55.2762C65.3437 55.1219 65.3437 54.9671 65.3335 54.8129C65.3335 54.653 65.2966 54.5218 65.1695 54.5177C65.0424 54.5136 64.9522 54.5915 64.862 54.7268C64.7803 54.8715 64.713 55.024 64.6611 55.1819C64.5463 55.5058 64.4561 55.8502 64.3659 56.1987C64.2757 56.5472 64.1937 56.9121 64.0871 57.2811C64.0406 57.4832 63.9572 57.675 63.8411 57.8469C63.8119 57.8805 63.7733 57.9048 63.7304 57.9166C63.7033 57.9225 63.6752 57.9223 63.6483 57.9159C63.6213 57.9095 63.5961 57.8971 63.5746 57.8797C63.5274 57.8365 63.4886 57.7851 63.4598 57.728C63.4165 57.6273 63.3875 57.521 63.3737 57.4123C63.355 56.5853 63.4376 55.7592 63.6197 54.9523C63.6894 54.5423 63.7632 54.1323 63.8165 53.7223C63.8411 53.5132 63.8657 53.3123 63.8698 53.0909C63.8739 52.8695 63.8411 52.6358 63.755 52.5989C63.6689 52.562 63.4598 52.6768 63.345 52.849C63.2316 53.0309 63.1421 53.2265 63.0785 53.4312C62.9387 53.8595 62.8331 54.2982 62.7628 54.7432C62.6849 55.1942 62.6234 55.6534 62.5701 56.1208C62.5496 56.3545 62.525 56.5882 62.5045 56.826L62.4717 57.1827C62.476 57.2588 62.4636 57.3351 62.4353 57.4059C62.4069 57.4768 62.3634 57.5405 62.3077 57.5927C62.2375 57.644 62.1527 57.6716 62.0658 57.6716C61.9788 57.6716 61.8941 57.644 61.8239 57.5927C61.7841 57.5664 61.7504 57.532 61.7249 57.4917C61.6995 57.4514 61.6829 57.4062 61.6763 57.359C61.67 57.3155 61.67 57.2713 61.6763 57.2278V57.1417L61.787 56.4242C61.8567 55.9404 61.9141 55.4566 61.9592 54.9646C62.0043 54.4726 62.0412 53.9765 62.0494 53.4804C62.0734 52.9892 62.0236 52.4972 61.9018 52.0208C61.8735 51.8999 61.8002 51.7943 61.6968 51.7256C61.6473 51.7097 61.5941 51.7098 61.5448 51.726C61.4954 51.7423 61.4525 51.7737 61.4221 51.8158C61.2893 52.0585 61.2349 52.3363 61.2663 52.6112C61.1761 53.5747 61.0736 54.5218 60.9342 55.4525C60.8645 55.9158 60.7866 56.3791 60.6718 56.8342C60.639 56.9449 60.6062 57.0597 60.5652 57.1745C60.5262 57.3136 60.4444 57.437 60.3315 57.5271C60.2815 57.5516 60.2247 57.5585 60.1704 57.5466C60.116 57.5346 60.0673 57.5046 60.0322 57.4615C59.9821 57.4089 59.9443 57.3459 59.9215 57.277C59.8772 57.1632 59.8456 57.045 59.8272 56.9244C59.7311 56.0322 59.7228 55.1327 59.8026 54.2389C59.8632 53.8222 59.8865 53.401 59.8723 52.9802C59.859 52.8006 59.7767 52.6331 59.6427 52.5128C59.6112 52.4932 59.5761 52.4802 59.5394 52.4746C59.5028 52.4689 59.4654 52.4708 59.4295 52.48C59.3911 52.4929 59.3541 52.5094 59.3188 52.5292C59.2819 52.562 59.286 52.5292 59.2614 52.5989C59.1131 52.9676 59.0045 53.351 58.9375 53.7428C58.8555 54.1528 58.7858 54.5259 58.7243 54.9113C58.6628 55.2967 58.6054 55.6739 58.5562 56.0511C58.507 56.4283 58.4824 56.7973 58.4086 57.1663C58.3449 57.5268 58.2488 57.8808 58.1216 58.2241C58.0878 58.3114 58.0481 58.3963 58.0027 58.4783C57.9453 58.5562 57.9125 58.6546 57.7567 58.7038C57.7168 58.7111 57.6757 58.7064 57.6384 58.6904C57.6012 58.6743 57.5696 58.6476 57.5476 58.6136C57.5189 58.5662 57.4968 58.5152 57.482 58.4619C57.4635 58.3727 57.4526 58.2822 57.4492 58.1913C57.4492 57.4902 57.5435 56.8506 57.5804 56.2315C57.6071 55.9355 57.6071 55.6377 57.5804 55.3418C57.5804 55.2106 57.5189 55.0548 57.4451 55.0261C57.3934 55.0007 57.3366 54.9875 57.279 54.9875C57.2215 54.9875 57.1647 55.0007 57.113 55.0261C56.9409 55.2109 56.8343 55.4471 56.8096 55.6985C56.7481 55.9486 56.7235 56.2028 56.6784 56.4447C56.5062 57.4123 56.3258 58.2487 56.2397 58.9293C56.1993 59.2286 56.1993 59.532 56.2397 59.8313C56.2971 60.0773 56.3832 60.2987 56.4283 60.4709C56.4734 60.6431 56.5185 60.7661 56.5472 60.8809C56.5624 60.9248 56.5734 60.9701 56.58 61.0162C56.5554 60.9765 56.5361 60.9337 56.5226 60.8891L56.3832 60.4791C56.3258 60.3028 56.2397 60.106 56.17 59.8354C56.1261 59.5281 56.1261 59.2161 56.17 58.9088C56.2479 58.2159 56.4119 57.3877 56.58 56.416C56.6251 56.1741 56.6497 55.9199 56.703 55.6575C56.7323 55.5189 56.7693 55.382 56.8137 55.2475C56.8547 55.0983 56.9441 54.9671 57.0679 54.8744C57.1424 54.8349 57.2254 54.8142 57.3098 54.8142C57.3941 54.8142 57.4772 54.8349 57.5517 54.8744C57.6318 54.9249 57.6977 54.9952 57.7429 55.0784C57.7881 55.1617 57.8112 55.2552 57.81 55.35C57.8387 55.6582 57.8387 55.9684 57.81 56.2766C57.7813 56.8998 57.6829 57.5517 57.6993 58.2159C57.7023 58.2944 57.7119 58.3726 57.728 58.4496C57.728 58.5275 57.7854 58.5603 57.7772 58.5439C57.769 58.5275 57.8551 58.4783 57.8879 58.4127C57.9283 58.3399 57.9639 58.2646 57.9945 58.1872C58.1159 57.8548 58.2052 57.5116 58.261 57.1622C58.3307 56.8055 58.3553 56.4365 58.4045 56.0552C58.4537 55.6739 58.5029 55.2967 58.5644 54.9072C58.6259 54.5177 58.6956 54.1282 58.7735 53.7305C58.8401 53.3151 58.9557 52.9091 59.1179 52.521C59.1506 52.4559 59.2002 52.4007 59.2614 52.3611C59.3158 52.3312 59.3736 52.3078 59.4336 52.2914C59.5023 52.2717 59.5745 52.267 59.6452 52.2776C59.716 52.2882 59.7836 52.3139 59.8436 52.3529C59.9387 52.4284 60.0173 52.5227 60.0744 52.6299C60.1316 52.7371 60.166 52.855 60.1757 52.9761C60.2064 53.1991 60.2064 53.4254 60.1757 53.6485C60.1552 53.8576 60.1347 54.0585 60.1224 54.2881C60.0425 55.1613 60.0507 56.0404 60.147 56.9121C60.1645 57.0156 60.192 57.1172 60.229 57.2155C60.2413 57.2551 60.2623 57.2916 60.2905 57.3221C60.2905 57.3221 60.2905 57.3221 60.311 57.3221C60.311 57.4164 60.311 57.3221 60.311 57.359C60.311 57.3959 60.311 57.359 60.311 57.3262C60.3621 57.2577 60.4022 57.1816 60.4299 57.1007C60.4681 56.9995 60.5009 56.8929 60.5283 56.7809C60.639 56.3463 60.7128 55.8871 60.7825 55.4279C60.9219 54.5054 61.0244 53.5583 61.1105 52.5989V52.6194C61.074 52.2814 61.1473 51.9407 61.3196 51.6477C61.3853 51.5639 61.4755 51.5027 61.5777 51.4726C61.6798 51.4425 61.7888 51.4449 61.8895 51.4796C61.9755 51.5273 62.051 51.5918 62.1116 51.6693C62.1721 51.7467 62.2165 51.8356 62.2421 51.9306C62.3734 52.4347 62.4273 52.9559 62.402 53.4763C62.402 53.9847 62.3569 54.4849 62.3118 54.981C62.2667 55.4771 62.2052 55.965 62.1355 56.4488C62.0986 56.6948 62.0617 56.9326 62.0248 57.1745C61.992 57.3262 62.0002 57.3303 62.0248 57.3754C62.0532 57.3946 62.0868 57.4048 62.1211 57.4048C62.1555 57.4048 62.189 57.3946 62.2175 57.3754C62.2667 57.3385 62.2749 57.2688 62.2872 57.1335L62.3159 56.7768L62.3897 56.0675C62.4389 55.6001 62.5045 55.1327 62.5824 54.6776C62.6582 54.2204 62.7679 53.7696 62.9104 53.3287C62.9848 53.1058 63.0853 52.8925 63.2097 52.6932C63.2774 52.5857 63.3668 52.4936 63.4721 52.4226C63.5305 52.3803 63.5982 52.3526 63.6696 52.3419C63.7409 52.3312 63.8138 52.3378 63.8821 52.3611C63.9449 52.3998 63.9979 52.4525 64.037 52.5151C64.0761 52.5777 64.1003 52.6484 64.1076 52.7219C64.1245 52.8372 64.1313 52.9538 64.1281 53.0704C64.1281 53.2959 64.0994 53.5132 64.0748 53.7305C64.0174 54.1405 63.9395 54.5751 63.8657 54.9892C63.6896 55.768 63.6043 56.5646 63.6115 57.3631C63.623 57.4488 63.6451 57.5328 63.6771 57.6132C63.6919 57.6423 63.7098 57.6698 63.7304 57.6952C63.7304 57.6952 63.7304 57.6952 63.7304 57.6665C63.8224 57.5183 63.8902 57.3563 63.9313 57.1868C64.0379 56.8301 64.124 56.4693 64.2183 56.1167C64.3028 55.7658 64.4055 55.4196 64.5258 55.0794C64.5826 54.9108 64.6568 54.7487 64.7472 54.5956C64.7961 54.5121 64.86 54.4384 64.9358 54.3783C64.977 54.3425 65.0262 54.3172 65.0793 54.3045C65.1322 54.2962 65.1862 54.2962 65.2392 54.3045C65.2951 54.3101 65.3486 54.3305 65.394 54.3636C65.4394 54.3968 65.4751 54.4415 65.4975 54.4931C65.5317 54.5792 65.5498 54.671 65.5508 54.7637C65.554 54.9295 65.5444 55.0954 65.5221 55.2598C65.4852 55.5796 65.4237 55.883 65.3663 56.1823C65.2474 56.7686 65.1162 57.3262 64.9563 57.8223C64.6488 58.8391 64.3413 59.7001 64.0912 60.4012C63.8411 61.1023 63.6279 61.6312 63.4844 62.0084C63.4147 62.1806 63.3573 62.3159 63.3163 62.4184C63.2979 62.4854 63.2718 62.5501 63.2384 62.6111Z" fill="#EB996E"/>
<path d="M40.8565 74.165C41.6355 76.9161 43.1607 81.1596 44.7966 85.645C44.8482 85.7896 44.9415 85.9155 45.0647 86.0069C45.1879 86.0984 45.3355 86.1512 45.4887 86.1586C45.642 86.1661 45.794 86.1279 45.9255 86.0489C46.057 85.9698 46.1621 85.8536 46.2275 85.7147L50.2373 77.2318C50.2373 77.2318 49.2697 70.2618 49.3517 70.5119C49.4337 70.762 41.0779 71.4139 41.0779 71.4139L40.8565 74.165Z" fill="#407BFF"/>
<path d="M49.8929 72.7997C49.8929 72.8325 49.3927 72.9801 48.6014 73.2835C47.5672 73.6761 46.5709 74.1619 45.6248 74.7349C44.6799 75.3107 43.7881 75.9692 42.9598 76.7029C42.3243 77.2646 41.9594 77.65 41.9348 77.6254C41.9102 77.6008 42.0045 77.5106 42.1603 77.3261C42.3799 77.0697 42.6126 76.8248 42.8573 76.5922C43.6655 75.814 44.5564 75.1266 45.5141 74.5422C46.4721 73.965 47.4893 73.4921 48.5481 73.1318C48.8682 73.0216 49.1939 72.9285 49.5239 72.853C49.6433 72.8157 49.7678 72.7977 49.8929 72.7997Z" fill="#FAFAFA"/>
<path d="M51.4837 74.9154C51.2232 74.6527 50.9972 74.3579 50.8113 74.038C50.3325 73.2915 49.9209 72.5039 49.5813 71.6846C49.2415 70.8628 48.9766 70.012 48.79 69.1426C48.6944 68.787 48.6462 68.4203 48.6465 68.052C48.7688 68.3958 48.866 68.7479 48.9376 69.1057C49.1572 69.9547 49.4311 70.7887 49.7576 71.6026C50.0987 72.4122 50.4903 73.1996 50.9302 73.9601C51.1349 74.2664 51.3198 74.5855 51.4837 74.9154Z" fill="#263238"/>
<path d="M54.1569 37.3511C53.4613 38.4975 53.0301 39.7846 52.8947 41.1187C52.7592 42.4528 52.9229 43.8003 53.3738 45.0632C53.7838 46.1907 54.4398 47.3018 54.3209 48.499C54.202 49.6962 53.2672 50.8811 53.5952 52.0619C53.792 52.763 54.3906 53.2919 54.6243 53.9725C54.8908 54.7925 54.6243 55.6576 54.4808 56.4981C54.1528 58.6465 54.8416 60.8072 55.0097 62.972C55.1778 65.1368 54.5997 67.6747 52.6645 68.6177C52.0782 68.9047 51.3115 68.9867 50.8236 68.548C50.2004 67.9945 50.3726 66.9941 50.5448 66.1741C52.2422 57.9741 46.9983 49.9709 48.1955 41.6725C48.3882 40.3441 49.1303 38.0891 50.0856 37.1625C51.0409 36.2359 53.6936 36.3425 54.5956 37.3265" fill="#263238"/>
<path d="M46.0799 61.1393C46.0799 61.1393 46.33 60.8441 46.699 60.2619C47.2168 59.4396 47.5795 58.5294 47.7691 57.5764C47.8928 56.9199 47.9355 56.2507 47.8962 55.5838C47.8245 54.8083 47.7957 54.0295 47.8101 53.2509C47.8346 52.8245 47.9131 52.4029 48.0438 51.9963C48.1936 51.5774 48.3831 51.1738 48.6096 50.7909C49.0688 50.016 49.6469 49.2944 50.1799 48.5236C50.7272 47.7951 51.1079 46.9553 51.2951 46.0636C51.386 45.2236 51.3375 44.3744 51.1516 43.5503C50.9965 42.7843 50.9359 42.0022 50.9712 41.2215C51.02 40.5395 51.1578 39.8669 51.3812 39.2207C51.6944 38.283 52.1874 37.4154 52.8326 36.6664C53.004 36.4627 53.1904 36.2722 53.3902 36.0965C53.4536 36.029 53.5252 35.9697 53.6034 35.9202C53.6034 35.9202 53.3287 36.1867 52.8941 36.7402C51.859 38.025 51.2537 39.6027 51.1639 41.2502C51.1364 42.0181 51.2039 42.7865 51.3648 43.538C51.5604 44.3843 51.613 45.2573 51.5206 46.121C51.3262 47.0376 50.9345 47.9008 50.3726 48.6507C49.8355 49.4338 49.2574 50.1513 48.8064 50.9057C48.5846 51.2743 48.4005 51.6644 48.257 52.0701C48.1273 52.4601 48.0487 52.8653 48.0233 53.2755C48.0052 54.0455 48.0271 54.816 48.0889 55.5838C48.1215 56.2641 48.0691 56.9459 47.9331 57.6133C47.7276 58.5793 47.3379 59.4967 46.7851 60.3152C46.6354 60.5364 46.4711 60.7474 46.2931 60.9466C46.2293 61.0184 46.1578 61.083 46.0799 61.1393Z" fill="#455A64"/>
<path d="M42.1931 61.7502C42.2261 61.6546 42.2687 61.5625 42.3202 61.4755C42.4227 61.2828 42.5539 61.0286 42.7302 60.7088C43.0746 60.0405 43.5871 59.0688 44.0914 57.8388C44.7082 56.4022 45.0503 54.8627 45.1 53.3001C45.1002 52.8498 45.0659 52.4003 44.9975 51.9553C44.9278 51.4961 44.8212 51.0328 44.7515 50.549C44.6662 50.0485 44.6773 49.5364 44.7843 49.0402C44.9229 48.5307 45.208 48.0731 45.6043 47.7241C46.3751 47.023 47.3058 46.5638 47.7896 45.7397C48.2087 44.9225 48.4557 44.028 48.5153 43.1116C48.602 42.2714 48.7921 41.4452 49.0811 40.6516C49.7309 38.9478 50.8889 37.485 52.398 36.4614C52.6385 36.2994 52.8891 36.1529 53.1483 36.0227C53.2357 35.9703 53.3294 35.9289 53.4271 35.8997C53.4271 35.8997 53.0581 36.0965 52.4472 36.5311C51.5861 37.1455 50.8407 37.9076 50.2455 38.782C49.8326 39.3813 49.4966 40.0301 49.2451 40.7131C48.9688 41.5085 48.7898 42.3346 48.7121 43.1731C48.5891 44.0464 48.4907 45.0222 47.9659 45.8873C47.4411 46.7524 46.4817 47.2444 45.7478 47.9373C45.3737 48.2618 45.1041 48.6898 44.9729 49.1673C44.8732 49.6368 44.8634 50.1209 44.9442 50.5941C45.0098 51.0656 45.1123 51.533 45.182 51.9963C45.2529 52.4519 45.2858 52.9127 45.2804 53.3739C45.2246 54.9651 44.8642 56.5309 44.2185 57.9864C43.799 58.9699 43.3226 59.9282 42.7917 60.8564L42.3571 61.5001C42.3114 61.589 42.2564 61.6728 42.1931 61.7502Z" fill="#455A64"/>
<path d="M177.846 177.604C177.865 177.544 177.889 177.486 177.919 177.432C177.977 177.309 178.055 177.145 178.149 176.935C178.434 176.295 178.663 175.631 178.834 174.951C179.285 173.188 179.445 170.494 178.776 167.296C178.413 165.552 177.938 163.834 177.354 162.151C176.755 160.326 176.054 158.391 175.484 156.296C174.841 154.111 174.53 151.841 174.562 149.564C174.648 147.182 175.353 144.808 176.128 142.438C176.903 140.068 177.702 137.76 177.94 135.423C178.204 133.182 177.754 130.915 176.653 128.945C175.628 127.055 174.336 125.435 173.373 123.763C172.471 122.208 171.806 120.528 171.4 118.777C170.819 116.242 170.775 113.613 171.273 111.061C171.455 110.127 171.73 109.213 172.093 108.334C172.082 108.396 172.066 108.456 172.044 108.515L171.88 109.035C171.741 109.495 171.556 110.183 171.38 111.085C170.922 113.626 170.99 116.235 171.581 118.748C171.992 120.478 172.66 122.136 173.561 123.668C174.525 125.308 175.82 126.948 176.87 128.847C177.998 130.856 178.461 133.171 178.194 135.46C177.952 137.83 177.149 140.163 176.374 142.528C175.599 144.894 174.902 147.243 174.816 149.584C174.779 151.839 175.083 154.087 175.718 156.251C176.279 158.334 176.968 160.269 177.563 162.102C178.142 163.794 178.607 165.522 178.957 167.276C179.609 170.498 179.424 173.221 178.957 174.988C178.774 175.669 178.528 176.332 178.223 176.968L177.969 177.456C177.933 177.51 177.892 177.559 177.846 177.604Z" fill="#263238"/>
<path d="M174.685 125.415C174.685 125.415 172.725 119.138 176.243 115.464C176.27 115.435 176.305 115.413 176.344 115.402C176.382 115.391 176.423 115.392 176.462 115.403C176.501 115.414 176.535 115.435 176.563 115.465C176.59 115.495 176.608 115.531 176.616 115.571C176.804 116.608 177.038 119.765 174.685 125.415Z" fill="#407BFF"/>
<path d="M175.861 117.555C175.855 117.944 175.811 118.331 175.73 118.711C175.599 119.511 175.447 120.446 175.283 121.479C175.119 122.512 174.967 123.451 174.84 124.246C174.805 124.634 174.736 125.018 174.635 125.394C174.597 125.007 174.605 124.616 174.66 124.23C174.726 123.512 174.853 122.528 175.029 121.446C175.205 120.364 175.398 119.396 175.55 118.687C175.609 118.299 175.714 117.919 175.861 117.555Z" fill="#263238"/>
<path d="M176.989 140.22C176.989 140.22 178.19 133.754 183.02 132.155C183.058 132.142 183.099 132.139 183.138 132.148C183.178 132.157 183.214 132.176 183.243 132.204C183.272 132.233 183.292 132.268 183.302 132.307C183.312 132.346 183.311 132.387 183.299 132.426C182.979 133.422 181.712 136.321 176.989 140.22Z" fill="#407BFF"/>
<path d="M181.704 133.816C181.517 134.157 181.297 134.48 181.048 134.779L179.354 137.014L177.673 139.256C177.462 139.582 177.222 139.888 176.956 140.171C177.106 139.81 177.298 139.468 177.53 139.154C177.94 138.551 178.498 137.739 179.17 136.866C179.842 135.993 180.453 135.226 180.917 134.668C181.147 134.356 181.411 134.07 181.704 133.816Z" fill="#263238"/>
<path d="M175.685 156.427C175.685 156.427 174.955 149.892 179.113 146.96C179.145 146.935 179.183 146.92 179.224 146.916C179.264 146.912 179.305 146.92 179.341 146.938C179.377 146.957 179.407 146.985 179.428 147.021C179.448 147.056 179.459 147.096 179.457 147.137C179.445 148.19 179.072 151.331 175.685 156.427Z" fill="#407BFF"/>
<path d="M178.35 148.937C178.274 149.318 178.157 149.691 178.001 150.048L177.034 152.68C176.673 153.664 176.349 154.554 176.074 155.312C175.969 155.685 175.832 156.049 175.664 156.399C175.702 156.01 175.788 155.627 175.919 155.259C176.12 154.57 176.431 153.619 176.812 152.594C177.194 151.569 177.567 150.646 177.85 149.986C177.98 149.62 178.148 149.268 178.35 148.937Z" fill="#263238"/>
<path d="M179.322 172.737C179.322 172.737 178.83 166.177 183.085 163.397C183.119 163.374 183.158 163.361 183.198 163.359C183.239 163.357 183.279 163.367 183.314 163.386C183.349 163.406 183.379 163.435 183.398 163.47C183.418 163.505 183.428 163.545 183.426 163.586C183.377 164.639 182.893 167.768 179.322 172.737Z" fill="#407BFF"/>
<path d="M182.241 165.349C182.149 165.728 182.019 166.096 181.851 166.448C181.548 167.194 181.187 168.088 180.789 169.043C180.392 169.998 180.043 170.888 179.74 171.638C179.618 172.008 179.463 172.367 179.277 172.708C179.331 172.321 179.431 171.941 179.576 171.577C179.801 170.896 180.146 169.961 180.564 168.949C180.982 167.936 181.384 167.026 181.691 166.378C181.837 166.016 182.022 165.671 182.241 165.349Z" fill="#263238"/>
<path d="M171.864 119.9C171.864 119.9 166.05 116.85 165.923 111.77C165.923 111.73 165.933 111.691 165.953 111.657C165.973 111.622 166.002 111.594 166.037 111.575C166.072 111.555 166.111 111.546 166.151 111.547C166.191 111.548 166.23 111.56 166.263 111.582C167.128 112.18 169.531 114.247 171.864 119.9Z" fill="#407BFF"/>
<path d="M167.132 113.517C167.405 113.795 167.648 114.102 167.858 114.431C168.334 115.083 168.887 115.854 169.498 116.702L171.138 118.966C171.388 119.263 171.61 119.583 171.802 119.921C171.502 119.671 171.234 119.386 171.003 119.072C170.539 118.523 169.933 117.735 169.293 116.846C168.653 115.956 168.092 115.132 167.706 114.529C167.48 114.213 167.288 113.873 167.132 113.517Z" fill="#263238"/>
<path d="M178.124 133.377C178.124 133.377 172.122 130.692 171.7 125.62C171.696 125.58 171.704 125.54 171.722 125.504C171.74 125.468 171.767 125.438 171.801 125.417C171.835 125.396 171.874 125.384 171.914 125.384C171.954 125.384 171.993 125.394 172.028 125.415C172.926 125.96 175.447 127.871 178.124 133.377Z" fill="#407BFF"/>
<path d="M173.02 127.293C173.309 127.553 173.57 127.843 173.799 128.158L175.578 130.327L177.362 132.487C177.629 132.77 177.871 133.076 178.083 133.402C177.769 133.17 177.483 132.901 177.231 132.602C176.739 132.077 176.083 131.331 175.39 130.483C174.697 129.634 174.09 128.843 173.664 128.264C173.414 127.965 173.198 127.639 173.02 127.293Z" fill="#263238"/>
<path d="M174.66 148.42C174.66 148.42 170.56 143.295 172.475 138.58C172.49 138.543 172.515 138.511 172.547 138.487C172.579 138.463 172.618 138.449 172.657 138.446C172.697 138.442 172.737 138.45 172.773 138.468C172.809 138.486 172.839 138.513 172.86 138.547C173.43 139.437 174.795 142.29 174.66 148.42Z" fill="#407BFF"/>
<path d="M172.889 140.663C173.029 141.027 173.131 141.405 173.192 141.79C173.364 142.577 173.565 143.504 173.787 144.529C174.008 145.554 174.217 146.476 174.389 147.264C174.499 147.637 174.575 148.02 174.615 148.408C174.435 148.059 174.297 147.69 174.205 147.309C174.004 146.616 173.758 145.669 173.528 144.578C173.299 143.488 173.118 142.528 173.004 141.823C172.923 141.441 172.884 141.052 172.889 140.663Z" fill="#263238"/>
<path d="M178.76 166.095C178.76 166.095 172.803 163.311 172.466 158.235C172.463 158.195 172.47 158.154 172.488 158.118C172.506 158.081 172.534 158.051 172.569 158.029C172.603 158.008 172.643 157.997 172.684 157.997C172.724 157.997 172.764 158.009 172.799 158.03C173.68 158.592 176.169 160.548 178.76 166.095Z" fill="#407BFF"/>
<path d="M173.746 159.925C174.027 160.193 174.283 160.489 174.508 160.806L176.251 163L177.997 165.193C178.26 165.48 178.496 165.79 178.703 166.12C178.397 165.88 178.122 165.605 177.883 165.3C177.395 164.767 176.755 164.008 176.074 163.147C175.394 162.286 174.803 161.487 174.385 160.9C174.135 160.601 173.92 160.274 173.746 159.925Z" fill="#263238"/>
<path d="M190.613 140.249C190.613 140.249 190.613 140.298 190.613 140.392C190.613 140.486 190.613 140.642 190.613 140.802C190.613 141.212 190.572 141.733 190.543 142.397C190.47 143.799 190.359 145.755 190.232 148.092C189.822 150.47 188.592 153.106 186.952 155.669C185.759 157.555 184.492 159.268 183.426 160.863C182.453 162.263 181.579 163.729 180.81 165.25C180.301 166.278 179.889 167.352 179.58 168.457C179.477 168.846 179.395 169.154 179.35 169.363C179.331 169.472 179.302 169.579 179.264 169.682C179.266 169.572 179.279 169.462 179.305 169.354C179.334 169.141 179.395 168.83 179.49 168.432C179.766 167.308 180.157 166.216 180.658 165.172C181.42 163.639 182.293 162.163 183.27 160.757C184.344 159.15 185.586 157.432 186.775 155.558C188.395 153.008 189.6 150.412 190.055 148.071C190.219 145.738 190.355 143.787 190.465 142.385C190.519 141.72 190.564 141.192 190.597 140.794C190.597 140.63 190.625 140.49 190.638 140.384C190.624 140.34 190.615 140.294 190.613 140.249Z" fill="#263238"/>
<path d="M187.067 155.197C187.067 155.197 189.588 149.129 186.419 145.148C186.394 145.116 186.361 145.092 186.324 145.078C186.286 145.063 186.245 145.06 186.205 145.067C186.166 145.075 186.129 145.094 186.1 145.121C186.07 145.148 186.048 145.183 186.037 145.222C185.755 146.239 185.234 149.359 187.067 155.197Z" fill="#407BFF"/>
<path d="M186.607 147.268C186.716 147.642 186.783 148.027 186.808 148.416C186.898 149.129 186.997 150.117 187.075 151.212C187.153 152.307 187.19 153.299 187.19 154.021C187.214 154.41 187.191 154.801 187.12 155.185C187.049 154.802 187.015 154.414 187.017 154.025C186.964 153.205 186.898 152.274 186.829 151.228C186.759 150.183 186.693 149.236 186.636 148.432C186.588 148.046 186.579 147.656 186.607 147.268Z" fill="#263238"/>
<g opacity="0.3">
<path d="M187.067 155.197C187.067 155.197 189.588 149.129 186.419 145.148C186.394 145.116 186.361 145.092 186.324 145.078C186.286 145.063 186.245 145.06 186.205 145.067C186.166 145.075 186.129 145.094 186.1 145.121C186.07 145.148 186.048 145.183 186.037 145.222C185.755 146.239 185.234 149.359 187.067 155.197Z" fill="black"/>
</g>
<path d="M179.256 169.83C179.256 169.83 181.277 163.573 177.792 159.867C177.765 159.837 177.731 159.816 177.692 159.805C177.654 159.794 177.613 159.794 177.574 159.804C177.536 159.815 177.501 159.836 177.474 159.865C177.446 159.894 177.427 159.93 177.419 159.97C177.222 161.003 176.956 164.16 179.256 169.83Z" fill="#407BFF"/>
<path d="M178.153 161.95C178.295 162.314 178.394 162.694 178.448 163.082C178.596 163.783 178.772 164.763 178.94 165.845C179.108 166.927 179.223 167.915 179.285 168.633C179.338 169.02 179.345 169.413 179.305 169.801C179.208 169.425 179.142 169.041 179.108 168.653C178.99 167.854 178.85 166.919 178.698 165.882C178.547 164.845 178.399 163.91 178.288 163.11C178.205 162.729 178.16 162.34 178.153 161.95Z" fill="#263238"/>
<g opacity="0.3">
<path d="M179.256 169.83C179.256 169.83 181.277 163.573 177.792 159.867C177.765 159.837 177.731 159.816 177.692 159.805C177.654 159.794 177.613 159.794 177.574 159.804C177.536 159.815 177.501 159.836 177.474 159.865C177.446 159.894 177.427 159.93 177.419 159.97C177.222 161.003 176.956 164.16 179.256 169.83Z" fill="black"/>
</g>
<path d="M190.281 147.78C190.281 147.78 195.664 144.008 195.123 138.949C195.119 138.909 195.104 138.871 195.079 138.84C195.055 138.808 195.023 138.783 194.985 138.769C194.948 138.755 194.907 138.751 194.868 138.758C194.829 138.765 194.792 138.783 194.762 138.81C193.979 139.515 191.88 141.86 190.281 147.78Z" fill="#407BFF"/>
<g opacity="0.3">
<path d="M190.281 147.78C190.281 147.78 195.664 144.008 195.123 138.949C195.119 138.909 195.104 138.871 195.079 138.84C195.055 138.808 195.023 138.783 194.985 138.769C194.948 138.755 194.907 138.751 194.868 138.758C194.829 138.765 194.792 138.783 194.762 138.81C193.979 139.515 191.88 141.86 190.281 147.78Z" fill="black"/>
</g>
<path d="M194.147 140.839C194.04 141.215 193.89 141.576 193.7 141.917C193.393 142.565 192.946 143.451 192.425 144.418C191.905 145.386 191.404 146.243 191.019 146.85C190.829 147.19 190.6 147.507 190.334 147.793C190.478 147.432 190.657 147.086 190.867 146.76C191.253 146.05 191.708 145.222 192.208 144.3L193.545 141.84C193.712 141.487 193.914 141.152 194.147 140.839Z" fill="#263238"/>
<path d="M181.429 163.627C181.429 163.627 187.923 162.614 189.662 157.834C189.676 157.796 189.68 157.756 189.672 157.717C189.665 157.678 189.647 157.641 189.62 157.611C189.593 157.582 189.559 157.56 189.521 157.549C189.483 157.537 189.442 157.537 189.404 157.547C188.391 157.85 185.455 159.019 181.429 163.627Z" fill="#407BFF"/>
<g opacity="0.3">
<path d="M181.429 163.627C181.429 163.627 187.923 162.614 189.662 157.834C189.676 157.796 189.68 157.756 189.672 157.717C189.665 157.678 189.647 157.641 189.62 157.611C189.593 157.582 189.559 157.56 189.521 157.549C189.483 157.537 189.442 157.537 189.404 157.547C188.391 157.85 185.455 159.019 181.429 163.627Z" fill="black"/>
</g>
<path d="M187.956 159.1C187.693 159.388 187.399 159.645 187.079 159.867C186.517 160.318 185.726 160.917 184.836 161.556C183.946 162.196 183.114 162.741 182.499 163.118C182.179 163.342 181.831 163.525 181.466 163.664C181.757 163.404 182.071 163.172 182.405 162.971L184.693 161.355L186.976 159.715C187.28 159.476 187.609 159.27 187.956 159.1Z" fill="#263238"/>
<path d="M175.23 175.583L173.336 188.334H185.144L183.614 175.583H175.23Z" fill="#455A64"/>
<path d="M184.09 179.531C184.09 179.6 181.958 179.654 179.33 179.654C176.702 179.654 174.566 179.6 174.566 179.531C176.151 179.409 177.741 179.368 179.33 179.408C180.918 179.368 182.506 179.409 184.09 179.531Z" fill="#263238"/>
<path d="M184.32 180.548C184.32 180.617 182.118 180.671 179.4 180.671C176.681 180.671 174.48 180.617 174.48 180.548C174.48 180.478 176.681 180.425 179.4 180.425C182.118 180.425 184.32 180.478 184.32 180.548Z" fill="#263238"/>
<path d="M138.404 51.8813C138.404 51.8813 138.293 51.8813 138.08 51.8813C137.768 51.8629 137.456 51.8629 137.145 51.8813C135.941 51.9518 134.758 52.2292 133.648 52.7013C131.888 53.4389 130.357 54.6319 129.211 56.1576C128.505 57.1103 127.98 58.1846 127.662 59.3269C126.944 62.0482 127.332 64.9428 128.74 67.3793C129.124 68.0539 129.592 68.6767 130.134 69.2325C130.68 69.8214 131.317 70.3196 132.02 70.7085C132.741 71.1145 133.558 71.3198 134.386 71.303C135.239 71.2928 136.057 70.962 136.678 70.3764C136.978 70.0621 137.213 69.6918 137.37 69.2866C137.527 68.8814 137.602 68.4492 137.592 68.0148C137.586 67.1123 137.299 66.2341 136.772 65.5015C135.71 64.005 133.988 63.0005 132.155 62.4593C130.255 61.9256 128.248 61.8973 126.333 62.3773C125.356 62.6316 124.414 63.0062 123.529 63.4925C122.635 63.9968 121.824 64.6341 121.122 65.3826C120.954 65.5753 120.761 65.7516 120.61 65.9648L120.146 66.588C119.865 67.0272 119.613 67.4847 119.392 67.9574C118.953 68.9173 118.654 69.9348 118.502 70.9791C118.205 73.0655 118.488 75.1936 119.322 77.1291C120.119 79.0204 121.507 80.6027 123.279 81.6391C124.138 82.1299 125.096 82.42 126.083 82.4878C127.051 82.542 128.013 82.311 128.851 81.8236C129.682 81.3641 130.339 80.6437 130.72 79.7736C131.08 78.9161 131.105 77.9549 130.79 77.0799C130.466 76.2357 129.936 75.4859 129.248 74.8987C128.581 74.3223 127.812 73.8759 126.981 73.5826C125.36 73.0715 123.625 73.0416 121.987 73.4965C120.455 73.9118 119.047 74.6959 117.887 75.7802C116.831 76.7923 116.026 78.0378 115.538 79.4169C114.684 81.8098 114.723 84.4307 115.649 86.7969C116.37 88.5634 117.532 90.1159 119.023 91.3069C119.962 92.0602 121.008 92.6696 122.127 93.115C122.512 93.2585 122.811 93.3651 123.016 93.4225L123.32 93.5209C123.32 93.5209 123.213 93.5004 123.008 93.443C122.705 93.362 122.407 93.2648 122.114 93.1519C120.981 92.7261 119.922 92.1257 118.974 91.3725C117.458 90.1824 116.273 88.6222 115.534 86.842C114.592 84.4535 114.544 81.8053 115.399 79.3841C115.888 77.9841 116.701 76.7197 117.772 75.6941C118.949 74.588 120.377 73.7858 121.934 73.3571C123.606 72.8906 125.378 72.9191 127.034 73.4391C127.89 73.7376 128.682 74.1953 129.367 74.788C130.082 75.3945 130.632 76.1715 130.966 77.0471C131.303 77.9613 131.289 78.9681 130.925 79.872C130.521 80.7764 129.835 81.5257 128.97 82.0081C128.101 82.5144 127.104 82.7566 126.1 82.7051C125.089 82.6346 124.107 82.3345 123.23 81.8277C121.418 80.7768 119.995 79.1671 119.175 77.2398C118.323 75.2688 118.031 73.1012 118.33 70.975C118.487 69.9095 118.793 68.8715 119.24 67.8918C119.466 67.409 119.723 66.9419 120.011 66.4937L120.487 65.8582C120.638 65.6409 120.835 65.4482 121.007 65.2596C121.726 64.4969 122.555 63.8472 123.467 63.3326C124.373 62.837 125.337 62.4568 126.337 62.201C128.289 61.7121 130.334 61.7417 132.27 62.2871C134.14 62.8447 135.89 63.8656 136.993 65.4154C137.548 66.1786 137.849 67.0963 137.854 68.0394C137.874 68.9677 137.525 69.8658 136.883 70.5363C136.227 71.1521 135.363 71.4989 134.464 71.508C133.603 71.5276 132.753 71.3136 132.004 70.8889C131.284 70.4918 130.633 69.981 130.077 69.376C129.528 68.8078 129.053 68.1727 128.662 67.4859C127.229 65.0041 126.839 62.0547 127.58 59.2859C127.908 58.1303 128.446 57.0449 129.166 56.0838C130.333 54.5465 131.89 53.3501 133.676 52.6193C134.796 52.1563 135.988 51.8954 137.198 51.8485C137.512 51.8278 137.827 51.8278 138.141 51.8485L138.404 51.8813Z" fill="#263238"/>
<path d="M152.094 92.906H94.6075V137.243H152.094V92.906Z" fill="#407BFF"/>
<path d="M94.6075 92.906L105.226 102.812H161.737L152.094 92.906H94.6075Z" fill="#407BFF"/>
<path d="M94.6075 92.906L152.11 92.8035H152.155L152.188 92.8322L161.733 102.635L161.831 102.738L162.007 102.918H161.753L105.243 102.873H105.218L94.6075 92.906L105.267 102.746H105.222L161.733 102.705L161.659 102.885L161.556 102.783L152.016 92.9798L152.089 93.0126L94.6075 92.906Z" fill="#263238"/>
<path d="M111.877 113.353C111.565 113.364 111.271 113.497 111.056 113.723C110.842 113.949 110.725 114.251 110.731 114.562C110.737 114.874 110.864 115.171 111.087 115.389C111.309 115.607 111.608 115.73 111.92 115.73C112.231 115.73 112.53 115.607 112.753 115.389C112.975 115.171 113.103 114.874 113.109 114.562C113.114 114.251 112.997 113.949 112.783 113.723C112.569 113.497 112.274 113.364 111.963 113.353" fill="#263238"/>
<path d="M125.46 113.353C125.15 113.364 124.857 113.497 124.644 113.723C124.431 113.949 124.314 114.249 124.32 114.559C124.326 114.869 124.454 115.165 124.675 115.382C124.897 115.6 125.195 115.721 125.505 115.721C125.815 115.721 126.113 115.6 126.335 115.382C126.556 115.165 126.684 114.869 126.69 114.559C126.696 114.249 126.58 113.949 126.367 113.723C126.153 113.497 125.86 113.364 125.55 113.353" fill="#263238"/>
<path d="M125.538 123.963C125.301 123.058 124.916 122.197 124.398 121.417C123.822 120.583 123.083 119.874 122.225 119.335C121.19 118.648 119.983 118.265 118.741 118.231C117.499 118.197 116.273 118.513 115.202 119.142C114.317 119.636 113.541 120.302 112.918 121.102C112.357 121.853 111.926 122.693 111.643 123.586C111.646 123.52 111.657 123.454 111.676 123.389C111.715 123.205 111.766 123.023 111.827 122.844C112.052 122.186 112.38 121.567 112.799 121.011C113.417 120.175 114.203 119.476 115.107 118.961C116.206 118.305 117.469 117.976 118.748 118.011C120.027 118.045 121.27 118.443 122.332 119.158C123.204 119.719 123.95 120.457 124.521 121.323C124.911 121.901 125.205 122.538 125.394 123.209C125.445 123.391 125.485 123.576 125.513 123.763C125.527 123.829 125.536 123.896 125.538 123.963Z" fill="#263238"/>
<path opacity="0.5" d="M94.7387 93.3938L104.907 106.284H152.094V102.811H105.227L94.7387 93.3938Z" fill="black"/>
<path d="M140.757 137.145C140.7 137.145 140.65 129.433 140.65 119.925C140.65 110.417 140.7 102.705 140.757 102.705C140.814 102.705 140.868 110.413 140.868 119.925C140.868 129.437 140.819 137.145 140.757 137.145Z" fill="#263238"/>
<path d="M149.785 127.092H144.718V132.819H149.785V127.092Z" fill="#F5F5F5"/>
<path d="M94.6075 92.906L82.8077 102.812H94.6075V92.906Z" fill="#407BFF"/>
<g opacity="0.4">
<path d="M94.6075 92.906L82.8077 102.812H94.6075V92.906Z" fill="black"/>
</g>
<path d="M153.791 137.243H87.6949V188.223H153.791V137.243Z" fill="#407BFF"/>
<path opacity="0.3" d="M153.791 137.243H87.6949V188.223H153.791V137.243Z" fill="black"/>
<path d="M137.231 187.862C137.174 187.862 137.125 176.501 137.125 162.487C137.125 148.473 137.174 137.108 137.231 137.108C137.289 137.108 137.338 148.469 137.338 162.487C137.338 176.505 137.289 187.862 137.231 187.862Z" fill="#263238"/>
<path d="M148.186 176.62H143.119V182.347H148.186V176.62Z" fill="#F5F5F5"/>
<path d="M115.366 137.379H107.859V148.256H115.366V137.379Z" fill="#263238"/>
<path d="M115.366 177.194H107.859V188.071H115.366V177.194Z" fill="#263238"/>
<path d="M153.217 137.243H153.045H152.549L150.642 137.264L143.619 137.297L120.458 137.35L97.2889 137.321L90.2697 137.288L88.3632 137.268L90.2697 137.247L97.2889 137.215L120.458 137.182L143.619 137.215L150.642 137.247L152.549 137.268H153.045L153.217 137.243Z" fill="#263238"/>
<path d="M39.9422 48.9827L32.7426 47.2115H32.7959C30.9369 48.3939 28.7872 49.0395 26.5844 49.077C25.2802 49.0829 23.9825 48.8936 22.7345 48.5153C20.5402 47.8107 18.5935 46.4927 17.1244 44.7171C15.6554 42.9414 14.7253 40.7823 14.4443 38.4949C14.2235 36.7649 14.386 35.0076 14.9203 33.3475C15.4545 31.6874 16.3474 30.1651 17.5357 28.8886C18.1603 28.2025 18.8604 27.5891 19.6226 27.06C20.008 26.8181 20.3934 26.568 20.7952 26.3589L21.4061 26.0637L21.7095 25.9161L22.0293 25.8013C23.6756 25.1631 25.4417 24.893 27.2035 25.01C29.5646 25.1633 31.8276 26.0121 33.7071 27.4495C35.5866 28.8868 36.9986 30.8484 37.7651 33.087C38.1909 34.3392 38.4151 35.6512 38.4293 36.9738C38.4395 39.1718 37.8422 41.3299 36.7032 43.2099V43.1443C38.704 46.7564 39.7126 48.5809 39.9381 48.9827C39.7044 48.5727 38.6589 46.781 36.5884 43.2058V43.173V43.1402C37.6865 41.2784 38.2537 39.1515 38.2284 36.9902C38.2093 35.6887 37.9823 34.3987 37.556 33.169C36.7978 30.9762 35.4097 29.0558 33.5652 27.6482C31.7208 26.2407 29.5022 25.4085 27.1871 25.256C25.46 25.1434 23.7291 25.4093 22.1154 26.035L21.8038 26.1457L21.5045 26.2933L20.9059 26.5803C20.4959 26.7894 20.1351 27.0313 19.7538 27.2691C19.0063 27.784 18.3187 28.3808 17.7038 29.0485C16.5372 30.3016 15.6604 31.7958 15.1354 33.4254C14.6104 35.055 14.4501 36.78 14.6657 38.4785C15.0458 41.5901 16.6422 44.4247 19.106 46.3628C20.2075 47.2356 21.4575 47.9022 22.796 48.3308C24.0216 48.7097 25.2974 48.9018 26.5803 48.9007C28.7567 48.8774 30.8847 48.2546 32.7303 47.1008H32.7549H32.8L39.9422 48.9827Z" fill="#263238"/>
<path d="M25.42 31.693L25.7849 37.72C25.7994 37.9577 25.9004 38.1819 26.0689 38.3503C26.2373 38.5187 26.4615 38.6197 26.6992 38.6343C26.9493 38.6484 27.1954 38.5662 27.3868 38.4045C27.5782 38.2429 27.7004 38.014 27.7283 37.7651L28.3966 31.7258C28.4082 31.6177 28.3968 31.5084 28.3629 31.4051C28.3291 31.3019 28.2738 31.2069 28.2005 31.1267C28.1272 31.0464 28.0377 30.9827 27.9379 30.9396C27.8381 30.8966 27.7303 30.8753 27.6217 30.8771H26.158C26.0553 30.8801 25.9542 30.9039 25.861 30.947C25.7677 30.9901 25.6841 31.0516 25.6151 31.1278C25.5462 31.204 25.4934 31.2933 25.4598 31.3904C25.4263 31.4876 25.4128 31.5905 25.42 31.693Z" fill="#407BFF"/>
<path d="M28.2899 42.0004C28.1982 42.2758 28.0269 42.5177 27.7977 42.6957C27.5685 42.8737 27.2916 42.9797 27.0022 43.0005C26.7127 43.0212 26.4236 42.9556 26.1714 42.8121C25.9192 42.6685 25.7152 42.4534 25.5852 42.194C25.4552 41.9345 25.405 41.6424 25.441 41.3544C25.4769 41.0664 25.5975 40.7956 25.7873 40.5761C25.9772 40.3566 26.2279 40.1984 26.5076 40.1213C26.7874 40.0442 27.0838 40.0518 27.3592 40.1431C27.5424 40.2039 27.7118 40.3001 27.8577 40.4263C28.0036 40.5525 28.1232 40.7063 28.2097 40.8788C28.2961 41.0513 28.3477 41.2392 28.3615 41.4316C28.3753 41.6241 28.3509 41.8174 28.2899 42.0004Z" fill="#407BFF"/>
</svg>
