<svg width="205" height="194" viewBox="0 0 205 194" fill="none" xmlns="http://www.w3.org/2000/svg">
<path d="M184.459 154.614H170.88V154.711H184.459V154.614Z" fill="#EBEBEB"/>
<path d="M135.8 155.669H132.237V155.766H135.8V155.669Z" fill="#EBEBEB"/>
<path d="M170.47 151.013H162.602V151.11H170.47V151.013Z" fill="#EBEBEB"/>
<path d="M39.2165 151.665H21.5086V151.762H39.2165V151.665Z" fill="#EBEBEB"/>
<path d="M45.4649 151.665H42.8696V151.762H45.4649V151.665Z" fill="#EBEBEB"/>
<path d="M92.3115 153.303H53.9027V153.4H92.3115V153.303Z" fill="#EBEBEB"/>
<path d="M97.17 131.066H18.0072C17.3863 131.066 16.7908 130.833 16.3518 130.417C15.9127 130.002 15.6661 129.438 15.6661 128.851V23.536C15.6715 22.9518 15.9205 22.3933 16.359 21.982C16.7974 21.5707 17.3898 21.3399 18.0072 21.34H97.17C97.7909 21.34 98.3863 21.5734 98.8254 21.9889C99.2644 22.4043 99.5111 22.9679 99.5111 23.5554V128.851C99.5111 129.438 99.2644 130.002 98.8254 130.417C98.3863 130.833 97.7909 131.066 97.17 131.066ZM18.0072 21.4176C17.4138 21.4186 16.845 21.6421 16.4254 22.0392C16.0059 22.4363 15.7697 22.9745 15.7686 23.536V128.851C15.7697 129.412 16.0059 129.951 16.4254 130.348C16.845 130.745 17.4138 130.968 18.0072 130.969H97.17C97.7634 130.968 98.3321 130.745 98.7517 130.348C99.1713 129.951 99.4075 129.412 99.4086 128.851V23.536C99.4075 22.9745 99.1713 22.4363 98.7517 22.0392C98.3321 21.6421 97.7634 21.4186 97.17 21.4176H18.0072Z" fill="#EBEBEB"/>
<path d="M185.857 131.066H106.686C106.066 131.065 105.471 130.832 105.032 130.416C104.593 130.001 104.346 129.438 104.345 128.851V23.536C104.351 22.9521 104.601 22.3942 105.039 21.9831C105.477 21.572 106.069 21.341 106.686 21.34H185.857C186.473 21.342 187.063 21.5736 187.5 21.9847C187.937 22.3958 188.185 22.9532 188.19 23.536V128.851C188.19 129.437 187.944 129.999 187.507 130.415C187.07 130.83 186.477 131.064 185.857 131.066ZM106.686 21.4176C106.093 21.4186 105.524 21.6421 105.104 22.0392C104.685 22.4363 104.449 22.9745 104.447 23.536V128.851C104.449 129.412 104.685 129.951 105.104 130.348C105.524 130.745 106.093 130.968 106.686 130.969H185.857C186.45 130.968 187.019 130.745 187.439 130.348C187.858 129.951 188.095 129.412 188.096 128.851V23.536C188.095 22.9745 187.858 22.4363 187.439 22.0392C187.019 21.6421 186.45 21.4186 185.857 21.4176H106.686Z" fill="#EBEBEB"/>
<path d="M205 148.371H0V148.468H205V148.371Z" fill="#EBEBEB"/>
<path d="M173.975 44.5734H122.811V148.499H173.975V44.5734Z" fill="#EBEBEB"/>
<path d="M170.9 47.4834H125.886V145.589H170.9V47.4834Z" fill="#F5F5F5"/>
<path d="M153.229 145.589H139.699L126.997 47.4834H140.527L153.229 145.589Z" fill="#FAFAFA"/>
<path d="M146.813 47.4834L159.515 145.589H156.235L143.533 47.4834H146.813Z" fill="#FAFAFA"/>
<path d="M122.159 46.9984H174.623L175.73 44.554H121.052L122.159 46.9984Z" fill="#F5F5F5"/>
<path d="M122.159 48.4146H174.623L175.73 45.9702H121.052L122.159 48.4146Z" fill="#F0F0F0"/>
<path d="M122.159 49.8308H174.623L175.73 47.3864H121.052L122.159 49.8308Z" fill="#E6E6E6"/>
<path d="M122.159 51.247H174.623L175.73 48.8026H121.052L122.159 51.247Z" fill="#E0E0E0"/>
<path d="M119.146 44.7518L177.633 44.7518V41.4926L119.146 41.4926V44.7518Z" fill="#E0E0E0"/>
<path d="M177.034 74.302C177.192 74.302 177.343 74.2427 177.454 74.1372C177.566 74.0317 177.628 73.8886 177.628 73.7394V54.7274C177.628 54.5782 177.566 54.4351 177.454 54.3296C177.343 54.2241 177.192 54.1648 177.034 54.1648C176.876 54.1648 176.725 54.2241 176.614 54.3296C176.502 54.4351 176.439 54.5782 176.439 54.7274V73.7394C176.439 73.8886 176.502 74.0317 176.614 74.1372C176.725 74.2427 176.876 74.302 177.034 74.302Z" fill="#E0E0E0"/>
<path d="M176.817 55.3909H177.247V44.1001H176.817V55.3909Z" fill="#E0E0E0"/>
<path d="M104.821 147.94H106.051L106.051 84.1843H104.821L104.821 147.94Z" fill="#EBEBEB"/>
<path d="M119.253 76.6261C119.253 80.3548 116.461 83.6101 112.311 85.3406H98.5599C94.4107 83.6062 91.6145 80.3548 91.6145 76.6261C91.6145 72.8975 94.4107 69.6421 98.5599 67.9155H112.311C116.461 69.6499 119.253 72.9013 119.253 76.6261Z" fill="#F0F0F0"/>
<path d="M96.76 148.499H114.083C114.083 148.236 114.028 147.976 113.921 147.733C113.815 147.49 113.659 147.269 113.463 147.083C113.266 146.898 113.033 146.75 112.777 146.649C112.52 146.549 112.245 146.497 111.967 146.497H98.8879C98.6101 146.497 98.335 146.549 98.0783 146.649C97.8216 146.75 97.5884 146.898 97.392 147.083C97.1955 147.269 97.0397 147.49 96.9333 147.733C96.827 147.976 96.7723 148.236 96.7723 148.499H96.76Z" fill="#EBEBEB"/>
<path d="M109.343 68.1211C114.8 72.1679 114.8 81.0919 109.343 85.131C109.031 85.3638 109.47 85.7751 109.778 85.5462C115.472 81.3131 115.472 71.9429 109.778 67.6982C109.47 67.4693 109.031 67.8766 109.343 68.1094V68.1211Z" fill="#E0E0E0"/>
<path d="M106.514 67.9931C107.703 70.678 107.891 73.751 107.891 76.6261C107.891 79.5012 107.703 82.578 106.514 85.263C106.362 85.6083 106.957 85.7557 107.104 85.4143C108.31 82.6983 108.506 79.5361 108.506 76.6261C108.506 73.7161 108.31 70.5539 107.104 67.8379C106.957 67.4964 106.362 67.6478 106.514 67.9931Z" fill="#E0E0E0"/>
<path d="M103.763 67.8379C102.561 70.5539 102.365 73.72 102.365 76.6261C102.365 79.5322 102.561 82.6983 103.763 85.4143C103.914 85.7557 104.509 85.6083 104.357 85.263C103.168 82.578 102.98 79.505 102.98 76.6261C102.98 73.7471 103.168 70.678 104.357 67.9931C104.509 67.6478 103.914 67.4964 103.763 67.8379Z" fill="#E0E0E0"/>
<path d="M101.094 67.7098C95.3988 71.9429 95.3988 81.3131 101.094 85.5578C101.401 85.7868 101.84 85.3755 101.528 85.1427C96.0712 81.0881 96.0712 72.1874 101.528 68.1328C101.84 67.9 101.401 67.4926 101.094 67.7215V67.7098Z" fill="#E0E0E0"/>
<path d="M100.524 164.399C144.428 164.399 180.019 162.433 180.019 160.007C180.019 157.582 144.428 155.615 100.524 155.615C56.62 155.615 21.0289 157.582 21.0289 160.007C21.0289 162.433 56.62 164.399 100.524 164.399Z" fill="#F5F5F5"/>
<path d="M30.4597 156.458H76.3838L76.3838 46.9607H30.4597L30.4597 156.458Z" fill="#407BFF"/>
<path opacity="0.2" d="M30.4597 156.458H76.3838L76.3838 46.9607H30.4597L30.4597 156.458Z" fill="black"/>
<path d="M21.9973 45.9984V157.416H30.4597V45.9984H21.9973Z" fill="#407BFF"/>
<path d="M75.9779 45.9984V157.416H84.4403V45.9984H75.9779Z" fill="#407BFF"/>
<path opacity="0.4" d="M75.9779 45.9984V157.416H84.4403V45.9984H75.9779Z" fill="white"/>
<path d="M50.7137 52.3965H48.7621V67.8971H50.7137V52.3965Z" fill="#407BFF"/>
<path opacity="0.1" d="M50.7137 52.3965H48.7621V67.8971H50.7137V52.3965Z" fill="white"/>
<path d="M48.758 52.3965H46.8064V67.8971H48.758V52.3965Z" fill="#407BFF"/>
<path opacity="0.4" d="M48.758 52.3965H46.8064V67.8971H48.758V52.3965Z" fill="white"/>
<path d="M54.6169 53.4868H50.7137V67.901H54.6169V53.4868Z" fill="#407BFF"/>
<path opacity="0.6" d="M54.6169 53.4868H50.7137V67.901H54.6169V53.4868Z" fill="white"/>
<path d="M59.09 52.3965H56.5685V67.8971H59.09V52.3965Z" fill="#407BFF"/>
<path d="M56.5685 52.3965H54.6169V67.8971H56.5685V52.3965Z" fill="#407BFF"/>
<path opacity="0.7" d="M56.5685 52.3965H54.6169V67.8971H56.5685V52.3965Z" fill="white"/>
<path d="M73.8951 52.3965H71.3736V67.8971H73.8951V52.3965Z" fill="#407BFF"/>
<path opacity="0.7" d="M73.8951 52.3965H71.3736V67.8971H73.8951V52.3965Z" fill="white"/>
<path d="M71.3736 52.3965H69.422V67.8971H71.3736V52.3965Z" fill="#407BFF"/>
<path opacity="0.6" d="M71.3736 52.3965H69.422V67.8971H71.3736V52.3965Z" fill="white"/>
<path d="M65.5147 52.3965H62.9932V67.8971H65.5147V52.3965Z" fill="#407BFF"/>
<path opacity="0.6" d="M65.5147 52.3965H62.9932V67.8971H65.5147V52.3965Z" fill="white"/>
<path d="M62.9932 52.3965H61.0416V67.8971H62.9932V52.3965Z" fill="#407BFF"/>
<path opacity="0.1" d="M62.9932 52.3965H61.0416V67.8971H62.9932V52.3965Z" fill="black"/>
<path d="M77.7983 52.7612H73.8951V67.8971H77.7983V52.7612Z" fill="#407BFF"/>
<path opacity="0.1" d="M77.7983 52.7612H73.8951V67.8971H77.7983V52.7612Z" fill="white"/>
<path d="M79.754 52.7612H77.8024V67.8971H79.754V52.7612Z" fill="#407BFF"/>
<path opacity="0.6" d="M79.754 52.7612H77.8024V67.8971H79.754V52.7612Z" fill="white"/>
<path d="M68.1223 52.7612H65.5188V67.8971H68.1223V52.7612Z" fill="#407BFF"/>
<path opacity="0.1" d="M68.1223 52.7612H65.5188V67.8971H68.1223V52.7612Z" fill="white"/>
<path d="M69.422 52.7612H68.1223V67.8971H69.422V52.7612Z" fill="#407BFF"/>
<path opacity="0.3" d="M69.422 52.7612H68.1223V67.8971H69.422V52.7612Z" fill="white"/>
<path d="M62.9932 53.4868H59.09V67.901H62.9932V53.4868Z" fill="#407BFF"/>
<path opacity="0.1" d="M62.9932 53.4868H59.09V67.901H62.9932V53.4868Z" fill="white"/>
<path d="M40.9516 52.3965H38.4301V67.8971H40.9516V52.3965Z" fill="#407BFF"/>
<path opacity="0.3" d="M40.9516 52.3965H38.4301V67.8971H40.9516V52.3965Z" fill="white"/>
<path d="M38.4301 52.3965H36.4785V67.8971H38.4301V52.3965Z" fill="#407BFF"/>
<path opacity="0.2" d="M38.4301 52.3965H36.4785V67.8971H38.4301V52.3965Z" fill="white"/>
<path d="M44.8548 52.7612H40.9516V67.8971H44.8548V52.7612Z" fill="#407BFF"/>
<path opacity="0.1" d="M44.8548 52.7612H40.9516V67.8971H44.8548V52.7612Z" fill="white"/>
<path d="M46.8064 52.7612H44.8548V67.8971H46.8064V52.7612Z" fill="#407BFF"/>
<path opacity="0.6" d="M46.8064 52.7612H44.8548V67.8971H46.8064V52.7612Z" fill="white"/>
<path d="M35.1788 52.7612H32.5753V67.8971H35.1788V52.7612Z" fill="#407BFF"/>
<path opacity="0.1" d="M35.1788 52.7612H32.5753V67.8971H35.1788V52.7612Z" fill="white"/>
<path d="M36.4744 52.7612H35.1747V67.8971H36.4744V52.7612Z" fill="#407BFF"/>
<path opacity="0.6" d="M36.4744 52.7612H35.1747V67.8971H36.4744V52.7612Z" fill="white"/>
<path d="M60.9432 89.8036H62.8497V74.3457H60.9432V89.8036Z" fill="#407BFF"/>
<path opacity="0.1" d="M60.9432 89.8036H62.8497V74.3457H60.9432V89.8036Z" fill="white"/>
<path d="M62.8497 89.8036H64.7562V74.3457H62.8497V89.8036Z" fill="#407BFF"/>
<path opacity="0.4" d="M62.8497 89.8036H64.7562V74.3457H62.8497V89.8036Z" fill="white"/>
<path d="M57.1343 89.8036H60.9473V75.4321H57.1343V89.8036Z" fill="#407BFF"/>
<path opacity="0.6" d="M57.1343 89.8036H60.9473V75.4321H57.1343V89.8036Z" fill="white"/>
<path d="M52.7637 89.8036H55.2278V74.3457H52.7637V89.8036Z" fill="#407BFF"/>
<path d="M55.2237 89.8036H57.1302V74.3457H55.2237V89.8036Z" fill="#407BFF"/>
<path opacity="0.1" d="M55.2237 89.8036H57.1302V74.3457H55.2237V89.8036Z" fill="black"/>
<path d="M38.3071 89.8036H40.7712V74.3457H38.3071V89.8036Z" fill="#407BFF"/>
<path opacity="0.1" d="M38.3071 89.8036H40.7712V74.3457H38.3071V89.8036Z" fill="black"/>
<path d="M40.7712 89.8036H42.6777V74.3457H40.7712V89.8036Z" fill="#407BFF"/>
<path opacity="0.6" d="M40.7712 89.8036H42.6777V74.3457H40.7712V89.8036Z" fill="white"/>
<path d="M46.4866 89.8036H48.9507V74.3457H46.4866V89.8036Z" fill="#407BFF"/>
<path opacity="0.6" d="M46.4866 89.8036H48.9507V74.3457H46.4866V89.8036Z" fill="white"/>
<path d="M48.9507 89.8036H50.8572V74.3457H48.9507V89.8036Z" fill="#407BFF"/>
<path opacity="0.1" d="M48.9507 89.8036H50.8572V74.3457H48.9507V89.8036Z" fill="black"/>
<path d="M34.4941 89.7997H38.3071V74.7104H34.4941V89.7997Z" fill="#407BFF"/>
<path opacity="0.1" d="M34.4941 89.7997H38.3071V74.7104H34.4941V89.7997Z" fill="white"/>
<path d="M32.5917 89.7997H34.4982V74.7104H32.5917V89.7997Z" fill="#407BFF"/>
<path opacity="0.6" d="M32.5917 89.7997H34.4982V74.7104H32.5917V89.7997Z" fill="white"/>
<path d="M43.9446 89.7997H46.4866V74.7104H43.9446V89.7997Z" fill="#407BFF"/>
<path opacity="0.1" d="M43.9446 89.7997H46.4866V74.7104H43.9446V89.7997Z" fill="white"/>
<path d="M42.6777 89.7997H43.9487V74.7104H42.6777V89.7997Z" fill="#407BFF"/>
<path opacity="0.3" d="M42.6777 89.7997H43.9487V74.7104H42.6777V89.7997Z" fill="white"/>
<path d="M48.9507 89.8036H52.7637V75.4321H48.9507V89.8036Z" fill="#407BFF"/>
<path opacity="0.1" d="M48.9507 89.8036H52.7637V75.4321H48.9507V89.8036Z" fill="white"/>
<path d="M70.4716 89.8036H72.9357V74.3457H70.4716V89.8036Z" fill="#407BFF"/>
<path opacity="0.1" d="M70.4716 89.8036H72.9357V74.3457H70.4716V89.8036Z" fill="white"/>
<path d="M72.9357 89.8036H74.8422V74.3457H72.9357V89.8036Z" fill="#407BFF"/>
<path opacity="0.2" d="M72.9357 89.8036H74.8422V74.3457H72.9357V89.8036Z" fill="white"/>
<path d="M66.6586 89.7997H70.4716V74.7104H66.6586V89.7997Z" fill="#407BFF"/>
<path opacity="0.3" d="M66.6586 89.7997H70.4716V74.7104H66.6586V89.7997Z" fill="white"/>
<path d="M64.7521 89.7997H66.6586V74.7104H64.7521V89.7997Z" fill="#407BFF"/>
<path opacity="0.6" d="M64.7521 89.7997H66.6586V74.7104H64.7521V89.7997Z" fill="white"/>
<path d="M76.1091 89.7997H78.6511V74.7104H76.1091V89.7997Z" fill="#407BFF"/>
<path opacity="0.1" d="M76.1091 89.7997H78.6511V74.7104H76.1091V89.7997Z" fill="white"/>
<path d="M74.8381 89.7997H76.1091V74.7104H74.8381V89.7997Z" fill="#407BFF"/>
<path opacity="0.6" d="M74.8381 89.7997H76.1091V74.7104H74.8381V89.7997Z" fill="white"/>
<path d="M50.3119 118.291H48.4054V133.597H50.3119V118.291Z" fill="#407BFF"/>
<path opacity="0.1" d="M50.3119 118.291H48.4054V133.597H50.3119V118.291Z" fill="white"/>
<path d="M48.4095 118.291H46.503V133.597H48.4095V118.291Z" fill="#407BFF"/>
<path opacity="0.4" d="M48.4095 118.291H46.503V133.597H48.4095V118.291Z" fill="white"/>
<path d="M54.1249 119.369H50.3119V133.601H54.1249V119.369Z" fill="#407BFF"/>
<path opacity="0.5" d="M54.1249 119.369H50.3119V133.601H54.1249V119.369Z" fill="white"/>
<path d="M58.4955 118.291H56.0314V133.597H58.4955V118.291Z" fill="#407BFF"/>
<path d="M56.0314 118.291H54.1249V133.597H56.0314V118.291Z" fill="#407BFF"/>
<path opacity="0.6" d="M56.0314 118.291H54.1249V133.597H56.0314V118.291Z" fill="white"/>
<path d="M72.948 118.291H70.4839V133.597H72.948V118.291Z" fill="#407BFF"/>
<path opacity="0.3" d="M72.948 118.291H70.4839V133.597H72.948V118.291Z" fill="white"/>
<path d="M70.4839 118.291H68.5774V133.597H70.4839V118.291Z" fill="#407BFF"/>
<path opacity="0.6" d="M70.4839 118.291H68.5774V133.597H70.4839V118.291Z" fill="white"/>
<path d="M64.7685 118.291H62.3044V133.597H64.7685V118.291Z" fill="#407BFF"/>
<path opacity="0.6" d="M64.7685 118.291H62.3044V133.597H64.7685V118.291Z" fill="white"/>
<path d="M62.3044 118.291H60.3979V133.597H62.3044V118.291Z" fill="#407BFF"/>
<path opacity="0.1" d="M62.3044 118.291H60.3979V133.597H62.3044V118.291Z" fill="black"/>
<path d="M76.761 118.655H72.948V133.597H76.761V118.655Z" fill="#407BFF"/>
<path opacity="0.1" d="M76.761 118.655H72.948V133.597H76.761V118.655Z" fill="white"/>
<path d="M78.6675 118.655H76.761V133.597H78.6675V118.655Z" fill="#407BFF"/>
<path opacity="0.6" d="M78.6675 118.655H76.761V133.597H78.6675V118.655Z" fill="white"/>
<path d="M67.3105 118.655H64.7685V133.597H67.3105V118.655Z" fill="#407BFF"/>
<path opacity="0.1" d="M67.3105 118.655H64.7685V133.597H67.3105V118.655Z" fill="white"/>
<path d="M68.5815 118.655H67.3105V133.597H68.5815V118.655Z" fill="#407BFF"/>
<path opacity="0.3" d="M68.5815 118.655H67.3105V133.597H68.5815V118.655Z" fill="white"/>
<path d="M62.3044 119.369H58.4914V133.601H62.3044V119.369Z" fill="#407BFF"/>
<path opacity="0.1" d="M62.3044 119.369H58.4914V133.601H62.3044V119.369Z" fill="white"/>
<path d="M40.7835 118.291H38.3194V133.597H40.7835V118.291Z" fill="#407BFF"/>
<path opacity="0.1" d="M40.7835 118.291H38.3194V133.597H40.7835V118.291Z" fill="black"/>
<path d="M38.3235 118.291H36.417V133.597H38.3235V118.291Z" fill="#407BFF"/>
<path opacity="0.2" d="M38.3235 118.291H36.417V133.597H38.3235V118.291Z" fill="white"/>
<path d="M44.5965 118.655H40.7835V133.597H44.5965V118.655Z" fill="#407BFF"/>
<path opacity="0.1" d="M44.5965 118.655H40.7835V133.597H44.5965V118.655Z" fill="white"/>
<path d="M46.503 118.655H44.5965V133.597H46.503V118.655Z" fill="#407BFF"/>
<path opacity="0.6" d="M46.503 118.655H44.5965V133.597H46.503V118.655Z" fill="white"/>
<path d="M35.146 118.655H32.604V133.597H35.146V118.655Z" fill="#407BFF"/>
<path opacity="0.1" d="M35.146 118.655H32.604V133.597H35.146V118.655Z" fill="white"/>
<path d="M36.417 118.655H35.146V133.597H36.417V118.655Z" fill="#407BFF"/>
<path opacity="0.6" d="M36.417 118.655H35.146V133.597H36.417V118.655Z" fill="white"/>
<path d="M61.8985 111.698H63.8706V95.9884H61.8985V111.698Z" fill="#407BFF"/>
<path opacity="0.1" d="M61.8985 111.698H63.8706V95.9884H61.8985V111.698Z" fill="white"/>
<path d="M63.8706 111.698H65.8427V95.9884H63.8706V111.698Z" fill="#407BFF"/>
<path opacity="0.4" d="M63.8706 111.698H65.8427V95.9884H63.8706V111.698Z" fill="white"/>
<path d="M57.9625 111.695H61.9026V97.0864H57.9625V111.695Z" fill="#407BFF"/>
<path opacity="0.6" d="M57.9625 111.695H61.9026V97.0864H57.9625V111.695Z" fill="white"/>
<path d="M53.4443 111.698H55.9904V95.9884H53.4443V111.698Z" fill="#407BFF"/>
<path d="M55.9904 111.698H57.9625V95.9884H55.9904V111.698Z" fill="#407BFF"/>
<path opacity="0.1" d="M55.9904 111.698H57.9625V95.9884H55.9904V111.698Z" fill="black"/>
<path d="M38.5039 111.698H41.05V95.9884H38.5039V111.698Z" fill="#407BFF"/>
<path opacity="0.1" d="M38.5039 111.698H41.05V95.9884H38.5039V111.698Z" fill="black"/>
<path d="M41.0459 111.698H43.018V95.9884H41.0459V111.698Z" fill="#407BFF"/>
<path opacity="0.6" d="M41.0459 111.698H43.018V95.9884H41.0459V111.698Z" fill="white"/>
<path d="M46.9581 111.698H49.5042V95.9884H46.9581V111.698Z" fill="#407BFF"/>
<path opacity="0.6" d="M46.9581 111.698H49.5042V95.9884H46.9581V111.698Z" fill="white"/>
<path d="M49.5042 111.698H51.4763V95.9884H49.5042V111.698Z" fill="#407BFF"/>
<path opacity="0.1" d="M49.5042 111.698H51.4763V95.9884H49.5042V111.698Z" fill="black"/>
<path d="M34.5638 111.698H38.5039V96.3608H34.5638V111.698Z" fill="#407BFF"/>
<path opacity="0.1" d="M34.5638 111.698H38.5039V96.3608H34.5638V111.698Z" fill="white"/>
<path d="M32.5876 111.698H34.5597V96.3608H32.5876V111.698Z" fill="#407BFF"/>
<path opacity="0.6" d="M32.5876 111.698H34.5597V96.3608H32.5876V111.698Z" fill="white"/>
<path d="M44.3341 111.698H46.9622V96.3608H44.3341V111.698Z" fill="#407BFF"/>
<path opacity="0.1" d="M44.3341 111.698H46.9622V96.3608H44.3341V111.698Z" fill="white"/>
<path d="M43.018 111.698H44.33V96.3608H43.018V111.698Z" fill="#407BFF"/>
<path opacity="0.3" d="M43.018 111.698H44.33V96.3608H43.018V111.698Z" fill="white"/>
<path d="M49.5042 111.695H53.4443V97.0864H49.5042V111.695Z" fill="#407BFF"/>
<path opacity="0.1" d="M49.5042 111.695H53.4443V97.0864H49.5042V111.695Z" fill="white"/>
<path d="M71.7508 111.698H74.2969V95.9884H71.7508V111.698Z" fill="#407BFF"/>
<path opacity="0.2" d="M71.7508 111.698H74.2969V95.9884H71.7508V111.698Z" fill="white"/>
<path d="M74.2969 111.698H76.269V95.9884H74.2969V111.698Z" fill="#407BFF"/>
<path opacity="0.4" d="M74.2969 111.698H76.269V95.9884H74.2969V111.698Z" fill="white"/>
<path d="M67.8148 111.698H71.7549V96.3608H67.8148V111.698Z" fill="#407BFF"/>
<path opacity="0.1" d="M67.8148 111.698H71.7549V96.3608H67.8148V111.698Z" fill="white"/>
<path d="M65.8386 111.698H67.8107V96.3608H65.8386V111.698Z" fill="#407BFF"/>
<path opacity="0.6" d="M65.8386 111.698H67.8107V96.3608H65.8386V111.698Z" fill="white"/>
<path d="M77.5851 111.698H80.2132V96.3608H77.5851V111.698Z" fill="#407BFF"/>
<path opacity="0.1" d="M77.5851 111.698H80.2132V96.3608H77.5851V111.698Z" fill="white"/>
<path d="M76.2731 111.698H77.5851V96.3608H76.2731V111.698Z" fill="#407BFF"/>
<path opacity="0.6" d="M76.2731 111.698H77.5851V96.3608H76.2731V111.698Z" fill="white"/>
<path d="M57.6591 135.122H30.4597V156.454H57.6591V135.122Z" fill="#407BFF"/>
<path opacity="0.2" d="M57.6591 135.122H30.4597V156.454H57.6591V135.122Z" fill="white"/>
<path d="M82.2181 135.122H57.6591V156.454H82.2181V135.122Z" fill="#407BFF"/>
<path opacity="0.1" d="M82.2181 135.122H57.6591V156.454H82.2181V135.122Z" fill="white"/>
<path d="M29.447 45.9984V157.416H85.8753V45.9984H29.447ZM83.8458 47.9384V67.9165H31.4765V47.919L83.8458 47.9384ZM31.4765 111.698V91.732H83.8458V111.714L31.4765 111.698ZM83.8458 113.638V133.597H31.4765V113.619L83.8458 113.638ZM31.4765 89.792V69.8177H83.8458V89.792H31.4765ZM31.4765 155.492V135.518H83.8458V155.496L31.4765 155.492Z" fill="#407BFF"/>
<path opacity="0.6" d="M29.447 45.9984V157.416H85.8753V45.9984H29.447ZM83.8458 47.9384V67.9165H31.4765V47.919L83.8458 47.9384ZM31.4765 111.698V91.732H83.8458V111.714L31.4765 111.698ZM83.8458 113.638V133.597H31.4765V113.619L83.8458 113.638ZM31.4765 89.792V69.8177H83.8458V89.792H31.4765ZM31.4765 155.492V135.518H83.8458V155.496L31.4765 155.492Z" fill="white"/>
<path d="M55.5353 144.593H54.6169C54.2939 144.611 53.9902 144.744 53.768 144.967C53.5458 145.189 53.4221 145.484 53.4221 145.79C53.4221 146.096 53.5458 146.391 53.768 146.613C53.9902 146.836 54.2939 146.97 54.6169 146.987H55.5353C55.8583 146.97 56.1621 146.836 56.3842 146.613C56.6064 146.391 56.7302 146.096 56.7302 145.79C56.7302 145.484 56.6064 145.189 56.3842 144.967C56.1621 144.744 55.8583 144.611 55.5353 144.593Z" fill="#407BFF"/>
<path opacity="0.2" d="M55.5353 144.593H54.6169C54.2939 144.611 53.9902 144.744 53.768 144.967C53.5458 145.189 53.4221 145.484 53.4221 145.79C53.4221 146.096 53.5458 146.391 53.768 146.613C53.9902 146.836 54.2939 146.97 54.6169 146.987H55.5353C55.8583 146.97 56.1621 146.836 56.3842 146.613C56.6064 146.391 56.7302 146.096 56.7302 145.79C56.7302 145.484 56.6064 145.189 56.3842 144.967C56.1621 144.744 55.8583 144.611 55.5353 144.593Z" fill="black"/>
<path d="M56.7981 145.788C56.7981 146.025 56.7241 146.256 56.5853 146.452C56.4465 146.649 56.2493 146.802 56.0186 146.892C55.7878 146.983 55.5339 147.006 55.289 146.96C55.044 146.914 54.819 146.8 54.6424 146.633C54.4658 146.466 54.3455 146.253 54.2968 146.021C54.2481 145.79 54.2731 145.549 54.3686 145.331C54.4642 145.112 54.6261 144.926 54.8337 144.795C55.0414 144.663 55.2856 144.593 55.5353 144.593C55.8702 144.593 56.1914 144.719 56.4283 144.943C56.6651 145.167 56.7981 145.471 56.7981 145.788Z" fill="#407BFF"/>
<path d="M60.8571 144.593H59.9387C59.6157 144.611 59.312 144.744 59.0898 144.967C58.8676 145.189 58.7438 145.484 58.7438 145.79C58.7438 146.096 58.8676 146.391 59.0898 146.613C59.312 146.836 59.6157 146.97 59.9387 146.987H60.8571C61.1801 146.97 61.4838 146.836 61.706 146.613C61.9282 146.391 62.052 146.096 62.052 145.79C62.052 145.484 61.9282 145.189 61.706 144.967C61.4838 144.744 61.1801 144.611 60.8571 144.593Z" fill="#407BFF"/>
<path opacity="0.2" d="M60.8571 144.593H59.9387C59.6157 144.611 59.312 144.744 59.0898 144.967C58.8676 145.189 58.7438 145.484 58.7438 145.79C58.7438 146.096 58.8676 146.391 59.0898 146.613C59.312 146.836 59.6157 146.97 59.9387 146.987H60.8571C61.1801 146.97 61.4838 146.836 61.706 146.613C61.9282 146.391 62.052 146.096 62.052 145.79C62.052 145.484 61.9282 145.189 61.706 144.967C61.4838 144.744 61.1801 144.611 60.8571 144.593Z" fill="black"/>
<path d="M62.1199 145.788C62.1199 146.025 62.0458 146.256 61.9071 146.452C61.7683 146.649 61.5711 146.802 61.3404 146.892C61.1096 146.983 60.8557 147.006 60.6107 146.96C60.3658 146.914 60.1408 146.8 59.9642 146.633C59.7876 146.466 59.6673 146.253 59.6186 146.021C59.5698 145.79 59.5948 145.549 59.6904 145.331C59.786 145.112 59.9479 144.926 60.1555 144.795C60.3632 144.663 60.6073 144.593 60.8571 144.593C61.192 144.593 61.5132 144.719 61.75 144.943C61.9869 145.167 62.1199 145.471 62.1199 145.788Z" fill="#407BFF"/>
<path d="M97.3381 153.423H99.1052V144.953H97.3381V153.423Z" fill="#263238"/>
<path opacity="0.4" d="M97.3381 153.423H99.1052V144.953H97.3381V153.423Z" fill="white"/>
<path d="M87.289 139.42H109.163L99.343 144.076V145.36C99.343 145.455 99.3033 145.546 99.2325 145.613C99.1618 145.68 99.0658 145.717 98.9658 145.717H97.4857C97.3853 145.717 97.2889 145.68 97.2175 145.613C97.1461 145.546 97.1055 145.455 97.1044 145.36V144.076L87.289 139.42Z" fill="#263238"/>
<path opacity="0.6" d="M87.289 139.42H109.163L99.343 144.076V145.36C99.343 145.455 99.3033 145.546 99.2325 145.613C99.1618 145.68 99.0658 145.717 98.9658 145.717H97.4857C97.3853 145.717 97.2889 145.68 97.2175 145.613C97.1461 145.546 97.1055 145.455 97.1044 145.36V144.076L87.289 139.42Z" fill="white"/>
<path d="M85.5301 156.919L97.1044 153.237V152.849C97.1044 152.779 97.1188 152.711 97.1468 152.647C97.1749 152.583 97.2159 152.524 97.2677 152.475C97.3195 152.426 97.381 152.388 97.4486 152.361C97.5163 152.335 97.5888 152.321 97.662 152.321H98.7854C98.8586 152.321 98.9311 152.335 98.9988 152.361C99.0664 152.388 99.1279 152.426 99.1797 152.475C99.2315 152.524 99.2725 152.583 99.3006 152.647C99.3286 152.711 99.343 152.779 99.343 152.849V153.237L110.917 156.919C110.987 156.937 111.047 156.979 111.086 157.038C111.124 157.096 111.137 157.166 111.123 157.233C111.109 157.301 111.069 157.36 111.01 157.401C110.951 157.441 110.879 157.459 110.807 157.45L98.2237 156.523L85.6449 157.45C85.5721 157.461 85.4977 157.445 85.4373 157.405C85.3768 157.365 85.3348 157.305 85.3201 157.236C85.3053 157.168 85.3189 157.097 85.358 157.038C85.3971 156.979 85.4587 156.936 85.5301 156.919Z" fill="#263238"/>
<path opacity="0.2" d="M85.5301 156.919L97.1044 153.237V152.849C97.1044 152.779 97.1188 152.711 97.1468 152.647C97.1749 152.583 97.2159 152.524 97.2677 152.475C97.3195 152.426 97.381 152.388 97.4486 152.361C97.5163 152.335 97.5888 152.321 97.662 152.321H98.7854C98.8586 152.321 98.9311 152.335 98.9988 152.361C99.0664 152.388 99.1279 152.426 99.1797 152.475C99.2315 152.524 99.2725 152.583 99.3006 152.647C99.3286 152.711 99.343 152.779 99.343 152.849V153.237L110.917 156.919C110.987 156.937 111.047 156.979 111.086 157.038C111.124 157.096 111.137 157.166 111.123 157.233C111.109 157.301 111.069 157.36 111.01 157.401C110.951 157.441 110.879 157.459 110.807 157.45L98.2237 156.523L85.6449 157.45C85.5721 157.461 85.4977 157.445 85.4373 157.405C85.3768 157.365 85.3348 157.305 85.3201 157.236C85.3053 157.168 85.3189 157.097 85.358 157.038C85.3971 156.979 85.4587 156.936 85.5301 156.919Z" fill="white"/>
<path d="M97.744 157.45H98.7034V153.877C98.7034 153.756 98.6528 153.641 98.5629 153.556C98.4729 153.471 98.3509 153.423 98.2237 153.423C98.0964 153.423 97.9744 153.471 97.8845 153.556C97.7945 153.641 97.744 153.756 97.744 153.877V157.45Z" fill="#263238"/>
<path opacity="0.1" d="M97.744 157.45H98.7034V153.877C98.7034 153.756 98.6528 153.641 98.5629 153.556C98.4729 153.471 98.3509 153.423 98.2237 153.423C98.0964 153.423 97.9744 153.471 97.8845 153.556C97.7945 153.641 97.744 153.756 97.744 153.877V157.45Z" fill="white"/>
<path opacity="0.1" d="M109.163 139.42H87.289L91.348 141.341L105.001 141.391L109.163 139.42Z" fill="black"/>
<path d="M111.729 158.304C111.892 158.304 112.049 158.243 112.164 158.133C112.279 158.024 112.344 157.876 112.344 157.722V156.674C112.344 156.52 112.279 156.372 112.164 156.263C112.049 156.154 111.892 156.092 111.729 156.092C111.566 156.093 111.411 156.155 111.295 156.264C111.18 156.373 111.115 156.52 111.114 156.674V157.706C111.112 157.784 111.126 157.861 111.156 157.934C111.186 158.006 111.231 158.072 111.288 158.128C111.346 158.184 111.414 158.228 111.49 158.258C111.566 158.288 111.647 158.304 111.729 158.304Z" fill="#263238"/>
<path d="M84.7183 158.304C84.8814 158.304 85.0378 158.243 85.1532 158.133C85.2685 158.024 85.3333 157.876 85.3333 157.722V156.674C85.3333 156.52 85.2685 156.372 85.1532 156.263C85.0378 156.154 84.8814 156.092 84.7183 156.092C84.5552 156.092 84.3988 156.154 84.2834 156.263C84.1681 156.372 84.1033 156.52 84.1033 156.674V157.706C84.1011 157.784 84.1154 157.861 84.1453 157.934C84.1753 158.006 84.2202 158.072 84.2775 158.128C84.3349 158.184 84.4034 158.228 84.4791 158.258C84.5548 158.288 84.6361 158.304 84.7183 158.304Z" fill="#263238"/>
<path d="M98.2237 158.304C98.3868 158.304 98.5432 158.243 98.6585 158.133C98.7739 158.024 98.8387 157.876 98.8387 157.722V156.674C98.8387 156.52 98.7739 156.372 98.6585 156.263C98.5432 156.154 98.3868 156.092 98.2237 156.092C98.0606 156.092 97.9041 156.154 97.7888 156.263C97.6735 156.372 97.6087 156.52 97.6087 156.674V157.706C97.6065 157.784 97.6208 157.861 97.6507 157.934C97.6806 158.006 97.7256 158.072 97.7829 158.128C97.8402 158.184 97.9088 158.228 97.9845 158.258C98.0602 158.288 98.1415 158.304 98.2237 158.304Z" fill="#263238"/>
<path d="M110.52 133.98C111.112 134.448 111.584 135.036 111.9 135.702C112.216 136.367 112.368 137.092 112.344 137.821V139.68H84.1033L80.1263 137.212V135.369C80.1263 134.007 80.6982 132.7 81.7162 131.737C82.7342 130.773 84.115 130.232 85.5547 130.232H102.939C103.971 130.231 104.983 130.51 105.854 131.035C107.035 131.734 109.408 133.165 110.52 133.98Z" fill="#263238"/>
<path opacity="0.4" d="M110.52 133.98C111.112 134.448 111.584 135.036 111.9 135.702C112.216 136.367 112.368 137.092 112.344 137.821V139.68H84.1033L80.1263 137.212V135.369C80.1263 134.007 80.6982 132.7 81.7162 131.737C82.7342 130.773 84.115 130.232 85.5547 130.232H102.939C103.971 130.231 104.983 130.51 105.854 131.035C107.035 131.734 109.408 133.165 110.52 133.98Z" fill="white"/>
<path d="M84.1033 139.68H112.34V137.837C112.341 137.162 112.201 136.494 111.928 135.871C111.656 135.247 111.257 134.681 110.753 134.203C110.249 133.726 109.651 133.347 108.993 133.088C108.334 132.83 107.629 132.696 106.916 132.696H89.5317C88.092 132.696 86.7112 133.237 85.6932 134.201C84.6752 135.164 84.1033 136.471 84.1033 137.833V139.68Z" fill="#407BFF"/>
<path opacity="0.6" d="M84.1033 139.68H112.34V137.837C112.341 137.162 112.201 136.494 111.928 135.871C111.656 135.247 111.257 134.681 110.753 134.203C110.249 133.726 109.651 133.347 108.993 133.088C108.334 132.83 107.629 132.696 106.916 132.696H89.5317C88.092 132.696 86.7112 133.237 85.6932 134.201C84.6752 135.164 84.1033 136.471 84.1033 137.833V139.68Z" fill="white"/>
<path d="M144.832 150.641H147.321V144.018H144.832V150.641Z" fill="#263238"/>
<path opacity="0.4" d="M144.832 150.641H147.321V144.018H144.832V150.641Z" fill="white"/>
<path d="M130.683 136.238H161.474L147.653 142.784V144.592C147.653 144.726 147.597 144.854 147.497 144.949C147.397 145.043 147.262 145.096 147.12 145.096H145.037C144.896 145.096 144.761 145.043 144.661 144.949C144.561 144.854 144.504 144.726 144.504 144.592V142.784L130.683 136.238Z" fill="#263238"/>
<path opacity="0.6" d="M130.683 136.238H161.474L147.653 142.784V144.592C147.653 144.726 147.597 144.854 147.497 144.949C147.397 145.043 147.262 145.096 147.12 145.096H145.037C144.896 145.096 144.761 145.043 144.661 144.949C144.561 144.854 144.504 144.726 144.504 144.592V142.784L130.683 136.238Z" fill="white"/>
<path d="M128.211 156.329L144.504 151.145V150.575C144.506 150.378 144.589 150.19 144.736 150.051C144.884 149.912 145.084 149.834 145.292 149.834H146.87C147.078 149.835 147.276 149.913 147.423 150.052C147.569 150.191 147.652 150.379 147.653 150.575V151.145L163.951 156.329C164.041 156.362 164.115 156.425 164.161 156.505C164.207 156.586 164.222 156.679 164.202 156.769C164.183 156.858 164.13 156.939 164.054 156.995C163.978 157.052 163.883 157.081 163.787 157.078L146.079 155.77L128.371 157.078C128.275 157.08 128.181 157.05 128.106 156.993C128.03 156.936 127.979 156.856 127.96 156.767C127.941 156.677 127.955 156.585 128.001 156.505C128.047 156.425 128.122 156.362 128.211 156.329Z" fill="#263238"/>
<path opacity="0.2" d="M128.211 156.329L144.504 151.145V150.575C144.506 150.378 144.589 150.19 144.736 150.051C144.884 149.912 145.084 149.834 145.292 149.834H146.87C147.078 149.835 147.276 149.913 147.423 150.052C147.569 150.191 147.652 150.379 147.653 150.575V151.145L163.951 156.329C164.041 156.362 164.115 156.425 164.161 156.505C164.207 156.586 164.222 156.679 164.202 156.769C164.183 156.858 164.13 156.939 164.054 156.995C163.978 157.052 163.883 157.081 163.787 157.078L146.079 155.77L128.371 157.078C128.275 157.08 128.181 157.05 128.106 156.993C128.03 156.936 127.979 156.856 127.96 156.767C127.941 156.677 127.955 156.585 128.001 156.505C128.047 156.425 128.122 156.362 128.211 156.329Z" fill="white"/>
<path d="M146.755 157.078H145.402V151.968C145.402 151.82 145.465 151.678 145.575 151.573C145.686 151.468 145.836 151.409 145.993 151.409H146.165C146.322 151.409 146.472 151.468 146.582 151.573C146.693 151.678 146.755 151.82 146.755 151.968V157.078Z" fill="#263238"/>
<path opacity="0.1" d="M146.755 157.078H145.402V151.968C145.402 151.82 145.465 151.678 145.575 151.573C145.686 151.468 145.836 151.409 145.993 151.409H146.165C146.322 151.409 146.472 151.468 146.582 151.573C146.693 151.678 146.755 151.82 146.755 151.968V157.078Z" fill="white"/>
<path opacity="0.1" d="M130.683 136.238H161.474L151.495 140.96L136.415 138.947L130.683 136.238Z" fill="black"/>
<path d="M164.984 158.257H165.205C165.622 158.257 165.96 157.938 165.96 157.543V155.883C165.96 155.488 165.622 155.169 165.205 155.169H164.984C164.567 155.169 164.23 155.488 164.23 155.883V157.543C164.23 157.938 164.567 158.257 164.984 158.257Z" fill="#263238"/>
<path d="M126.957 158.257H127.178C127.595 158.257 127.932 157.938 127.932 157.543V155.883C127.932 155.488 127.595 155.169 127.178 155.169H126.957C126.54 155.169 126.202 155.488 126.202 155.883V157.543C126.202 157.938 126.54 158.257 126.957 158.257Z" fill="#263238"/>
<path d="M145.968 158.257H146.19C146.606 158.257 146.944 157.938 146.944 157.543V155.883C146.944 155.488 146.606 155.169 146.19 155.169H145.968C145.552 155.169 145.214 155.488 145.214 155.883V157.543C145.214 157.938 145.552 158.257 145.968 158.257Z" fill="#263238"/>
<path d="M170.398 115.466L172.315 115.655L173.106 108.457L171.19 108.269L170.398 115.466Z" fill="#263238"/>
<path opacity="0.5" d="M170.398 115.466L172.315 115.655L173.106 108.457L171.19 108.269L170.398 115.466Z" fill="white"/>
<path d="M161.572 114.592L163.489 114.78L164.28 107.583L162.363 107.394L161.572 114.592Z" fill="#263238"/>
<path opacity="0.5" d="M161.572 114.592L163.489 114.78L164.28 107.583L162.363 107.394L161.572 114.592Z" fill="white"/>
<path d="M162.196 91.4671L180.478 93.2713L178.641 109.979L159.556 108.097C158.275 107.971 157.1 107.368 156.288 106.423C155.476 105.477 155.094 104.265 155.226 103.053L155.857 97.3182C156.247 93.7796 158.461 91.1024 162.196 91.4671Z" fill="#263238"/>
<path opacity="0.4" d="M162.196 91.4671L180.478 93.2713L178.641 109.979L159.556 108.097C158.275 107.971 157.1 107.368 156.288 106.423C155.476 105.477 155.094 104.265 155.226 103.053L155.857 97.3182C156.247 93.7796 158.461 91.1024 162.196 91.4671Z" fill="white"/>
<path d="M147.096 122.391C147.68 122.451 148.271 122.401 148.836 122.244C149.4 122.088 149.925 121.827 150.383 121.477C150.84 121.127 151.22 120.695 151.5 120.206C151.78 119.717 151.955 119.18 152.016 118.627L152.393 115.209C152.543 113.884 153.241 112.669 154.334 111.83C155.427 110.99 156.826 110.594 158.227 110.727L158.953 110.801L156.313 134.636L152.278 134.248C151.754 134.196 151.273 133.95 150.941 133.563C150.609 133.176 150.453 132.68 150.507 132.184C150.589 131.443 150.413 130.696 150.005 130.059C149.597 129.421 148.98 128.928 148.248 128.653L145.722 127.698C145.134 127.478 144.639 127.081 144.311 126.569C143.983 126.057 143.841 125.458 143.906 124.862C143.942 124.501 144.054 124.15 144.234 123.83C144.415 123.51 144.66 123.227 144.957 122.997C145.253 122.768 145.595 122.596 145.962 122.492C146.329 122.387 146.714 122.353 147.096 122.391Z" fill="#407BFF"/>
<path opacity="0.3" d="M147.096 122.391C147.68 122.451 148.271 122.401 148.836 122.244C149.4 122.088 149.925 121.827 150.383 121.477C150.84 121.127 151.22 120.695 151.5 120.206C151.78 119.717 151.955 119.18 152.016 118.627L152.393 115.209C152.543 113.884 153.241 112.669 154.334 111.83C155.427 110.99 156.826 110.594 158.227 110.727L158.953 110.801L156.313 134.636L152.278 134.248C151.754 134.196 151.273 133.95 150.941 133.563C150.609 133.176 150.453 132.68 150.507 132.184C150.589 131.443 150.413 130.696 150.005 130.059C149.597 129.421 148.98 128.928 148.248 128.653L145.722 127.698C145.134 127.478 144.639 127.081 144.311 126.569C143.983 126.057 143.841 125.458 143.906 124.862C143.942 124.501 144.054 124.15 144.234 123.83C144.415 123.51 144.66 123.227 144.957 122.997C145.253 122.768 145.595 122.596 145.962 122.492C146.329 122.387 146.714 122.353 147.096 122.391Z" fill="white"/>
<path d="M148.219 122.499C148.804 122.56 149.395 122.51 149.959 122.353C150.523 122.196 151.049 121.935 151.506 121.586C151.963 121.236 152.343 120.804 152.623 120.315C152.903 119.826 153.079 119.289 153.139 118.736L153.512 115.321C153.662 113.996 154.36 112.78 155.454 111.941C156.548 111.101 157.949 110.705 159.351 110.84L160.076 110.91L157.44 134.729L153.406 134.341C153.146 134.316 152.894 134.242 152.665 134.125C152.435 134.008 152.232 133.848 152.067 133.657C151.903 133.465 151.78 133.244 151.706 133.008C151.631 132.771 151.607 132.523 151.634 132.277C151.716 131.536 151.539 130.79 151.132 130.152C150.724 129.515 150.107 129.021 149.375 128.746L146.85 127.796C146.261 127.575 145.765 127.179 145.437 126.667C145.109 126.154 144.968 125.555 145.033 124.959C145.072 124.6 145.185 124.251 145.366 123.933C145.547 123.615 145.792 123.333 146.088 123.105C146.384 122.876 146.724 122.705 147.09 122.601C147.455 122.498 147.839 122.463 148.219 122.499Z" fill="#407BFF"/>
<path opacity="0.1" d="M148.219 122.499C148.804 122.56 149.395 122.51 149.959 122.353C150.523 122.196 151.049 121.935 151.506 121.586C151.963 121.236 152.343 120.804 152.623 120.315C152.903 119.826 153.079 119.289 153.139 118.736L153.512 115.321C153.662 113.996 154.36 112.78 155.454 111.941C156.548 111.101 157.949 110.705 159.351 110.84L160.076 110.91L157.44 134.729L153.406 134.341C153.146 134.316 152.894 134.242 152.665 134.125C152.435 134.008 152.232 133.848 152.067 133.657C151.903 133.465 151.78 133.244 151.706 133.008C151.631 132.771 151.607 132.523 151.634 132.277C151.716 131.536 151.539 130.79 151.132 130.152C150.724 129.515 150.107 129.021 149.375 128.746L146.85 127.796C146.261 127.575 145.765 127.179 145.437 126.667C145.109 126.154 144.968 125.555 145.033 124.959C145.072 124.6 145.185 124.251 145.366 123.933C145.547 123.615 145.792 123.333 146.088 123.105C146.384 122.876 146.724 122.705 147.09 122.601C147.455 122.498 147.839 122.463 148.219 122.499Z" fill="white"/>
<path d="M159.334 110.84L178.35 112.71L175.73 136.529L153.418 134.329C153.158 134.304 152.906 134.231 152.677 134.113C152.447 133.996 152.244 133.837 152.08 133.645C151.915 133.453 151.792 133.233 151.718 132.996C151.644 132.759 151.619 132.511 151.647 132.265L153.508 115.321C153.658 113.998 154.355 112.784 155.446 111.945C156.537 111.106 157.935 110.708 159.334 110.84Z" fill="#263238"/>
<path opacity="0.4" d="M159.334 110.84L178.35 112.71L175.73 136.529L153.418 134.329C153.158 134.304 152.906 134.231 152.677 134.113C152.447 133.996 152.244 133.837 152.08 133.645C151.915 133.453 151.792 133.233 151.718 132.996C151.644 132.759 151.619 132.511 151.647 132.265L153.508 115.321C153.658 113.998 154.355 112.784 155.446 111.945C156.537 111.106 157.935 110.708 159.334 110.84Z" fill="white"/>
<path d="M116.481 125.933L125.46 126.814C125.849 126.854 126.243 126.82 126.619 126.716C126.995 126.611 127.345 126.438 127.65 126.205C127.954 125.972 128.208 125.685 128.395 125.359C128.582 125.033 128.699 124.676 128.74 124.307C128.757 124.137 128.809 123.972 128.894 123.822C128.979 123.671 129.094 123.538 129.234 123.429C129.373 123.321 129.534 123.24 129.707 123.191C129.88 123.142 130.061 123.126 130.241 123.143L133.931 123.508L132.446 137.014L110.503 134.853L111.02 130.155C111.16 128.912 111.811 127.772 112.834 126.982C113.856 126.192 115.167 125.815 116.481 125.933Z" fill="#407BFF"/>
<path opacity="0.3" d="M116.481 125.933L125.46 126.814C125.849 126.854 126.243 126.82 126.619 126.716C126.995 126.611 127.345 126.438 127.65 126.205C127.954 125.972 128.208 125.685 128.395 125.359C128.582 125.033 128.699 124.676 128.74 124.307C128.757 124.137 128.809 123.972 128.894 123.822C128.979 123.671 129.094 123.538 129.234 123.429C129.373 123.321 129.534 123.24 129.707 123.191C129.88 123.142 130.061 123.126 130.241 123.143L133.931 123.508L132.446 137.014L110.503 134.853L111.02 130.155C111.16 128.912 111.811 127.772 112.834 126.982C113.856 126.192 115.167 125.815 116.481 125.933Z" fill="white"/>
<path d="M129.97 124.428C129.987 124.258 130.04 124.092 130.125 123.942C130.211 123.791 130.326 123.657 130.466 123.549C130.606 123.441 130.767 123.36 130.94 123.311C131.113 123.262 131.295 123.246 131.475 123.264L141.524 124.253C141.704 124.27 141.878 124.32 142.037 124.4C142.197 124.481 142.338 124.59 142.452 124.723C142.566 124.855 142.652 125.008 142.704 125.171C142.755 125.335 142.772 125.507 142.754 125.677C142.711 126.046 142.746 126.419 142.857 126.775C142.967 127.131 143.151 127.463 143.397 127.752C143.644 128.04 143.948 128.28 144.293 128.456C144.638 128.633 145.016 128.743 145.406 128.781L145.911 128.831C146.566 128.896 147.201 129.082 147.78 129.379C148.359 129.675 148.871 130.077 149.286 130.561C149.701 131.045 150.011 131.601 150.199 132.199C150.386 132.796 150.448 133.422 150.38 134.042L149.863 138.745L111.733 134.989L112.25 130.286C112.388 129.035 113.046 127.887 114.079 127.095C115.111 126.303 116.434 125.931 117.756 126.061L126.69 126.938C127.08 126.978 127.474 126.944 127.85 126.84C128.226 126.735 128.576 126.561 128.881 126.328C129.186 126.094 129.439 125.806 129.626 125.48C129.813 125.154 129.93 124.797 129.97 124.428Z" fill="#407BFF"/>
<path opacity="0.1" d="M129.97 124.428C129.987 124.258 130.04 124.092 130.125 123.942C130.211 123.791 130.326 123.657 130.466 123.549C130.606 123.441 130.767 123.36 130.94 123.311C131.113 123.262 131.295 123.246 131.475 123.264L141.524 124.253C141.704 124.27 141.878 124.32 142.037 124.4C142.197 124.481 142.338 124.59 142.452 124.723C142.566 124.855 142.652 125.008 142.704 125.171C142.755 125.335 142.772 125.507 142.754 125.677C142.711 126.046 142.746 126.419 142.857 126.775C142.967 127.131 143.151 127.463 143.397 127.752C143.644 128.04 143.948 128.28 144.293 128.456C144.638 128.633 145.016 128.743 145.406 128.781L145.911 128.831C146.566 128.896 147.201 129.082 147.78 129.379C148.359 129.675 148.871 130.077 149.286 130.561C149.701 131.045 150.011 131.601 150.199 132.199C150.386 132.796 150.448 133.422 150.38 134.042L149.863 138.745L111.733 134.989L112.25 130.286C112.388 129.035 113.046 127.887 114.079 127.095C115.111 126.303 116.434 125.931 117.756 126.061L126.69 126.938C127.08 126.978 127.474 126.944 127.85 126.84C128.226 126.735 128.576 126.561 128.881 126.328C129.186 126.094 129.439 125.806 129.626 125.48C129.813 125.154 129.93 124.797 129.97 124.428Z" fill="white"/>
<path d="M138.043 128.04L138.547 128.09C139.202 128.155 139.837 128.341 140.416 128.637C140.995 128.934 141.507 129.336 141.922 129.82C142.337 130.304 142.647 130.86 142.835 131.458C143.023 132.055 143.084 132.681 143.016 133.301L142.5 138.004L111.709 134.97L112.225 130.267C112.364 129.016 113.021 127.868 114.054 127.076C115.087 126.283 116.409 125.911 117.731 126.042L126.69 126.938L138.043 128.04Z" fill="#263238"/>
<path opacity="0.4" d="M138.043 128.04L138.547 128.09C139.202 128.155 139.837 128.341 140.416 128.637C140.995 128.934 141.507 129.336 141.922 129.82C142.337 130.304 142.647 130.86 142.835 131.458C143.023 132.055 143.084 132.681 143.016 133.301L142.5 138.004L111.709 134.97L112.225 130.267C112.364 129.016 113.021 127.868 114.054 127.076C115.087 126.283 116.409 125.911 117.731 126.042L126.69 126.938L138.043 128.04Z" fill="white"/>
<path d="M162.188 126.639C162.267 125.915 162.648 125.25 163.245 124.791C163.842 124.332 164.608 124.116 165.374 124.191C165.958 124.251 166.549 124.201 167.113 124.044C167.677 123.887 168.202 123.626 168.659 123.276C169.116 122.926 169.496 122.495 169.777 122.006C170.057 121.517 170.233 120.981 170.294 120.427L170.667 117.009C170.815 115.685 171.51 114.47 172.6 113.629C173.691 112.788 175.089 112.39 176.489 112.52L177.214 112.594C177.35 112.594 177.485 112.594 177.624 112.617L178.346 112.687L175.726 136.506L174.603 136.394L170.568 136.006C170.309 135.98 170.057 135.907 169.827 135.79C169.597 135.672 169.395 135.513 169.23 135.321C169.066 135.13 168.943 134.909 168.868 134.672C168.794 134.435 168.77 134.187 168.797 133.941C168.879 133.2 168.703 132.454 168.295 131.816C167.887 131.179 167.27 130.685 166.538 130.411L164 129.476C163.413 129.254 162.918 128.857 162.591 128.345C162.264 127.833 162.122 127.234 162.188 126.639Z" fill="#407BFF"/>
<path opacity="0.3" d="M162.188 126.639C162.267 125.915 162.648 125.25 163.245 124.791C163.842 124.332 164.608 124.116 165.374 124.191C165.958 124.251 166.549 124.201 167.113 124.044C167.677 123.887 168.202 123.626 168.659 123.276C169.116 122.926 169.496 122.495 169.777 122.006C170.057 121.517 170.233 120.981 170.294 120.427L170.667 117.009C170.815 115.685 171.51 114.47 172.6 113.629C173.691 112.788 175.089 112.39 176.489 112.52L177.214 112.594C177.35 112.594 177.485 112.594 177.624 112.617L178.346 112.687L175.726 136.506L174.603 136.394L170.568 136.006C170.309 135.98 170.057 135.907 169.827 135.79C169.597 135.672 169.395 135.513 169.23 135.321C169.066 135.13 168.943 134.909 168.868 134.672C168.794 134.435 168.77 134.187 168.797 133.941C168.879 133.2 168.703 132.454 168.295 131.816C167.887 131.179 167.27 130.685 166.538 130.411L164 129.476C163.413 129.254 162.918 128.857 162.591 128.345C162.264 127.833 162.122 127.234 162.188 126.639Z" fill="white"/>
<path opacity="0.4" d="M166.501 124.303C167.085 124.363 167.676 124.312 168.24 124.155C168.803 123.998 169.329 123.737 169.786 123.387C170.243 123.038 170.622 122.606 170.903 122.118C171.184 121.629 171.36 121.093 171.421 120.54L171.794 117.122C171.944 115.796 172.642 114.581 173.736 113.741C174.83 112.901 176.231 112.505 177.633 112.64L178.354 112.71L175.734 136.529L171.7 136.141C171.44 136.116 171.189 136.043 170.959 135.925C170.73 135.808 170.527 135.649 170.363 135.457C170.199 135.265 170.076 135.044 170.002 134.808C169.929 134.571 169.905 134.323 169.933 134.077C170.014 133.336 169.838 132.59 169.43 131.953C169.022 131.315 168.405 130.822 167.674 130.546L165.128 129.592C164.54 129.37 164.046 128.974 163.718 128.462C163.391 127.95 163.25 127.351 163.315 126.756C163.354 126.396 163.467 126.048 163.648 125.73C163.829 125.412 164.074 125.131 164.37 124.904C164.666 124.676 165.007 124.506 165.372 124.403C165.738 124.3 166.122 124.266 166.501 124.303Z" fill="white"/>
<path d="M160.982 117.587L150.06 112.027C150.06 112.027 148.883 114.25 147.268 114.216C145.652 114.181 126.567 108.275 123.041 108.97C121.401 109.296 116.481 112.462 111.692 115.713L115.005 120.427C117.254 119.371 119.443 118.206 121.565 116.935C121.975 116.679 122.36 116.431 122.697 116.19C123.243 115.797 123.898 115.563 124.582 115.516C125.266 115.469 125.95 115.612 126.551 115.927L127.547 116.454C132.373 119.011 141.122 123.593 143.746 124.629C147.436 126.084 149.129 130.244 155.374 128.121C161.618 125.999 160.982 117.587 160.982 117.587Z" fill="#407BFF"/>
<path opacity="0.1" d="M160.982 117.587L150.06 112.027C150.06 112.027 148.883 114.25 147.268 114.216C145.652 114.181 126.567 108.275 123.041 108.97C121.401 109.296 116.481 112.462 111.692 115.713L115.005 120.427C117.254 119.371 119.443 118.206 121.565 116.935C121.975 116.679 122.36 116.431 122.697 116.19C123.243 115.797 123.898 115.563 124.582 115.516C125.266 115.469 125.95 115.612 126.551 115.927L127.547 116.454C132.373 119.011 141.122 123.593 143.746 124.629C147.436 126.084 149.129 130.244 155.374 128.121C161.618 125.999 160.982 117.587 160.982 117.587Z" fill="black"/>
<path opacity="0.1" d="M145.181 117.448C142.594 118.061 132.061 116.939 127.395 116.396L127.535 116.47C130.499 118.041 134.947 120.377 138.543 122.185L144.054 121.2L150.544 118.484L149.826 114.914C149.826 114.914 148.523 116.652 145.181 117.448Z" fill="black"/>
<path d="M163.774 119.811C163.774 119.811 160.47 134.861 152.249 132.58C144.841 130.527 135.226 127.051 127.006 124.501L126.727 124.416C126.08 124.219 125.399 124.146 124.722 124.202C124.045 124.258 123.387 124.442 122.787 124.742H122.746C120.241 125.96 114.046 127.935 99.2446 129.033L98.5107 126.298C98.5107 126.298 114.222 121.056 117.67 119.671C121.118 118.286 122.59 116.683 126.657 117.448C130.724 118.212 144.832 119.252 146.595 118.282C149.109 116.893 150.9 113.001 150.9 113.001L163.774 119.811Z" fill="#407BFF"/>
<path d="M98.9289 125.774L100.663 128.921C100.695 128.978 100.706 129.043 100.693 129.107C100.681 129.17 100.645 129.228 100.593 129.27L98.1991 131.175C98.0978 131.257 97.9663 131.298 97.8334 131.288C97.7005 131.279 97.5769 131.22 97.4898 131.125C97.4683 131.098 97.4491 131.069 97.4324 131.039C96.8256 129.875 96.3377 128.855 95.5546 127.442C94.6362 125.774 94.6567 126.302 93.5497 124.338C92.8814 123.174 94.1811 122.251 94.5255 122.717C96.0958 124.858 96.9568 124.734 98.3098 125.192C98.5864 125.305 98.8076 125.513 98.9289 125.774Z" fill="#263238"/>
<path d="M158.121 91.9909C158.121 91.9909 153.992 90.4389 151.13 99.4017L154.623 102.164L158.121 91.9909Z" fill="#263238"/>
<path d="M158.121 91.9909C158.121 91.9909 153.992 90.4389 151.13 99.4017L154.623 102.164L158.121 91.9909Z" fill="black"/>
<path d="M145.181 100.965C145.181 100.965 145.525 111.538 149.49 110.968C152.504 110.533 154.599 101.268 154.599 101.268L151.782 99.4055L149.347 107.065C149.347 107.065 146.37 102.432 146.616 100.558C146.657 100.209 145.181 100.965 145.181 100.965Z" fill="#7F3E3B"/>
<path opacity="0.1" d="M145.181 100.965C145.181 100.965 145.525 111.538 149.49 110.968C152.504 110.533 154.599 101.268 154.599 101.268L151.782 99.4055L149.347 107.065C149.347 107.065 146.37 102.432 146.616 100.558C146.657 100.209 145.181 100.965 145.181 100.965Z" fill="black"/>
<path d="M148.457 113.168C148.457 113.168 152.012 108.31 152.7 103.623C153.389 98.9361 155.751 91.8706 158.121 91.9831C160.49 92.0957 172.549 95.4751 172.438 98.6141C172.327 101.753 163.959 120.497 163.959 120.497C163.959 120.497 155.308 115.841 148.457 113.168Z" fill="#263238"/>
<path d="M148.047 92.2354C148.047 92.2354 150.097 93.442 150.593 100.383H148.047V92.2354Z" fill="#263238"/>
<path opacity="0.8" d="M148.047 92.2354C148.047 92.2354 150.097 93.442 150.593 100.383H148.047V92.2354Z" fill="white"/>
<path d="M149.203 96.8758C149.203 96.8758 150.109 92.3944 146.477 91.3778L145.55 92.5767L147.936 96.9999L149.203 96.8758Z" fill="#263238"/>
<path opacity="0.6" d="M149.203 96.8758C149.203 96.8758 150.109 92.3944 146.477 91.3778L145.55 92.5767L147.936 96.9999L149.203 96.8758Z" fill="white"/>
<path d="M148.982 97.3181C148.982 97.3181 150.495 92.6272 154.845 92.4448L155.8 99.0408L148.982 99.7159V97.3181Z" fill="#263238"/>
<path opacity="0.7" d="M148.982 97.3181C148.982 97.3181 150.495 92.6272 154.845 92.4448L155.8 99.0408L148.982 99.7159V97.3181Z" fill="white"/>
<path d="M149.203 96.8758C149.203 96.8758 150.843 93.5118 155.287 94.0356L155.808 95.6768V96.9999L149.347 97.9117L149.203 96.8758Z" fill="#263238"/>
<path opacity="0.8" d="M149.203 96.8758C149.203 96.8758 150.843 93.5118 155.287 94.0356L155.808 95.6768V96.9999L149.347 97.9117L149.203 96.8758Z" fill="white"/>
<path d="M149.769 96.7012L150.589 104.997C150.589 104.997 151.602 102.738 157.6 104.197L156.444 95.5488C156.444 95.5488 153.402 93.7175 149.769 96.7012Z" fill="#407BFF"/>
<path d="M148.391 96.2472C148.391 96.2472 148.481 92.4603 145.181 92.1111L146.784 102.199C146.784 102.199 148.703 102.114 149.347 104.64L148.391 96.2472Z" fill="#407BFF"/>
<path d="M150.593 104.997L149.769 96.7012L148.391 96.2472L149.347 104.659L150.593 104.997Z" fill="#407BFF"/>
<path opacity="0.3" d="M150.593 104.997L149.769 96.7012L148.391 96.2472L149.347 104.659L150.593 104.997Z" fill="black"/>
<path d="M145.029 98.8662L145.849 98.389C146.031 98.2809 146.249 98.2413 146.46 98.278C146.671 98.3146 146.86 98.4248 146.989 98.5869L147.223 98.8856C147.294 98.9743 147.345 99.0759 147.372 99.1841C147.4 99.2923 147.403 99.4047 147.383 99.5142L146.882 102.18C146.857 102.318 146.794 102.448 146.699 102.557C146.604 102.665 146.481 102.748 146.341 102.797L145.96 102.932C145.892 102.956 145.82 102.966 145.748 102.961C145.676 102.956 145.606 102.936 145.543 102.903C145.48 102.869 145.425 102.824 145.382 102.769C145.34 102.713 145.31 102.65 145.296 102.583L144.644 99.716C144.61 99.554 144.628 99.3861 144.697 99.2344C144.766 99.0826 144.882 98.9542 145.029 98.8662Z" fill="#7F3E3B"/>
<path opacity="0.1" d="M145.029 98.8662L145.849 98.389C146.031 98.2809 146.249 98.2413 146.46 98.278C146.671 98.3146 146.86 98.4248 146.989 98.5869L147.223 98.8856C147.294 98.9743 147.345 99.0759 147.372 99.1841C147.4 99.2923 147.403 99.4047 147.383 99.5142L146.882 102.18C146.857 102.318 146.794 102.448 146.699 102.557C146.604 102.665 146.481 102.748 146.341 102.797L145.96 102.932C145.892 102.956 145.82 102.966 145.748 102.961C145.676 102.956 145.606 102.936 145.543 102.903C145.48 102.869 145.425 102.824 145.382 102.769C145.34 102.713 145.31 102.65 145.296 102.583L144.644 99.716C144.61 99.554 144.628 99.3861 144.697 99.2344C144.766 99.0826 144.882 98.9542 145.029 98.8662Z" fill="white"/>
<path d="M170.97 105.777C170.97 105.777 166.403 114.669 164.275 114.805C162.147 114.941 156.554 106.7 156.554 106.7L152.955 105.877C152.849 105.854 152.749 105.811 152.66 105.751C152.572 105.691 152.497 105.615 152.441 105.527C152.384 105.439 152.346 105.342 152.329 105.24C152.313 105.138 152.318 105.034 152.344 104.935L153.016 102.3C153.044 102.188 153.098 102.083 153.174 101.993C153.249 101.903 153.346 101.831 153.455 101.78L153.959 101.547C154.137 101.463 154.34 101.442 154.533 101.489C154.725 101.537 154.893 101.648 155.005 101.803L157.567 105.14L163.775 109.575L167.079 104.302L170.97 105.777Z" fill="#7F3E3B"/>
<path d="M170.416 98.2027C170.826 97.6556 172.29 96.189 172.876 99.5917C173.463 102.995 170.54 108 170.54 108L165.902 105.284C165.902 105.284 169.125 99.8711 170.416 98.2027Z" fill="#263238"/>
<path d="M170.416 98.2027C170.826 97.6556 172.29 96.189 172.876 99.5917C173.463 102.995 170.54 108 170.54 108L165.902 105.284C165.902 105.284 169.125 99.8711 170.416 98.2027Z" fill="black"/>
<path opacity="0.3" d="M150.732 98.905L150.872 100.158C152.416 99.5081 154.134 99.3252 155.792 99.6345L155.636 98.3424C155.636 98.3424 153.807 97.5587 150.732 98.905Z" fill="white"/>
<path d="M166.485 79.6292C166.485 79.6292 164.845 75.4853 166.075 74.5852C167.305 73.685 166.772 76.2536 166.772 76.2536C166.772 76.2536 167.559 73.0526 168.719 73.3513C169.879 73.6501 168.112 76.6183 168.112 76.6183C168.112 76.6183 170.831 73.8519 171.392 74.5192C171.954 75.1866 169.56 77.2857 169.56 77.2857C169.56 77.2857 172.344 75.7763 172.872 76.4825C173.401 77.1887 170.371 78.2207 170.371 78.2207C170.371 78.2207 173.508 77.953 173.401 78.8532C173.295 79.7533 170.216 79.6292 170.216 79.6292C170.216 79.6292 172.626 79.8542 172.266 80.7233C171.905 81.5925 168.141 79.8736 167.296 80.3353L166.485 79.6292Z" fill="#263238"/>
<path d="M168.481 80.3159C168.481 80.6085 168.39 80.8944 168.218 81.1376C168.046 81.3808 167.802 81.5703 167.516 81.6821C167.23 81.7938 166.916 81.8229 166.613 81.7655C166.31 81.7082 166.031 81.567 165.813 81.3599C165.595 81.1527 165.446 80.889 165.387 80.6019C165.327 80.3149 165.358 80.0176 165.477 79.7475C165.596 79.4775 165.797 79.2469 166.054 79.0849C166.312 78.9229 166.614 78.8369 166.923 78.8377C167.128 78.8377 167.331 78.8759 167.52 78.9503C167.71 79.0246 167.882 79.1335 168.026 79.2709C168.171 79.4082 168.286 79.5712 168.364 79.7505C168.442 79.9298 168.482 80.122 168.481 80.3159Z" fill="#407BFF"/>
<path d="M161.54 93.8183L161.224 94.862L162.426 95.8941L165.771 95.2423L166.325 94.9784C166.387 94.8906 166.467 94.8157 166.561 94.7583C166.655 94.701 166.76 94.6623 166.87 94.6448C165.566 93.3062 166.132 90.5785 166.645 88.7239L162.29 91.4399C162.499 92.5845 162.544 93.3527 161.54 93.8183Z" fill="#7F3E3B"/>
<path opacity="0.2" d="M165.611 89.3563L162.274 91.4399C162.368 91.8383 162.409 92.2462 162.397 92.6543C164.061 92.8871 165.382 91.6765 166.198 90.6212C166.275 90.1517 166.378 89.6939 166.485 89.2632L165.611 89.3563Z" fill="black"/>
<path d="M161.95 92.3633C162.005 92.3519 162.063 92.3543 162.117 92.3701C162.171 92.386 162.22 92.4149 162.259 92.454C162.298 92.4931 162.325 92.541 162.339 92.5931C162.352 92.6452 162.351 92.6997 162.335 92.7513C162.04 93.6088 161.577 95.2384 162.282 95.3548C162.987 95.4712 165.562 94.4663 166.669 93.9968C166.74 93.9673 166.816 93.9513 166.893 93.9498C166.97 93.9483 167.046 93.9613 167.118 93.988C167.19 94.0147 167.255 94.0546 167.31 94.1054C167.366 94.1562 167.41 94.2169 167.44 94.2839C167.523 94.4626 167.537 94.6631 167.479 94.8504C167.421 95.0377 167.296 95.1998 167.124 95.3082L163.397 97.6556L161.757 95.6225L159.797 95.3548L160.704 92.9996C160.755 92.8684 160.84 92.7516 160.952 92.66C161.064 92.5684 161.199 92.5051 161.343 92.4758L161.95 92.3633Z" fill="#263238"/>
<path d="M161.95 92.3633C162.005 92.3519 162.063 92.3543 162.117 92.3701C162.171 92.386 162.22 92.4149 162.259 92.454C162.298 92.4931 162.325 92.541 162.339 92.5931C162.352 92.6452 162.351 92.6997 162.335 92.7513C162.04 93.6088 161.577 95.2384 162.282 95.3548C162.987 95.4712 165.562 94.4663 166.669 93.9968C166.74 93.9673 166.816 93.9513 166.893 93.9498C166.97 93.9483 167.046 93.9613 167.118 93.988C167.19 94.0147 167.255 94.0546 167.31 94.1054C167.366 94.1562 167.41 94.2169 167.44 94.2839C167.523 94.4626 167.537 94.6631 167.479 94.8504C167.421 95.0377 167.296 95.1998 167.124 95.3082L163.397 97.6556L161.757 95.6225L159.797 95.3548L160.704 92.9996C160.755 92.8684 160.84 92.7516 160.952 92.66C161.064 92.5684 161.199 92.5051 161.343 92.4758L161.95 92.3633Z" fill="black"/>
<path d="M168.1 84.4598C167.784 87.6453 167.719 88.9994 165.96 90.5825C163.311 92.9687 159.244 91.9017 158.547 88.6929C157.924 85.7984 158.547 81.0571 161.897 79.9086C163.042 79.5027 164.311 79.5441 165.425 80.0236C166.538 80.5031 167.404 81.3815 167.833 82.4655C168.083 83.1021 168.174 83.7845 168.1 84.4598Z" fill="#7F3E3B"/>
<path d="M162.397 85.2901C162.442 85.5462 162.335 85.779 162.159 85.8061C161.983 85.8333 161.802 85.6471 161.749 85.3949C161.696 85.1427 161.815 84.906 161.987 84.8749C162.159 84.8439 162.36 85.0495 162.397 85.2901Z" fill="#263238"/>
<path d="M159.338 85.779C159.383 86.039 159.273 86.2679 159.1 86.2951C158.928 86.3222 158.74 86.136 158.69 85.8799C158.641 85.6238 158.752 85.391 158.928 85.3678C159.105 85.3445 159.289 85.523 159.338 85.779Z" fill="#263238"/>
<path d="M159.014 85.36L158.334 85.2863C158.334 85.2863 158.752 85.7247 159.014 85.36Z" fill="#263238"/>
<path d="M160.343 85.814C160.184 86.4344 159.936 87.0311 159.605 87.5871C159.758 87.6603 159.926 87.7023 160.098 87.7103C160.269 87.7183 160.441 87.6922 160.601 87.6337L160.343 85.814Z" fill="#630F0F"/>
<path d="M161.282 88.9374C161.145 88.9492 161.008 88.9492 160.872 88.9374C160.861 88.9364 160.851 88.9335 160.842 88.9289C160.833 88.9242 160.825 88.918 160.819 88.9104C160.812 88.9028 160.808 88.8941 160.805 88.8847C160.802 88.8754 160.801 88.8656 160.802 88.8559C160.806 88.8364 160.817 88.8189 160.834 88.8067C160.851 88.7946 160.871 88.7886 160.892 88.7899C161.231 88.8333 161.576 88.8008 161.9 88.695C162.223 88.5892 162.515 88.4131 162.754 88.1808C162.769 88.1665 162.79 88.1586 162.811 88.1586C162.832 88.1586 162.853 88.1665 162.868 88.1808C162.876 88.1876 162.882 88.1958 162.885 88.2048C162.889 88.2137 162.891 88.2234 162.891 88.2331C162.891 88.2429 162.889 88.2525 162.885 88.2615C162.882 88.2705 162.876 88.2787 162.868 88.2855C162.663 88.4883 162.417 88.6504 162.144 88.7623C161.872 88.8742 161.579 88.9337 161.282 88.9374Z" fill="#263238"/>
<path d="M163.59 84.0485C163.558 84.0617 163.523 84.0651 163.489 84.0581C163.455 84.0512 163.424 84.0342 163.401 84.0097C163.206 83.8434 162.977 83.7169 162.728 83.6381C162.479 83.5593 162.216 83.53 161.954 83.5519C161.933 83.5546 161.911 83.5532 161.89 83.5477C161.87 83.5423 161.85 83.533 161.833 83.5203C161.816 83.5076 161.803 83.4918 161.792 83.4739C161.782 83.456 161.776 83.4363 161.774 83.4161C161.77 83.3767 161.783 83.3375 161.808 83.3065C161.834 83.2755 161.872 83.255 161.913 83.2492C162.227 83.2206 162.544 83.2561 162.843 83.3531C163.141 83.4502 163.414 83.6066 163.643 83.8118C163.67 83.8431 163.682 83.8827 163.678 83.9224C163.674 83.9621 163.655 83.999 163.623 84.0252C163.614 84.0354 163.603 84.0433 163.59 84.0485Z" fill="#263238"/>
<path d="M158.26 84.5064C158.233 84.5157 158.204 84.5189 158.176 84.5155C158.147 84.5121 158.12 84.5023 158.096 84.487C158.063 84.4611 158.041 84.4242 158.036 84.3837C158.031 84.3433 158.042 84.3025 158.067 84.2697C158.216 84.0685 158.414 83.9049 158.645 83.7932C158.876 83.6816 159.132 83.6254 159.392 83.6295C159.433 83.6315 159.471 83.6483 159.499 83.6765C159.528 83.7046 159.543 83.742 159.543 83.7808C159.542 83.8005 159.537 83.8199 159.528 83.8376C159.519 83.8554 159.506 83.8713 159.49 83.8843C159.475 83.8973 159.457 83.9073 159.437 83.9135C159.417 83.9197 159.396 83.9221 159.375 83.9205C159.172 83.9236 158.973 83.972 158.793 84.0616C158.614 84.1513 158.459 84.2797 158.342 84.4365C158.324 84.4681 158.295 84.4927 158.26 84.5064Z" fill="#263238"/>
<path d="M162.085 84.9021L161.401 84.8284C161.401 84.8284 161.815 85.2397 162.085 84.9021Z" fill="#263238"/>
<path d="M160.593 79.6485C160.536 79.7399 160.505 79.8442 160.505 79.9504C160.505 80.0567 160.535 80.161 160.592 80.2526C160.649 80.3442 160.731 80.4196 160.829 80.471C160.927 80.5224 161.038 80.5479 161.15 80.5448C162.532 80.4866 164.84 80.7349 165.296 82.9233C165.964 86.0893 167.522 86.8731 167.522 86.8731C167.522 86.8731 173.471 83.3811 167.694 79.9201C167.69 79.9279 162.987 75.6948 160.593 79.6485Z" fill="#263238"/>
<path d="M168.92 86.943C168.689 87.5092 168.231 87.9655 167.645 88.2118C166.862 88.53 166.357 87.8936 166.476 87.1332C166.591 86.4503 167.132 85.4648 167.961 85.4531C168.25 85.4582 168.526 85.5718 168.727 85.7688C168.929 85.9659 169.039 86.2305 169.035 86.5046C169.03 86.6568 168.991 86.8062 168.92 86.943Z" fill="#7F3E3B"/>
<path d="M166.767 89.209L167.719 87.8704L168.715 89.1702L166.767 89.209Z" fill="#407BFF"/>
<path d="M166.669 79.4041C166.669 79.4041 164.521 77.7357 164.504 76.5213C164.488 75.3068 166.669 79.4041 166.669 79.4041Z" fill="#263238"/>
<path d="M129.523 136.739L128.396 136.626L128.912 131.92C128.98 131.3 129.177 130.699 129.49 130.151C129.804 129.603 130.228 129.119 130.74 128.726C131.251 128.333 131.839 128.04 132.47 127.862C133.101 127.684 133.763 127.626 134.418 127.691L143.377 128.575C143.767 128.615 144.161 128.581 144.536 128.476C144.912 128.371 145.262 128.197 145.567 127.964C145.872 127.731 146.125 127.443 146.312 127.117C146.499 126.791 146.616 126.434 146.657 126.065C146.674 125.895 146.726 125.73 146.811 125.579C146.896 125.428 147.011 125.295 147.151 125.187C147.29 125.079 147.451 124.998 147.624 124.949C147.797 124.899 147.978 124.883 148.158 124.901L158.207 125.89L159.334 125.999C159.514 126.016 159.688 126.066 159.847 126.147C160.006 126.228 160.147 126.338 160.261 126.47C160.375 126.602 160.461 126.754 160.513 126.918C160.565 127.081 160.582 127.253 160.564 127.423C160.522 127.792 160.556 128.164 160.667 128.52C160.777 128.876 160.96 129.208 161.206 129.496C161.453 129.785 161.757 130.024 162.101 130.201C162.445 130.378 162.823 130.489 163.213 130.527L163.717 130.577C164.372 130.644 165.006 130.831 165.584 131.13C166.162 131.428 166.672 131.831 167.085 132.316C167.498 132.801 167.806 133.359 167.992 133.956C168.177 134.554 168.236 135.181 168.166 135.8L167.649 140.495L166.521 140.386L132.84 137.065L129.56 136.739H129.523Z" fill="#407BFF"/>
<path opacity="0.3" d="M129.523 136.739L128.396 136.626L128.912 131.92C128.98 131.3 129.177 130.699 129.49 130.151C129.804 129.603 130.228 129.119 130.74 128.726C131.251 128.333 131.839 128.04 132.47 127.862C133.101 127.684 133.763 127.626 134.418 127.691L143.377 128.575C143.767 128.615 144.161 128.581 144.536 128.476C144.912 128.371 145.262 128.197 145.567 127.964C145.872 127.731 146.125 127.443 146.312 127.117C146.499 126.791 146.616 126.434 146.657 126.065C146.674 125.895 146.726 125.73 146.811 125.579C146.896 125.428 147.011 125.295 147.151 125.187C147.29 125.079 147.451 124.998 147.624 124.949C147.797 124.899 147.978 124.883 148.158 124.901L158.207 125.89L159.334 125.999C159.514 126.016 159.688 126.066 159.847 126.147C160.006 126.228 160.147 126.338 160.261 126.47C160.375 126.602 160.461 126.754 160.513 126.918C160.565 127.081 160.582 127.253 160.564 127.423C160.522 127.792 160.556 128.164 160.667 128.52C160.777 128.876 160.96 129.208 161.206 129.496C161.453 129.785 161.757 130.024 162.101 130.201C162.445 130.378 162.823 130.489 163.213 130.527L163.717 130.577C164.372 130.644 165.006 130.831 165.584 131.13C166.162 131.428 166.672 131.831 167.085 132.316C167.498 132.801 167.806 133.359 167.992 133.956C168.177 134.554 168.236 135.181 168.166 135.8L167.649 140.495L166.521 140.386L132.84 137.065L129.56 136.739H129.523Z" fill="white"/>
<path opacity="0.3" d="M147.768 126.185C147.786 126.015 147.838 125.85 147.924 125.699C148.009 125.548 148.125 125.415 148.264 125.307C148.404 125.199 148.565 125.118 148.738 125.069C148.912 125.02 149.093 125.004 149.273 125.021L159.322 126.011C159.501 126.028 159.676 126.078 159.835 126.159C159.994 126.24 160.135 126.349 160.249 126.481C160.363 126.614 160.449 126.766 160.501 126.93C160.553 127.093 160.57 127.265 160.552 127.435C160.509 127.803 160.544 128.176 160.654 128.532C160.764 128.888 160.948 129.219 161.194 129.508C161.44 129.796 161.744 130.036 162.089 130.213C162.433 130.39 162.811 130.501 163.2 130.539L163.705 130.589C164.359 130.654 164.994 130.84 165.572 131.137C166.151 131.434 166.662 131.836 167.076 132.32C167.49 132.804 167.799 133.36 167.986 133.957C168.173 134.555 168.234 135.181 168.166 135.8L167.649 140.495L129.519 136.739L130.036 132.04C130.104 131.42 130.3 130.819 130.614 130.271C130.927 129.723 131.352 129.239 131.863 128.846C132.374 128.454 132.962 128.16 133.594 127.982C134.225 127.805 134.887 127.747 135.542 127.811L144.5 128.692C144.889 128.731 145.282 128.697 145.657 128.592C146.032 128.488 146.381 128.314 146.684 128.081C146.988 127.848 147.24 127.561 147.426 127.235C147.612 126.91 147.728 126.553 147.768 126.185Z" fill="white"/>
<path d="M177.838 109.897L178.658 109.979L180.494 93.2713C176.759 92.9027 174.545 95.5993 174.156 99.1146L173.524 104.849C173.39 106.06 173.769 107.271 174.577 108.218C175.386 109.164 176.559 109.768 177.838 109.897Z" fill="#407BFF"/>
<path opacity="0.6" d="M177.838 109.897L178.658 109.979L180.494 93.2713C176.759 92.9027 174.545 95.5993 174.156 99.1146L173.524 104.849C173.39 106.06 173.769 107.271 174.577 108.218C175.386 109.164 176.559 109.768 177.838 109.897Z" fill="white"/>
<path d="M102.475 125.921C102.475 125.921 111.331 122.36 117.793 119.038L114.263 113.967C108.019 118.119 100.934 123.326 100.934 123.326L102.475 125.921Z" fill="#407BFF"/>
<path opacity="0.1" d="M102.475 125.921C102.475 125.921 111.331 122.36 117.793 119.038L114.263 113.967C108.019 118.119 100.934 123.326 100.934 123.326L102.475 125.921Z" fill="black"/>
<path d="M101.741 122.759L103.254 125.941C103.282 126 103.287 126.065 103.27 126.127C103.253 126.189 103.214 126.244 103.16 126.282L100.7 128.021C100.596 128.095 100.464 128.128 100.334 128.111C100.204 128.094 100.087 128.03 100.007 127.931C99.9856 127.905 99.9677 127.876 99.9539 127.846C99.4291 126.682 99.0109 125.642 98.3139 124.214C97.4939 122.526 97.4939 123.05 96.5304 121.075C95.9482 119.888 97.2766 119.062 97.5882 119.523C98.9986 121.708 99.8514 121.634 101.151 122.154C101.422 122.278 101.633 122.494 101.741 122.759Z" fill="#263238"/>
</svg>
