<svg width="19" height="21" viewBox="0 0 19 21" fill="none" xmlns="http://www.w3.org/2000/svg">
<path d="M4.38462 10.5C4.1908 10.5 4.00493 10.579 3.86788 10.7197C3.73084 10.8603 3.65385 11.0511 3.65385 11.25V15C3.65385 15.1989 3.73084 15.3897 3.86788 15.5303C4.00493 15.671 4.1908 15.75 4.38462 15.75C4.57843 15.75 4.7643 15.671 4.90135 15.5303C5.03839 15.3897 5.11538 15.1989 5.11538 15V14.25H5.48077C5.9653 14.25 6.42998 14.0525 6.7726 13.7008C7.11521 13.3492 7.30769 12.8723 7.30769 12.375C7.30769 11.8777 7.11521 11.4008 6.7726 11.0492C6.42998 10.6975 5.9653 10.5 5.48077 10.5H4.38462ZM5.48077 12.75H5.11538V12H5.48077C5.57768 12 5.67061 12.0395 5.73914 12.1098C5.80766 12.1802 5.84615 12.2755 5.84615 12.375C5.84615 12.4745 5.80766 12.5698 5.73914 12.6402C5.67061 12.7105 5.57768 12.75 5.48077 12.75ZM8.03846 11.25C8.03846 11.0511 8.11545 10.8603 8.2525 10.7197C8.38954 10.579 8.57542 10.5 8.76923 10.5H9.13461C9.81296 10.5 10.4635 10.7766 10.9432 11.2688C11.4228 11.7611 11.6923 12.4288 11.6923 13.125C11.6923 13.8212 11.4228 14.4889 10.9432 14.9812C10.4635 15.4734 9.81296 15.75 9.13461 15.75H8.76923C8.57542 15.75 8.38954 15.671 8.2525 15.5303C8.11545 15.3897 8.03846 15.1989 8.03846 15V11.25ZM9.5 14.1863C9.71411 14.1089 9.89956 13.9653 10.0308 13.7752C10.1619 13.5851 10.2324 13.3579 10.2324 13.125C10.2324 12.8921 10.1619 12.6649 10.0308 12.4748C9.89956 12.2847 9.71411 12.1411 9.5 12.0637V14.1863ZM12.4231 15V11.25C12.4231 11.0511 12.5001 10.8603 12.6371 10.7197C12.7742 10.579 12.96 10.5 13.1538 10.5H15.3462C15.54 10.5 15.7258 10.579 15.8629 10.7197C15.9999 10.8603 16.0769 11.0511 16.0769 11.25C16.0769 11.4489 15.9999 11.6397 15.8629 11.7803C15.7258 11.921 15.54 12 15.3462 12H13.8846V12.75H15.3462C15.54 12.75 15.7258 12.829 15.8629 12.9697C15.9999 13.1103 16.0769 13.3011 16.0769 13.5C16.0769 13.6989 15.9999 13.8897 15.8629 14.0303C15.7258 14.171 15.54 14.25 15.3462 14.25H13.8846V15C13.8846 15.1989 13.8076 15.3897 13.6706 15.5303C13.5335 15.671 13.3477 15.75 13.1538 15.75C12.96 15.75 12.7742 15.671 12.6371 15.5303C12.5001 15.3897 12.4231 15.1989 12.4231 15ZM10.2308 5.25V0H3.65385C3.07241 0 2.51479 0.237053 2.10365 0.65901C1.69251 1.08097 1.46154 1.65326 1.46154 2.25V8.25C1.07391 8.25 0.702166 8.40804 0.428075 8.68934C0.153983 8.97064 0 9.35218 0 9.75V16.5C0 16.8978 0.153983 17.2794 0.428075 17.5607C0.702166 17.842 1.07391 18 1.46154 18V18.75C1.46154 19.3467 1.69251 19.919 2.10365 20.341C2.51479 20.7629 3.07241 21 3.65385 21H15.3462C15.9276 21 16.4852 20.7629 16.8963 20.341C17.3075 19.919 17.5385 19.3467 17.5385 18.75V18C17.9261 18 18.2978 17.842 18.5719 17.5607C18.846 17.2794 19 16.8978 19 16.5V9.75C19 9.35218 18.846 8.97064 18.5719 8.68934C18.2978 8.40804 17.9261 8.25 17.5385 8.25V7.5H12.4231C11.8416 7.5 11.284 7.26295 10.8729 6.84099C10.4617 6.41903 10.2308 5.84674 10.2308 5.25ZM17.5385 9.75V16.5H1.46154V9.75H17.5385ZM11.6923 5.25V0.0877501C12.0494 0.19301 12.3745 0.389664 12.6372 0.65925L16.8961 5.03025C17.1588 5.29986 17.3504 5.63355 17.453 6H12.4231C12.2293 6 12.0434 5.92098 11.9063 5.78033C11.7693 5.63968 11.6923 5.44891 11.6923 5.25Z" fill="white"/>
</svg>
